<?xml version="1.0" encoding="UTF-8"?>
<svg id="Layer_1" data-name="Layer 1" xmlns="http://www.w3.org/2000/svg" viewBox="0 0 43.73 37.22">
  <defs>
    <style>
      .cls-1 {
        fill: #fff;
        stroke-width: 0px;
      }
    </style>
  </defs>
  <path class="cls-1" d="m43.41,12.3c-1.48-5.37-7.22-8.68-13-7.61C28,.31,22.48-1.29,18.1,1.13c-2.02,1.11-3.55,2.96-4.25,5.16-.13.41.09.85.5.99s.85-.09.99-.5c1.27-3.95,5.5-6.12,9.45-4.85,2,.64,3.63,2.09,4.51,3.99.16.33.53.51.89.42,5.16-1.24,10.42,1.62,11.73,6.38,1.04,3.79-.74,8.05-4.33,10.36-.31.2-.44.6-.3.95,1.79,4.27-.23,9.18-4.5,10.96-2.41,1.01-5.15.83-7.42-.47-.38-.21-.85-.08-1.06.3-.85,1.65,4.34,2.48,5.32,2.4,6.68.12,11.54-6.86,9.32-13.18,3.78-2.61,5.55-7.28,4.47-11.74h0Z"/>
  <path class="cls-1" d="m5.99,10.06h13.74c.43-.01.77-.37.76-.8-.01-.42-.35-.75-.76-.76H5.99c-.43.01-.77.36-.76.8,0,.42.35.76.76.76h0Z"/>
  <path class="cls-1" d="m22.77,13.46c0-.43-.35-.78-.78-.78H.78c-.43,0-.78.35-.78.78s.35.78.78.78h21.21c.43,0,.78-.35.78-.78h0Z"/>
  <path class="cls-1" d="m5.21,18.59c0,.43.35.78.78.78h27.59c.43,0,.78-.35.78-.78s-.35-.78-.78-.78H5.99c-.43,0-.78.35-.78.78h0Z"/>
  <path class="cls-1" d="m28.39,22.9c0-.43-.35-.78-.78-.78H3.12c-.43,0-.78.35-.78.78s.35.78.78.78h24.49c.43,0,.78-.35.78-.78h0Z"/>
  <path class="cls-1" d="m30.78,27.68c0-.43-.35-.78-.78-.78H11.39c-.43,0-.78.35-.78.78s.35.78.78.78h18.61c.43,0,.78-.35.78-.78h0Z"/>
  <path class="cls-1" d="m25.4,32.22c0-.43-.35-.78-.78-.78h-9.26c-.43,0-.78.35-.78.78s.35.78.78.78h9.26c.43,0,.78-.35.78-.78h0Z"/>
</svg>