<?xml version="1.0" encoding="UTF-8"?>
<svg id="Layer_1" data-name="Layer 1" xmlns="http://www.w3.org/2000/svg" viewBox="0 0 36.86 36.88">
  <defs>
    <style>
      .cls-1 {
        fill: #fff;
        stroke-width: 0px;
      }
    </style>
  </defs>
  <path class="cls-1" d="m5.84,2.52C6.07.96,6.99.05,8.33,0c1.32-.05,2.25.83,2.61,2.5.11,0,.24.02.36.02,2.79,0,5.58,0,8.37,0,.33,0,.44-.09.48-.42C20.31.91,21.45-.03,22.66,0c1.25.03,2.32.97,2.44,2.17.03.3.15.35.41.35.68,0,1.38-.02,2.05.08,1.97.31,3.44,2.05,3.45,4.04.01,3.14,0,6.28,0,9.42,0,.57-.35.96-.84.96s-.81-.36-.82-.93c-.01-1.56,0-3.13,0-4.69v-.48H1.69v17.35c0,1.69,1.03,2.72,2.73,2.72h12.13c.65,0,1.02.36.97.93-.04.37-.29.65-.65.71-.13.02-.26.02-.39.02-4.04,0-8.09.01-12.13,0-2.03,0-3.63-1.15-4.15-2.98-.13-.45-.19-.94-.19-1.41C0,21.16,0,14.04,0,6.92,0,4.32,1.8,2.54,4.39,2.52h1.45,0ZM1.7,9.2h27.6c0-.95.06-1.88-.02-2.8-.08-.98-.65-1.67-1.58-2.02-.83-.31-1.7-.13-2.56-.17-.02.11-.03.16-.04.21-.12,1.29-1.15,2.26-2.44,2.3-1.24.04-2.36-.91-2.52-2.17-.04-.3-.16-.34-.42-.34-2.83,0-5.66,0-8.49,0-.1,0-.2.01-.29.02-.38,1.64-1.21,2.46-2.53,2.48-.57,0-1.09-.17-1.55-.52-.64-.49-.94-1.17-1.01-1.95-.72,0-1.42-.06-2.11.01-1.03.11-1.96,1.07-2.03,2.1-.06.92-.01,1.86-.01,2.83h0ZM21.78,3.35c0,.28-.01.57,0,.85.03.48.36.81.81.82.47.01.84-.32.86-.81.02-.58.02-1.16,0-1.74-.02-.46-.41-.79-.85-.79-.45,0-.79.34-.82.81-.02.28,0,.57,0,.85h0Zm-12.57,0c0-.28.01-.57,0-.85-.02-.46-.38-.81-.81-.82-.45,0-.82.3-.84.78-.03.59-.03,1.19,0,1.78.02.49.38.79.84.78.45,0,.79-.34.81-.82.01-.28,0-.57,0-.85h0Z"/>
  <path class="cls-1" d="m36.86,27.67c.01,5.04-4.14,9.2-9.2,9.21-5.06.01-9.22-4.12-9.23-9.16,0-5.12,4.08-9.27,9.14-9.27,5.14,0,9.27,4.1,9.28,9.23h0Zm-16.75-.04c-.07,4.06,3.3,7.5,7.4,7.56,4.11.07,7.59-3.24,7.67-7.3.08-4.26-3.22-7.72-7.42-7.78-4.19-.06-7.58,3.27-7.65,7.51Z"/>
  <path class="cls-1" d="m18.44,16.35v1.16c0,1-.68,1.72-1.68,1.75-.84.02-1.68.02-2.52,0-.97-.03-1.64-.71-1.67-1.68-.02-.82-.02-1.66,0-2.48.03-1.03.74-1.69,1.78-1.7.77,0,1.55,0,2.32,0,1.06,0,1.76.71,1.77,1.78v1.16Zm-1.68,1.22c0-.78,0-1.54-.01-2.29,0-.06-.14-.18-.22-.18-.68-.01-1.37-.01-2.05,0-.08,0-.21.12-.22.18-.01.75-.01,1.51-.01,2.29h2.5Z"/>
  <path class="cls-1" d="m10.06,16.36c0,.4,0,.8,0,1.2-.02.98-.69,1.69-1.67,1.72-.84.02-1.68.02-2.52,0-.96-.03-1.63-.69-1.66-1.65-.03-.86-.03-1.73,0-2.59.04-.94.74-1.61,1.68-1.62.82-.01,1.65-.01,2.48,0,.97.02,1.67.73,1.69,1.71,0,.41,0,.83,0,1.24h0Zm-4.16-1.25v2.46h2.44v-2.46h-2.44Z"/>
  <path class="cls-1" d="m10.06,24.71c0,.42.01.85,0,1.28-.02.92-.7,1.63-1.61,1.66-.88.03-1.75.03-2.63,0-.87-.03-1.55-.67-1.6-1.54-.05-.93-.05-1.86,0-2.78.04-.86.75-1.5,1.61-1.52.86-.02,1.73-.02,2.59,0,.93.03,1.61.75,1.63,1.68.01.41,0,.82,0,1.24Zm-1.71,1.25v-2.47h-2.45v2.47h2.45Z"/>
  <path class="cls-1" d="m14.26,23.49v2.48c.57,0,1.12,0,1.67,0,.37,0,.64.18.79.53.13.32.08.64-.16.86-.17.15-.42.26-.65.28-.57.04-1.14.03-1.7,0-.94-.04-1.61-.7-1.64-1.67-.03-.84-.03-1.68,0-2.52.04-.99.74-1.66,1.72-1.67.81-.01,1.63,0,2.44,0,.17,0,.34.02.5.07.46.15.7.54.61.98s-.47.66-.96.65c-.86-.02-1.72,0-2.61,0h0Z"/>
  <path class="cls-1" d="m25.13,15.09c-.81,0-1.56-.01-2.3.01-.07,0-.19.21-.2.31-.02.64,0,1.29-.01,1.94,0,.61-.35.99-.86.98-.5-.01-.82-.39-.82-.98,0-.74-.01-1.47,0-2.21.01-1.04.72-1.74,1.77-1.75.79,0,1.57,0,2.36,0,1.02.01,1.72.71,1.73,1.73,0,.3.01.59,0,.89-.03.5-.35.82-.79.85-.46.02-.82-.29-.87-.8-.03-.3,0-.62,0-.99h0Z"/>
  <path class="cls-1" d="m26.81,25.53c0-.66,0-1.32,0-1.97,0-.54.35-.92.83-.93.47,0,.85.38.86.91.01,1.11.02,2.22,0,3.33,0,.33.09.56.33.77.36.33.7.68,1.04,1.04.38.4.39.9.03,1.23-.35.33-.83.32-1.21-.05-.53-.51-1.06-1.02-1.55-1.57-.18-.2-.29-.52-.31-.79-.04-.65-.01-1.32-.01-1.97h0Z"/>
</svg>