<svg width="108" height="110" viewBox="0 0 108 110" fill="none" xmlns="http://www.w3.org/2000/svg">
<g clip-path="url(#clip0_348_1839)">
<g filter="url(#filter0_d_348_1839)">
<path d="M77.7975 5.1748H29.3583C15.9822 5.1748 5.13867 15.9303 5.13867 29.1978V77.2439C5.13867 90.5114 15.9822 101.267 29.3583 101.267H77.7975C91.1736 101.267 102.017 90.5114 102.017 77.2439V29.1978C102.017 15.9303 91.1736 5.1748 77.7975 5.1748Z" fill="#F7F7F7"/>
</g>
<path fill-rule="evenodd" clip-rule="evenodd" d="M33.3945 41.2089C33.3945 37.892 36.1054 35.2031 39.4494 35.2031H67.7056C71.0497 35.2031 73.7605 37.892 73.7605 41.2089V57.2242C73.7605 60.5412 71.0497 63.23 67.7056 63.23H62.4867L55.0047 70.6513C54.2165 71.4331 52.9385 71.4331 52.1504 70.6513L44.6684 63.23H39.4494C36.1054 63.23 33.3945 60.5412 33.3945 57.2242V41.2089ZM39.4494 39.2069C38.3347 39.2069 37.4311 40.1032 37.4311 41.2089V57.2242C37.4311 58.3299 38.3347 59.2262 39.4494 59.2262H45.5043C46.0396 59.2262 46.553 59.4371 46.9315 59.8126L53.5776 66.4046L60.2235 59.8126C60.6021 59.4371 61.1154 59.2262 61.6507 59.2262H67.7056C68.8203 59.2262 69.7239 58.3299 69.7239 57.2242V41.2089C69.7239 40.1032 68.8203 39.2069 67.7056 39.2069H39.4494ZM41.4678 45.2127C41.4678 44.1071 42.3714 43.2108 43.486 43.2108H63.669C64.7837 43.2108 65.6874 44.1071 65.6874 45.2127C65.6874 46.3183 64.7837 47.2146 63.669 47.2146H43.486C42.3714 47.2146 41.4678 46.3183 41.4678 45.2127ZM41.4678 53.2204C41.4678 52.1147 42.3714 51.2184 43.486 51.2184H51.5592C52.6739 51.2184 53.5776 52.1147 53.5776 53.2204C53.5776 54.3261 52.6739 55.2224 51.5592 55.2224H43.486C42.3714 55.2224 41.4678 54.3261 41.4678 53.2204Z" fill="#9C1C1F"/>
</g>
<defs>
<filter id="filter0_d_348_1839" x="1.13867" y="5.1748" width="104.878" height="104.092" filterUnits="userSpaceOnUse" color-interpolation-filters="sRGB">
<feFlood flood-opacity="0" result="BackgroundImageFix"/>
<feColorMatrix in="SourceAlpha" type="matrix" values="0 0 0 0 0 0 0 0 0 0 0 0 0 0 0 0 0 0 127 0" result="hardAlpha"/>
<feOffset dy="4"/>
<feGaussianBlur stdDeviation="2"/>
<feComposite in2="hardAlpha" operator="out"/>
<feColorMatrix type="matrix" values="0 0 0 0 0 0 0 0 0 0 0 0 0 0 0 0 0 0 0.25 0"/>
<feBlend mode="normal" in2="BackgroundImageFix" result="effect1_dropShadow_348_1839"/>
<feBlend mode="normal" in="SourceGraphic" in2="effect1_dropShadow_348_1839" result="shape"/>
</filter>
<clipPath id="clip0_348_1839">
<rect width="107" height="109" fill="white" transform="translate(0.800781 0.87207)"/>
</clipPath>
</defs>
</svg>
