<?xml version="1.0" encoding="UTF-8"?>
<svg id="Layer_1" data-name="Layer 1" xmlns="http://www.w3.org/2000/svg" viewBox="0 0 28.98 46.84">
  <defs>
    <style>
      .cls-1 {
        fill: #fff;
        stroke-width: 0px;
      }
    </style>
  </defs>
  <path class="cls-1" d="m0,18.98v21.32C0,44.36,4.83,46.21,9.31,46.21c1.44,0,2.9-.19,4.24-.58.89.79,2.09,1.21,3.5,1.21,3.95,0,9.15-3.29,11.14-7.04,1.06-2.01,1.06-3.97,0-5.52l-9.57-14.03v-1.27c0-3.15-2.91-4.97-6.31-5.62C17.03,2.1,18.55.99,17.29.43c-.37-.16-.8,0-.97.37l-5.51,12.35c-.5-.05-1-.07-1.5-.07-.43,0-.86.02-1.29.06L4.93.56c-.09-.39-.49-.63-.89-.54-.39.1-.63.49-.54.89l3.05,12.41c-3.5.62-6.56,2.44-6.56,5.67h0Zm26.99,16.13c.94,1.38.47,2.94-.09,4.01-2.05,3.89-8.4,7.45-11.67,5.88,1.67-.81,3.06-2.12,3.35-3.97.1-.61.04-.86.06-3.1l5.23-3.57c.16-.11.27-.28.31-.47s0-.39-.12-.55l-5.42-7.95v-2.55s8.36,12.25,8.36,12.25Zm-8.36-7.11l3.8,5.57-3.8,2.59v-8.16ZM1.46,18.98c0-2.92,3.95-4.45,7.85-4.45.29,0,.58.01.87.03l-.52,1.17c-.12-.01-.23-.03-.35-.03-1.44,0-2.6,1.17-2.6,2.6s1.17,2.6,2.6,2.6,2.6-1.17,2.6-2.6c0-.79-.36-1.49-.92-1.97l.71-1.59c2.97.5,5.46,1.93,5.46,4.25-.02,22.5.04,21.35-.05,21.84h0c-.45,2.58-4.15,3.92-7.8,3.92-3.9,0-7.85-1.53-7.85-4.45v-21.32h0Zm7.85.45c-.63,0-1.14-.51-1.14-1.14,0-.52.35-.95.82-1.09-.06.28-.89,1.35.02,1.75.36.16.8,0,.97-.37l.35-.79c.37.77-.2,1.63-1.02,1.63h0Z"/>
  <path class="cls-1" d="m3.63,37.92c10.45-.28,12.11.62,12.11-.73v-15.1c0-1.36-1.69-.45-12.11-.73-.41,0-.73.33-.73.73v15.1c0,.41.33.73.73.73Zm.73-15.1h9.91v13.64H4.36s0-13.64,0-13.64Z"/>
</svg>