<?xml version="1.0" encoding="UTF-8"?>
<svg id="Layer_1" data-name="Layer 1" xmlns="http://www.w3.org/2000/svg" viewBox="0 0 42.34 42.27">
  <defs>
    <style>
      .cls-1 {
        fill: #fff;
        stroke-width: 0px;
      }
    </style>
  </defs>
  <g id="yDq2NE.tif">
    <path class="cls-1" d="m21.66,42.27h-.99c-.1-.03-.2-.07-.31-.09-1.71-.37-2.91-1.35-3.48-3-.56-1.62-.24-3.11.86-4.44.58-.7,1.33-1.14,2.17-1.42v-7.46h-4.11v5.81c0,1.04-.47,1.5-1.52,1.5-1.65,0-3.31,0-4.96,0-.29,0-.43.1-.54.37-.63,1.6-1.81,2.58-3.5,2.86-2.05.34-3.92-.72-4.81-2.57-.22-.44-.38-.91-.44-1.4-.27-1.99,1.07-4.09,2.94-4.78.02,0,.05-.02.08-.03.31-.11.64-.18.96-.2,2.21-.18,3.99.91,4.8,2.98.1.24.21.3.45.3,1.24,0,2.48,0,3.72,0,.1,0,.21-.02.3-.03v-4.8h-.59c-1.7-.03-3.43.1-5.11-.13-3.38-.46-5.71-2.4-6.98-5.56-.28-.69-.4-1.44-.59-2.17v-1.9c.03-.07.06-.15.08-.22.25-.84.39-1.72.74-2.51,1.06-2.33,2.85-3.9,5.29-4.71.24-.08.32-.2.36-.45.12-.74.22-1.5.46-2.21C8.97.09,16.17-1.91,20.95,2.07c.22.18.37.19.61.06,1.99-1.08,4.14-1.45,6.35-1.04,4.05.76,6.74,3.16,8.03,7.08.1.29.23.45.52.55,4.24,1.49,6.68,6.04,5.61,10.4-.94,3.85-4.42,6.66-8.33,6.71-1.42.02-2.84,0-4.26.01h-.46v4.6c0,.07.02.13.02.2.07.01.12.03.17.03,1.31,0,2.62,0,3.92,0,.12,0,.3-.16.36-.29.78-1.85,2.14-2.87,4.16-2.99,2.7-.15,5.02,2.39,4.64,5.07-.31,2.18-1.93,3.79-4.14,3.99-1.94.17-3.87-.91-4.63-2.95-.09-.25-.21-.33-.47-.33-1.67.01-3.33,0-5,0-1.05,0-1.52-.46-1.52-1.5v-5.81h-4.11v7.46c.12.05.25.1.37.15,1.86.71,3.01,2.51,2.9,4.59-.09,1.8-1.5,3.53-3.29,4.02-.25.07-.5.12-.75.19h0Zm-.54-18.92h12.02c.44,0,.88-.03,1.32-.08,3.43-.42,6-4.03,5.25-7.41-.58-2.63-2.18-4.31-4.8-5-.67-.17-1.05-.57-1.19-1.26-1.1-5.41-7.16-7.91-11.74-4.83-.83.56-1.35.51-2.03-.22-1.39-1.47-3.09-2.15-5.1-2.04-3.43.2-6.13,3.23-5.9,6.64.07,1.03-.27,1.45-1.3,1.64-3.44.64-5.73,4.06-5.02,7.48.62,2.98,3.17,5.07,6.22,5.08,4.09,0,8.18,0,12.27,0h0Zm-16.58,6.52c-1.12,0-2.05.94-2.05,2.05s.93,2.04,2.06,2.05c1.13,0,2.09-.96,2.07-2.07-.02-1.12-.95-2.03-2.08-2.03Zm33.22,0c-1.12,0-2.06.93-2.06,2.04,0,1.11.92,2.04,2.05,2.06,1.13.02,2.09-.94,2.08-2.06-.01-1.12-.94-2.03-2.07-2.03h0Zm-16.59,5.78c-1.14,0-2.09.93-2.08,2.06.01,1.12.95,2.04,2.06,2.04s2.05-.93,2.06-2.04c0-1.11-.93-2.05-2.04-2.06h0Z"/>
  </g>
</svg>