<?xml version="1.0" encoding="UTF-8"?>
<svg id="Layer_1" data-name="Layer 1" xmlns="http://www.w3.org/2000/svg" viewBox="0 0 42.69 47.34">
  <defs>
    <style>
      .cls-1 {
        fill: #fff;
        stroke-width: 0px;
      }
    </style>
  </defs>
  <path class="cls-1" d="m28.72,47.34h-9.65c-.75,0-.95-.13-1.16-.87-.41-1.38-.94-2.7-1.8-3.87-.06-.09-.12-.18-.19-.26-.87-1.04-.95-1.03-2.23-.64-1.79.56-3.6,1.09-5.41,1.57-1.51.4-2.92-.38-3.49-1.83-.38-.99-.45-1.99-.22-3.02.21-.93.15-1.02-.63-1.53-.09-.06-.18-.12-.28-.17-.71-.42-.9-.92-.62-1.69.11-.3.06-.46-.19-.66-.91-.72-.97-1.11-.43-2.15.17-.33.33-.66.47-1.01.16-.41.02-.73-.36-.94-.29-.16-.58-.31-.86-.47-.25-.15-.51-.3-.75-.47-.99-.72-1.2-1.69-.52-2.71.77-1.16,1.64-2.27,2.39-3.45.62-.98,1.13-2.04,1.7-3.05.19-.35.14-.61-.15-.86-.19-.16-.35-.35-.54-.52-.95-.87-1.21-1.81-.69-2.98.63-1.44,1.11-2.92,1.51-4.45.69-2.64,2.01-4.94,4-6.83,1.42-1.36,3.15-2.21,5.01-2.75C17.17.69,20.8.11,24.5,0c3.66-.1,7.02.96,10.1,2.92,1.63,1.03,3.2,2.13,4.5,3.59,1.81,2.02,2.83,4.41,3.21,7.06.2,1.42.33,2.87.37,4.31.07,2.61-.68,5-2.16,7.14-.82,1.19-1.7,2.34-2.48,3.55-1.65,2.58-2.2,5.42-1.86,8.44.26,2.28.71,4.52,1.7,6.61.28.59.69,1.11,1.03,1.66.17.29.35.59.48.9.24.56-.08,1.08-.68,1.15-.14.02-.28,0-.42,0h-9.57Zm-24.12-11.92s.08.07.12.1c1.54.83,1.7,2.03,1.4,3.29-.08.34-.12.71-.09,1.06.13,1.31.7,2.3,2.37,1.76,2.53-.81,5.07-1.57,7.6-2.4,1.28-.42,2.56-.87,3.79-1.41,1.02-.45,1.96-1.05,2.1-2.34.06-.51.4-.78.84-.74.45.04.72.42.7.93-.03.85-.38,1.56-.95,2.17-.89.94-2.02,1.49-3.21,1.92-.87.32-1.75.62-2.66.94.07.11.1.17.14.23,1.13,1.33,1.97,2.83,2.47,4.5.09.3.27.32.52.32,5.72,0,11.44,0,17.16,0,.11,0,.22-.03.34-.04-.28-.5-.58-.94-.79-1.42-1.23-2.73-1.82-5.61-1.92-8.59-.08-2.35.34-4.63,1.48-6.7.75-1.37,1.64-2.67,2.58-3.93,1.75-2.36,2.71-4.95,2.51-7.9-.08-1.17-.18-2.36-.37-3.52-.41-2.59-1.41-4.93-3.39-6.68-1.25-1.11-2.62-2.1-4.04-2.98-2.58-1.6-5.43-2.45-8.49-2.42-3.34.04-6.61.61-9.85,1.39-4.6,1.11-7.42,4.04-8.78,8.5-.43,1.4-.85,2.79-1.35,4.16-.54,1.46-.68,1.3.52,2.4.67.62,1.16,1.67.54,2.78-.6,1.06-1.12,2.16-1.76,3.18-.72,1.14-1.52,2.23-2.32,3.32-.27.37-.24.6.13.81.39.22.77.46,1.17.67,1.34.72,1.75,1.91,1.14,3.3-.06.14-.11.3-.2.42-.35.43-.2.69.22.99.91.66.92.78.39,1.75-.03.05-.04.12-.06.17h0Z"/>
  <path class="cls-1" d="m27.23,26.86c-.62-.07-1.24-.13-1.85-.21-.47-.06-.71-.37-.73-.82-.02-.4-.02-.81,0-1.21,0-.27-.06-.44-.35-.51-.21-.05-.41-.14-.61-.22-.57-.24-1.07-.14-1.52.31-.14.14-.28.29-.43.43-.33.3-.7.35-1.06.1-1.1-.76-2.03-1.69-2.78-2.79-.24-.35-.15-.72.14-1.02.29-.3.61-.58.88-.9.1-.12.11-.35.08-.51-.04-.19-.17-.36-.25-.55-.24-.61-.69-.91-1.36-.91-.2,0-.4,0-.61-.01-.44-.04-.7-.29-.78-.73-.22-1.25-.23-2.5,0-3.76.1-.54.33-.75.88-.77.4-.01.81-.02,1.21,0,.24,0,.36-.08.44-.31.14-.41.34-.8.48-1.21.04-.14,0-.36-.09-.47-.26-.31-.57-.57-.85-.87-.38-.4-.4-.76-.08-1.21.7-.98,1.55-1.82,2.52-2.54.5-.37.88-.35,1.33.09.34.32.62.83,1.01.92.36.09.81-.31,1.23-.42.46-.12.63-.36.57-.83-.04-.32-.01-.65,0-.98.02-.47.27-.8.73-.83,1.02-.07,2.05-.15,3.06-.09,1.56.09,1.44.46,1.44,1.69,0,.14.01.28,0,.42-.04.3.09.45.38.54.35.11.7.25,1.03.43.28.15.47.14.68-.11.24-.29.51-.54.78-.8.38-.36.76-.39,1.18-.1,1.05.74,1.94,1.65,2.68,2.7.26.37.2.74-.11,1.06-.29.31-.61.58-.88.9-.1.12-.13.36-.09.51.13.41.31.81.5,1.2.07.13.25.26.38.27.42.04.84,0,1.26.02.51.02.77.25.86.75.22,1.25.22,2.51,0,3.76-.09.49-.36.73-.86.76-.39.02-.78.03-1.16,0-.3-.02-.47.07-.53.37-.04.18-.09.38-.19.52-.5.66-.3,1.17.31,1.62.16.12.3.27.43.43.28.32.3.68.06,1.03-.74,1.05-1.63,1.96-2.68,2.7-.43.3-.79.26-1.17-.11-.29-.28-.56-.59-.87-.85-.11-.09-.33-.14-.46-.1-.42.14-.84.31-1.24.51-.13.07-.26.25-.28.4-.04.4,0,.81-.02,1.21-.02.57-.23.83-.79.91-.61.09-1.23.14-1.85.2h0Zm-9.83-12.54v1.13c0,.67.35,1,1.03,1h.37c.66,0,.83.18,1.05.82.24.68.51,1.36.83,2.01.31.64.3.91-.21,1.4-.29.28-.6.54-.99.9.55.55,1.03,1.02,1.56,1.54.41-.43.74-.78,1.08-1.12s.68-.33,1.11-.14c.76.35,1.54.66,2.32.95.43.16.67.42.67.89,0,.37.01.75,0,1.12,0,.25.07.38.34.38.47,0,.93,0,1.4,0,.29,0,.38-.13.36-.4-.02-.34,0-.68,0-1.03.01-.58.2-.78.74-.98.74-.27,1.47-.57,2.19-.9.55-.25.79-.27,1.21.15.33.32.62.68.99,1.09.57-.56,1.05-1.02,1.64-1.6-.45-.39-.82-.68-1.15-1-.36-.33-.37-.7-.17-1.14.34-.76.66-1.53.95-2.31.15-.41.39-.66.85-.66.4,0,.81.02,1.21-.01.11,0,.3-.14.3-.23.03-.62.01-1.23.01-1.89-.53,0-.99,0-1.45,0-.54,0-.75-.21-.94-.72-.27-.74-.57-1.47-.9-2.18-.26-.55-.25-.87.21-1.29.32-.29.66-.56,1-.85-.57-.62-1.03-1.11-1.57-1.69-.42.47-.73.84-1.07,1.18-.3.31-.64.3-1.03.13-.78-.34-1.56-.67-2.36-.97-.46-.17-.68-.45-.68-.93,0-.37.02-.75-.01-1.12,0-.11-.14-.3-.23-.3-.6-.03-1.2-.01-1.85-.01,0,.5,0,.93,0,1.37,0,.64-.19.82-.79,1.04-.7.25-1.39.53-2.06.84-.66.31-.88.32-1.4-.21-.29-.3-.53-.64-.82-.99-.62.59-1.09,1.05-1.65,1.59.42.38.76.68,1.09.99.34.31.41.67.22,1.1-.35.81-.69,1.62-1.01,2.44-.15.4-.4.61-.83.61h-1.57Z"/>
  <path class="cls-1" d="m9.88,19.95c.33.26.65.43.86.69.29.38.55.16.85.08.31-.08.3-.3.3-.54,0-.2,0-.41.03-.61.07-.41.34-.63.75-.62.41,0,.67.21.75.62.03.15.05.31.03.46-.05.41.07.65.51.78.25.07.4.08.57-.11.13-.15.28-.3.43-.42.34-.26.69-.26,1.02.02.28.24.32.68.1,1.02-.08.12-.17.23-.28.31-.35.26-.48.57-.18.93.11.13.27.25.43.29.2.05.43,0,.65.04.4.05.7.38.68.76-.02.4-.21.68-.63.75-.2.03-.4.06-.6.04-.3-.02-.45.08-.6.37-.17.35-.14.58.16.79.04.03.07.07.1.1.46.48.52.94.17,1.31-.35.36-.85.31-1.28-.21-.31-.36-.61-.46-.98-.18-.12.09-.23.25-.26.4-.05.24,0,.5-.05.74-.07.41-.36.62-.76.62-.4,0-.67-.23-.73-.64-.03-.18-.05-.38-.02-.56.05-.35-.1-.51-.43-.64-.31-.13-.51-.13-.71.14-.11.14-.26.27-.4.38-.34.25-.74.21-1.02-.06-.29-.29-.32-.72-.05-1.06.09-.11.17-.23.29-.31.37-.25.41-.56.14-.89-.11-.13-.27-.25-.43-.29-.24-.06-.49-.03-.74-.07-.42-.07-.61-.38-.59-.77.02-.39.24-.67.65-.73.14-.02.28-.02.42-.02.61,0,.72-.08.84-.67.02-.11-.06-.25-.13-.35-.15-.19-.4-.34-.48-.56-.09-.23-.13-.56-.04-.78.1-.21.38-.34.67-.57h0Zm2.8,5.28c.86,0,1.57-.72,1.56-1.58,0-.85-.73-1.58-1.57-1.58-.86,0-1.61.76-1.59,1.62.02.85.75,1.55,1.6,1.55h0Z"/>
  <path class="cls-1" d="m8.99,11.17c.14.1.37.27.61.41.13.08.32.18.42.13.13-.06.21-.25.27-.4.05-.13,0-.28.04-.41.07-.41.35-.63.74-.64.37,0,.66.18.75.57.05.19.02.4.08.6.03.11.12.25.22.29.1.04.26,0,.36-.06.16-.1.27-.26.43-.36.34-.22.76-.15,1.01.15.25.32.25.66.01.99-.08.11-.21.19-.28.31-.07.12-.14.3-.1.39.06.12.23.19.37.24.17.05.37.02.55.08.39.12.58.41.53.82-.05.4-.3.63-.7.68-.08,0-.16-.02-.23,0-.18.07-.42.12-.5.26-.06.1.1.33.17.49.11.25.32.48.34.73.04.57-.64.93-1.13.64-.17-.1-.3-.28-.47-.38-.1-.06-.27-.1-.36-.05-.1.04-.19.18-.22.3-.05.19-.03.4-.08.6-.09.39-.38.57-.76.56-.4-.01-.67-.22-.74-.64-.02-.12,0-.26-.03-.37-.05-.16-.12-.39-.23-.42-.14-.04-.34.07-.5.14-.08.04-.13.13-.2.19-.33.27-.75.26-1.06-.03-.28-.26-.31-.69-.09-1.02.04-.05.09-.09.12-.14.1-.2.28-.41.27-.61-.03-.36-.38-.22-.6-.24-.51-.03-.83-.31-.85-.75-.02-.43.29-.77.78-.83.12-.02.26.02.37-.02.12-.04.27-.11.3-.2.04-.12,0-.28-.06-.4-.13-.28-.38-.54-.43-.83-.07-.41.33-.77.9-.77h0Zm2.07,1.92c-.59,0-1.09.52-1.09,1.1s.51,1.09,1.11,1.08c.64,0,1.13-.5,1.11-1.12-.02-.61-.51-1.07-1.12-1.06h0Z"/>
  <path class="cls-1" d="m32.37,15.37c0,2.85-2.28,5.13-5.12,5.13-2.83,0-5.12-2.31-5.1-5.15.02-2.82,2.3-5.11,5.1-5.12,2.82,0,5.13,2.3,5.13,5.14Zm-1.59,0c0-1.95-1.57-3.53-3.51-3.55-1.92-.02-3.55,1.62-3.55,3.57,0,1.95,1.57,3.53,3.52,3.54,1.95.02,3.54-1.59,3.54-3.56Z"/>
</svg>