<?xml version="1.0" encoding="UTF-8"?>
<svg id="Layer_1" data-name="Layer 1" xmlns="http://www.w3.org/2000/svg" viewBox="0 0 40.48 40.44">
  <defs>
    <style>
      .cls-1 {
        fill: #fff;
        stroke-width: 0px;
      }
    </style>
  </defs>
  <path class="cls-1" d="m20.22,40.44C9.66,40.69-.01,31.74,0,20.2.02,9.06,9.24,0,20.25,0s20.3,9.14,20.23,20.38c-.07,11.36-9.65,20.34-20.27,20.06h0Zm12.18-7.19c4.77-4.26,7.57-12.15,4.28-19.97-2.92-6.95-10.05-11.54-18.19-10.81-7.69.69-14.25,6.66-15.75,14.32-1.42,7.3,1.97,13.6,5.37,16.41,1.2-3.79,3.63-6.49,7.27-8.13-4.6-3.17-5.09-9.23-1.89-13.01,3.22-3.81,8.67-4.27,12.53-1.01,1.76,1.49,2.79,3.43,3,5.73.32,3.48-1.07,6.22-3.89,8.3,3.65,1.65,6.07,4.35,7.27,8.17h0Zm-12.16,4.85c3.53-.04,6.79-.97,9.76-2.9.28-.18.32-.35.25-.65-.94-4.31-4.53-7.51-8.95-7.97-5.21-.54-9.97,2.91-11.06,8.01-.06.28,0,.43.24.58,2.97,1.93,6.23,2.88,9.75,2.92h0Zm6.43-20.4c0-3.55-2.87-6.42-6.42-6.41-3.53,0-6.39,2.87-6.4,6.4,0,3.55,2.86,6.43,6.41,6.43s6.41-2.86,6.41-6.42h0Z"/>
</svg>