<?xml version="1.0" encoding="UTF-8"?>
<svg id="Layer_1" data-name="Layer 1" xmlns="http://www.w3.org/2000/svg" viewBox="0 0 38.94 38.94">
  <defs>
    <style>
      .cls-1 {
        fill: #fff;
        stroke-width: 0px;
      }
    </style>
  </defs>
  <path class="cls-1" d="m38.94,19.45v15.85c0,1.49-.59,2.64-1.96,3.27-.54.24-1.18.34-1.78.34-7.89.02-15.78.02-23.67.02-2.66,0-5.33,0-7.99,0-1.46,0-2.58-.63-3.19-1.95-.24-.51-.33-1.13-.33-1.7C0,28.45,0,21.62,0,14.79,0,11.02,0,7.26,0,3.49,0,2.01.67.91,2.02.3,2.47.1,3.02.01,3.52.01,14.16,0,24.8,0,35.43,0c2.03,0,3.48,1.44,3.5,3.47.02,1.78,0,3.57,0,5.35v10.62h0Zm-1.81-12.36h-14.28c-1.9,0-3.43-.75-4.52-2.33-.6-.87-1.19-1.75-1.77-2.64-.16-.25-.35-.34-.64-.34-4.08,0-8.17,0-12.25,0-1.28,0-1.87.59-1.87,1.87v31.58c0,1.3.59,1.89,1.89,1.89h31.53c1.34,0,1.9-.57,1.9-1.91V7.09h0Zm0-1.81v-1.63c0-1.28-.59-1.86-1.87-1.86h-16.76c.43.65.82,1.2,1.18,1.77.75,1.18,1.81,1.74,3.22,1.73,4.57-.02,9.13,0,13.71,0h.53,0Z"/>
  <path class="cls-1" d="m24.3,30c.19.33.39.55.45.8.14.59-.33,1.04-1.02,1.05-.47.01-.7.25-.7.72,0,.6,0,1.2,0,1.8,0,.66-.35,1.01-1.01,1.01-1.7,0-3.4,0-5.1,0-.62,0-.98-.36-.99-.99,0-.82,0-1.64,0-2.54h-.67c-.57,0-.9-.19-1.04-.6-.16-.46.02-.81.39-1.09.02-.02.03-.05.08-.15-.62-.6-1.27-1.21-1.9-1.84-.48-.48-.52-.8-.18-1.37,2.01-3.46,4.03-6.91,6.04-10.36.39-.67,1.26-.66,1.67.02.97,1.64,1.93,3.3,2.89,4.95,1.02,1.76,2.05,3.51,3.07,5.27.41.71.39,1.01-.19,1.58-.6.6-1.22,1.19-1.78,1.74h0Zm-9.89-2.75c.9.91,1.77,1.79,2.65,2.66.08.08.24.13.37.13,1.35,0,2.7.01,4.06,0,.16,0,.35-.09.47-.2.77-.75,1.52-1.52,2.29-2.26.23-.22.26-.38.1-.67-1.1-1.85-2.19-3.72-3.28-5.58-.2-.33-.39-.67-.62-1.06-.04.13-.07.18-.07.23,0,1.92,0,3.85,0,5.77,0,.1.11.24.21.29.48.23.71.56.63,1-.08.45-.43.75-.96.76-.49.02-.98,0-1.46,0-.63,0-1.01-.26-1.1-.75-.09-.5.15-.83.77-1.06.02,0,.04-.03.05-.04v-6.15s-.05-.01-.07-.02c-1.35,2.3-2.7,4.61-4.06,6.94h0Zm3.33,6.32h3.44v-1.68h-3.44v1.68Z"/>
  <path class="cls-1" d="m8.87,12.44c0,.3,0,.57,0,.83-.02.52-.36.87-.87.88-1.2.01-2.4.01-3.6,0-.5,0-.85-.35-.85-.85-.02-1.2-.02-2.4,0-3.6,0-.49.37-.84.86-.84,1.2-.01,2.4-.02,3.6,0,.5,0,.84.37.86.89,0,.26,0,.53,0,.82h7.95c0-.3,0-.58,0-.85.02-.49.36-.85.85-.85,1.2-.02,2.4-.02,3.6,0,.5,0,.83.35.85.85.01.28,0,.55,0,.86h7.95c0-.26,0-.52,0-.77.02-.59.35-.93.94-.94,1.14,0,2.29,0,3.43,0,.61,0,.94.35.95.98,0,1.11,0,2.23,0,3.34,0,.64-.34.98-.98.98-1.1,0-2.2,0-3.3,0-.73,0-1.03-.31-1.04-1.05v-.67c-.16,0-.3-.02-.43-.02-2.35,0-4.71,0-7.06,0-.37,0-.51.11-.46.47.02.14,0,.28,0,.42-.02.53-.34.86-.87.86-1.18.01-2.37.01-3.55,0-.52,0-.85-.36-.87-.88,0-.26,0-.53,0-.83h-7.95,0Zm10.59-.07c.59,0,.88-.29.88-.87v-.04c0-.55-.28-.83-.84-.83-.6,0-.9.3-.9.89,0,.57.29.85.86.85h0Zm-12.37-1.74c-.54,0-1.02-.01-1.5.01-.09,0-.23.15-.24.24-.02.41-.02.83,0,1.25,0,.08.16.22.25.23.41.02.83.02,1.25,0,.08,0,.23-.13.23-.2.02-.5,0-.99,0-1.53h0Zm26.49,0c-.51,0-.99-.01-1.47.01-.08,0-.23.15-.23.24-.02.41-.02.83,0,1.24,0,.08.13.22.21.23.49.02.98,0,1.5,0v-1.74h0Z"/>
  <path class="cls-1" d="m6.21,5.31c-.47,0-.89-.4-.91-.86-.01-.49.4-.91.89-.92.5,0,.91.41.91.9,0,.47-.42.87-.89.88Z"/>
  <path class="cls-1" d="m14.15,4.42c0,.5-.35.88-.85.89-.5.02-.91-.38-.91-.88s.38-.88.86-.89c.51-.01.9.36.9.88Z"/>
  <path class="cls-1" d="m8.86,4.42c0-.5.38-.88.87-.89.52,0,.9.37.9.89,0,.51-.39.89-.91.89-.49,0-.86-.4-.86-.89h0Z"/>
</svg>