<?xml version="1.0" encoding="UTF-8"?>
<svg id="Layer_1" data-name="Layer 1" xmlns="http://www.w3.org/2000/svg" viewBox="0 0 45.6 44.14">
  <defs>
    <style>
      .cls-1 {
        fill: #fff;
        stroke-width: 0px;
      }
    </style>
  </defs>
  <path class="cls-1" d="m15.47,11.23c1.04-.86,2.08-1.73,3.13-2.6.37-.31.73-.62,1.1-.92.22-.17.31-.33.2-.64-.56-1.69.4-3.46,2.1-3.92,1.69-.46,3.42.61,3.77,2.36.17.82.04,1.62-.48,2.31-.18.24-.2.4-.03.66,1.83,2.72,3.65,5.45,5.47,8.18.13.19.24.24.48.2.36-.06.74-.07,1.11-.05.25.02.38-.05.49-.27,1.98-3.64,3.96-7.29,5.95-10.92.15-.28.04-.42-.11-.62-.78-1-.93-2.11-.38-3.25C38.82.62,39.77.04,41.01,0c1.72-.05,3.14,1.38,3.11,3.09-.03,1.78-1.48,3.17-3.25,3.02-.48-.04-.68.12-.88.5-1.98,3.65-3.97,7.28-5.88,10.79.3.71.66,1.31.8,1.96.28,1.34-.45,2.62-1.71,3.24-1.14.55-2.61.26-3.5-.7-.9-.97-1.11-2.46-.39-3.58.31-.48.22-.76-.06-1.17-1.74-2.58-3.46-5.18-5.18-7.77-.18-.27-.33-.37-.68-.29-.7.16-1.4.06-2.04-.31-.21-.12-.35-.15-.55.03-1.36,1.15-2.74,2.28-4.1,3.43-.1.09-.16.34-.12.48.4,1.34,0,2.71-1.06,3.45-1.16.83-2.53.84-3.68-.01-.88-.66-1.28-1.57-1.18-2.67.03-.34-.08-.48-.36-.61-1.04-.5-2.07-1.02-3.09-1.55-.25-.13-.41-.12-.62.08-1.09,1-2.67,1.07-3.84.19-1.17-.88-1.57-2.47-.93-3.78.62-1.29,2.11-1.98,3.5-1.63,1.41.36,2.38,1.64,2.28,3.1-.03.44.13.6.48.76,1.01.48,2.01,1,3.02,1.48.13.06.39.04.5-.04,1.21-.98,2.38-1.09,3.74-.33.04.02.08.03.15.06h0Zm-9.4-2.05c0-.84-.66-1.52-1.5-1.52-.84,0-1.52.67-1.52,1.51,0,.81.68,1.49,1.48,1.5.84,0,1.53-.66,1.53-1.49h0Zm16.72-1.55c.83,0,1.52-.68,1.52-1.5s-.69-1.5-1.52-1.5c-.81,0-1.48.67-1.49,1.48-.01.82.68,1.52,1.5,1.52Zm10.61,12.19c0-.84-.62-1.5-1.45-1.51-.86-.01-1.52.63-1.53,1.48,0,.85.66,1.52,1.5,1.51.84,0,1.47-.64,1.48-1.48h0Zm-19.72-4.6c.86,0,1.51-.65,1.5-1.51,0-.82-.67-1.47-1.49-1.48-.84,0-1.51.68-1.5,1.52,0,.83.66,1.47,1.49,1.47h0ZM41.02,1.59c-.82,0-1.47.66-1.48,1.49,0,.84.67,1.51,1.51,1.5.81,0,1.48-.69,1.49-1.49,0-.82-.69-1.5-1.52-1.5h0Z"/>
  <path class="cls-1" d="m22.78,44.14H1.17c-.98,0-1.17-.2-1.17-1.19v-2.38c0-.76.26-1.01,1.04-1.02h43.26c.17,0,.33,0,.5,0,.52.04.8.32.8.83,0,.97,0,1.95,0,2.92,0,.52-.28.8-.8.83-.16,0-.33,0-.5,0h-21.52,0Zm-21.19-3v1.42h42.45v-1.42H1.59Z"/>
  <path class="cls-1" d="m37.23,25.91v-11.86c0-.87.23-1.1,1.08-1.1h5.48c.8,0,1.06.25,1.06,1.04v23.77c0,.8-.25,1.04-1.05,1.04h-5.53c-.81,0-1.05-.23-1.05-1.03v-11.86h0Zm6.03,11.35V14.54h-4.46v22.71h4.46Z"/>
  <path class="cls-1" d="m18.98,27.39v-10.11c0-1.13.16-1.28,1.3-1.28h5.35c.71,0,.99.27.99.97v20.85c0,.72-.28.99-1.02.99h-5.57c-.81,0-1.05-.24-1.05-1.04v-10.38h0Zm1.59-9.84v19.69h4.44v-19.69h-4.44Z"/>
  <path class="cls-1" d="m8.39,28.96v8.81c0,.8-.25,1.04-1.04,1.04H1.73c-.71,0-.98-.26-.98-.97v-17.83c0-.69.28-.96.95-.96h5.7c.71,0,.98.27.98.97v8.94Zm-1.58,8.31v-16.66H2.34v16.66h4.47Z"/>
  <path class="cls-1" d="m9.88,31.21v-6.56c0-.83.24-1.07,1.07-1.07h5.48c.83,0,1.06.23,1.06,1.07v13.12c0,.81-.23,1.03-1.04,1.03h-5.57c-.75,0-1-.24-1-.99v-6.6h0Zm6.04,6.04v-12.08h-4.48v12.08h4.48Z"/>
  <path class="cls-1" d="m35.72,34.26c0,1.21,0,2.43,0,3.64,0,.63-.27.9-.9.9h-5.79c-.63,0-.91-.26-.91-.9,0-2.44,0-4.88,0-7.32,0-.63.28-.91.91-.91,1.93,0,3.86,0,5.79,0,.63,0,.9.28.9.91,0,1.23,0,2.45,0,3.68h0Zm-1.54-3h-4.49v5.99h4.49v-5.99Z"/>
</svg>