<?xml version="1.0" encoding="UTF-8"?>
<svg id="Layer_1" data-name="Layer 1" xmlns="http://www.w3.org/2000/svg" viewBox="0 0 43.19 44.18">
  <defs>
    <style>
      .cls-1 {
        fill: #fff;
        stroke-width: 0px;
      }
    </style>
  </defs>
  <path class="cls-1" d="m19.32,0C12.67,0,7.77,2.3,4.6,5.9,1.43,9.49,0,14.32,0,19.33c0,4.06,1.25,7.83,3.38,10.92,1.93,2.8,3.06,6.12,3.06,9.51v4.42h1.84v-4.42c0-3.79-1.26-7.46-3.38-10.55-1.92-2.8-3.06-6.2-3.06-9.88,0-4.66,1.33-9.03,4.14-12.22,2.81-3.19,7.11-5.27,13.34-5.27s10.31,1.82,12.99,4.61,4.01,6.62,4.5,10.78l.02.19,4.41,7.6c.23.41.11.82-.28,1.05l-4.16,2.08v5.54c0,3.44-2.83,6.12-6.26,5.8h-.01l-3.84-.25v4.94h1.84v-2.98l1.85.12c4.48.42,8.27-3.17,8.27-7.63v-4.4l3.19-1.6h.02c1.25-.71,1.69-2.32,1-3.56h0s-4.28-7.38-4.28-7.38c-.55-4.31-1.95-8.47-4.93-11.58-3.05-3.17-7.7-5.17-14.32-5.17h0Zm1.84,11.95c-.44,0-.81.31-.9.74l-2.76,12.88c-.11.5.21.99.71,1.09.5.11.99-.21,1.09-.71h0l2.76-12.88c.11-.5-.2-.99-.69-1.1-.07-.02-.14-.02-.21-.02h0Zm-7.79,2.76c-.3-.01-.59.13-.77.38l-3.18,4.23,3.18,4.23c.3.41.88.49,1.29.18s.49-.88.18-1.29h0l-2.35-3.13,2.35-3.13c.31-.4.24-.98-.16-1.29-.15-.12-.34-.19-.54-.19h0Zm12.79,0c-.51.03-.9.47-.87.97.01.18.08.36.19.51l2.35,3.13-2.35,3.13c-.3.41-.22.98.18,1.29s.98.22,1.29-.18h0l3.18-4.23-3.18-4.23c-.18-.25-.49-.39-.8-.38h0Z"/>
</svg>