<?xml version="1.0" encoding="UTF-8" standalone="no"?>
<!-- Created with Inkscape (http://www.inkscape.org/) -->

<svg
   width="225mm"
   height="50mm"
   viewBox="0 0 225 50"
   version="1.1"
   id="svg1"
   xml:space="preserve"
   inkscape:version="1.3 (0e150ed, 2023-07-21)"
   sodipodi:docname="ega-full.svg"
   xmlns:inkscape="http://www.inkscape.org/namespaces/inkscape"
   xmlns:sodipodi="http://sodipodi.sourceforge.net/DTD/sodipodi-0.dtd"
   xmlns="http://www.w3.org/2000/svg"
   xmlns:svg="http://www.w3.org/2000/svg"><sodipodi:namedview
     id="namedview1"
     pagecolor="#ffffff"
     bordercolor="#000000"
     borderopacity="0.25"
     inkscape:showpageshadow="2"
     inkscape:pageopacity="0.0"
     inkscape:pagecheckerboard="0"
     inkscape:deskcolor="#d1d1d1"
     inkscape:document-units="mm"
     inkscape:zoom="0.35388708"
     inkscape:cx="385.71626"
     inkscape:cy="183.67441"
     inkscape:window-width="1312"
     inkscape:window-height="431"
     inkscape:window-x="0"
     inkscape:window-y="38"
     inkscape:window-maximized="0"
     inkscape:current-layer="layer1" /><defs
     id="defs1" /><g
     inkscape:label="Layer 1"
     inkscape:groupmode="layer"
     id="layer1"><g
       id="g101"
       transform="matrix(1.1812605,0,0,1.1812605,5.7437063,0)"
       style="fill:#f9f9f9"><path
         style="fill:#f9f9f9"
         d="m 51.633396,30.332399 c 0,-0.24254 0.0794,-0.44097 0.17639,-0.44097 0.105207,0 0.176387,-0.67616 0.176387,-1.6757 0,-1.5481 -0.0264,-1.67569 -0.346577,-1.67569 -0.19061,0 -0.431527,0.15875 -0.535367,0.35277 -0.13497,0.25221 -0.369327,0.35278 -0.821997,0.35278 -0.615114,0 -0.630054,-0.0157 -0.522957,-0.55121 0.0606,-0.30317 0.11024,-0.66036 0.11024,-0.79375 0,-0.19675 0.595537,-0.24254 3.154412,-0.24254 3.122132,0 3.155492,0.004 3.260762,0.39688 0.25235,0.94162 0.14897,1.19062 -0.494297,1.19062 -0.450557,0 -0.634117,-0.0903 -0.717437,-0.35278 -0.0715,-0.22541 -0.266877,-0.35277 -0.541047,-0.35277 -0.424407,0 -0.429087,0.0183 -0.429087,1.67569 0,0.99954 0.0712,1.6757 0.17639,1.6757 0.097,0 0.17639,0.19843 0.17639,0.44097 0,0.43362 -0.0235,0.44097 -1.411104,0.44097 -1.387581,0 -1.411101,-0.007 -1.411101,-0.44097 z m 6.173574,0 c 0,-0.24254 0.0794,-0.44097 0.17639,-0.44097 0.10521,0 0.17639,-0.67616 0.17639,-1.6757 0,-0.99954 -0.0712,-1.67569 -0.17639,-1.67569 -0.097,0 -0.17639,-0.19844 -0.17639,-0.44098 0,-0.42837 0.0353,-0.44097 1.234714,-0.44097 h 1.234714 v 1.06714 1.06713 l 1.014234,-0.0529 1.014234,-0.0529 0.0529,-1.01423 0.0529,-1.01424 h 1.137711 c 1.095974,0 1.137724,0.0162 1.137724,0.44097 0,0.24254 -0.0794,0.44098 -0.176387,0.44098 -0.22301,0 -0.23878,3.29909 -0.0162,3.38078 0.0881,0.0323 0.187337,0.21755 0.220477,0.41158 0.0546,0.31964 -0.0508,0.35766 -1.121734,0.40474 l -1.182001,0.052 -0.0527,-1.1103 -0.0527,-1.11029 -1.014234,-0.0529 -1.014224,-0.0529 v 1.15533 1.15533 h -1.234714 c -1.199444,0 -1.234724,-0.0126 -1.234724,-0.44097 z m 8.643012,0.004 c 0,-0.24482 0.0794,-0.44513 0.17638,-0.44513 0.105217,0 0.176387,-0.67616 0.176387,-1.6757 0,-0.99954 -0.0712,-1.67569 -0.176387,-1.67569 -0.097,0 -0.17638,-0.19844 -0.17638,-0.44098 v -0.44097 h 2.889822 c 2.847755,0 2.891375,0.006 2.996185,0.39688 0.0585,0.21828 0.10744,0.57547 0.10877,0.79375 0.002,0.35158 -0.0858,0.39687 -0.770767,0.39687 -0.624827,0 -0.790874,-0.0677 -0.865424,-0.35278 -0.077,-0.29453 -0.2406,-0.35277 -0.990704,-0.35277 h -0.898457 v 0.61736 0.61736 h 1.058324 c 0.940734,0 1.058334,0.0392 1.058334,0.35278 0,0.31358 -0.1176,0.35277 -1.058334,0.35277 h -1.058324 v 0.70556 0.70556 h 0.958244 c 0.803337,0 0.976357,-0.057 1.070214,-0.35278 0.0901,-0.28378 0.26688,-0.35278 0.903967,-0.35278 h 0.792004 l -0.0542,0.74965 -0.0542,0.74966 -3.042692,0.0483 -3.042692,0.0483 z m 11.641594,-0.004 c 0,-0.27439 0.0999,-0.44097 0.264587,-0.44097 0.21661,0 0.26458,-0.30379 0.26458,-1.6757 0,-1.37191 -0.048,-1.67569 -0.26458,-1.67569 -0.164627,0 -0.264587,-0.16659 -0.264587,-0.44098 v -0.44097 h 2.976542 2.976555 l 0.110237,0.55122 c 0.19762,0.9881 0.16639,1.03628 -0.671614,1.03628 -0.626947,0 -0.804047,-0.0699 -0.893827,-0.35278 -0.0939,-0.29574 -0.266877,-0.35277 -1.070214,-0.35277 h -0.958244 v 0.61736 0.61736 h 1.146514 c 1.028934,0 1.146524,0.0362 1.146524,0.35278 0,0.31659 -0.11759,0.35277 -1.146524,0.35277 h -1.146514 v 0.64202 c 0,0.39498 0.11283,0.72451 0.29324,0.85643 0.173697,0.12702 0.247857,0.33268 0.181917,0.50452 -0.0905,0.23587 -0.376067,0.29009 -1.527951,0.29009 -1.393491,0 -1.416641,-0.007 -1.416641,-0.44097 z m 7.584678,0.004 c 0,-0.24482 0.0794,-0.44513 0.176387,-0.44513 0.10522,0 0.17639,-0.67616 0.17639,-1.6757 0,-0.99954 -0.0712,-1.67569 -0.17639,-1.67569 -0.097,0 -0.176387,-0.19844 -0.176387,-0.44098 v -0.44097 h 2.891532 c 3.159432,0 3.105662,-0.0186 3.105662,1.07276 0,0.49044 -0.0365,0.51474 -0.773174,0.51474 -0.624827,0 -0.790877,-0.0677 -0.865427,-0.35278 -0.077,-0.29453 -0.240597,-0.35277 -0.990704,-0.35277 h -0.898454 v 0.61736 0.61736 h 1.058324 c 0.940734,0 1.058334,0.0392 1.058334,0.35278 0,0.31358 -0.1176,0.35277 -1.058334,0.35277 h -1.058324 v 0.70556 0.70556 h 0.986644 c 0.838304,0 1.000514,-0.053 1.078904,-0.35278 0.0748,-0.28597 0.24059,-0.35278 0.875564,-0.35278 h 0.783317 l -0.0542,0.74965 -0.0542,0.74966 -3.042692,0.0483 -3.042692,0.0483 z m 8.728869,0.21632 c -0.0437,-0.12126 -0.278197,-1.05013 -0.521117,-2.06415 -0.242917,-1.01402 -0.554827,-1.907 -0.693147,-1.9844 -0.138307,-0.0774 -0.231377,-0.27963 -0.206817,-0.44939 0.036,-0.24888 0.255037,-0.31882 1.130914,-0.36117 0.597434,-0.0289 1.086254,-0.0142 1.086254,0.0326 0,0.0468 0.110127,0.62605 0.244737,1.28723 0.13461,0.66119 0.2989,1.51016 0.365077,1.88659 0.0662,0.37644 0.18163,0.61457 0.25655,0.52917 0.0749,-0.0854 0.367027,-0.97193 0.649147,-1.97009 l 0.512947,-1.81481 1.133234,0.0509 1.133231,0.0509 0.528237,1.89569 c 0.29054,1.04263 0.57433,1.85053 0.63065,1.79533 0.0563,-0.0552 0.26345,-0.90825 0.46029,-1.89569 l 0.35788,-1.79533 1.09733,-0.0525 c 1.07211,-0.0513 1.09732,-0.0422 1.09732,0.39688 0,0.25093 -0.10117,0.44939 -0.2291,0.44939 -0.14702,0 -0.37217,0.64783 -0.62836,1.80798 -0.21959,0.99439 -0.44036,1.95012 -0.49061,2.12383 -0.0793,0.27416 -0.26963,0.30908 -1.442,0.26459 l -1.350637,-0.0513 -0.531377,-1.80721 c -0.529857,-1.80203 -0.692224,-2.08473 -0.861624,-1.50009 -0.0492,0.16978 -0.297457,1.00322 -0.551717,1.85209 l -0.462297,1.5434 h -1.317764 c -0.894254,0 -1.343311,-0.0709 -1.397231,-0.22049 z m 9.968277,-0.30868 c 0,-0.47037 0.0588,-0.52916 0.52916,-0.52916 0.47037,0 0.52917,0.0588 0.52917,0.52916 0,0.47037 -0.0588,0.52917 -0.52917,0.52917 -0.47037,0 -0.52916,-0.0588 -0.52916,-0.52917 z m 7.9375,0.0882 c 0,-0.24254 0.0794,-0.44097 0.17639,-0.44097 0.10521,0 0.17639,-0.67616 0.17639,-1.6757 0,-1.65744 -0.005,-1.67569 -0.42909,-1.67569 -0.27417,0 -0.46951,0.12736 -0.54105,0.35277 -0.0833,0.26252 -0.26688,0.35278 -0.71744,0.35278 -0.64327,0 -0.74665,-0.249 -0.4943,-1.19062 0.10527,-0.39282 0.13863,-0.39688 3.26078,-0.39688 3.15296,0 3.15443,1.9e-4 3.15684,0.39688 10e-4,0.21828 0.0503,0.57547 0.10877,0.79375 0.0963,0.35937 0.0445,0.39687 -0.54809,0.39687 -0.51182,0 -0.67509,-0.0789 -0.74918,-0.36227 -0.0704,-0.26924 -0.21338,-0.34851 -0.55675,-0.30868 -0.45718,0.053 -0.46229,0.0699 -0.48817,1.60942 -0.02,1.1881 0.0322,1.57819 0.22049,1.65047 0.13565,0.052 0.24663,0.28458 0.24663,0.51674 0,0.41003 -0.0403,0.4221 -1.41111,0.4221 -1.38759,0 -1.41111,-0.007 -1.41111,-0.44097 z m 6.17361,0 c 0,-0.24254 0.0794,-0.44097 0.17639,-0.44097 0.10522,0 0.17639,-0.67616 0.17639,-1.6757 0,-0.99954 -0.0712,-1.67569 -0.17639,-1.67569 -0.097,0 -0.17639,-0.19844 -0.17639,-0.44098 0,-0.42479 0.0418,-0.44097 1.13773,-0.44097 h 1.13772 l 0.0529,1.01424 0.0529,1.01423 1.01424,0.0529 1.01423,0.0529 v -1.06713 -1.06714 h 1.23473 c 1.19944,0 1.23472,0.0126 1.23472,0.44097 0,0.24254 -0.0794,0.44098 -0.17639,0.44098 -0.10521,0 -0.17639,0.67615 -0.17639,1.67569 0,0.99954 0.0712,1.6757 0.17639,1.6757 0.097,0 0.17639,0.19843 0.17639,0.44097 0,0.42837 -0.0353,0.44097 -1.23472,0.44097 h -1.23473 v -1.15533 -1.15533 l -1.01423,0.0529 -1.01424,0.0529 -0.0525,1.10243 -0.0525,1.10243 h -1.13811 c -1.09639,0 -1.13811,-0.0162 -1.13811,-0.44097 z m 8.46667,0.0827 c 0,-0.19708 0.11906,-0.40401 0.26458,-0.45985 0.2089,-0.0802 0.26459,-0.44624 0.26459,-1.73948 0,-1.29324 -0.0557,-1.65932 -0.26459,-1.73948 -0.14552,-0.0558 -0.26458,-0.26277 -0.26458,-0.45984 0,-0.34611 0.10215,-0.35832 2.99861,-0.35832 2.42668,0 2.99861,0.0463 2.99861,0.24254 0,0.13339 0.0496,0.49058 0.11024,0.79375 l 0.11025,0.55121 h -0.80391 c -0.649,0 -0.82549,-0.068 -0.91588,-0.35278 -0.0941,-0.2964 -0.26689,-0.35277 -1.0814,-0.35277 h -0.96943 l 0.0553,0.57326 c 0.0553,0.57324 0.0553,0.57327 1.1577,0.62578 0.95792,0.0456 1.10243,0.0976 1.10243,0.39687 0,0.30624 -0.12693,0.34436 -1.14653,0.34436 h -1.14653 v 0.70556 0.70556 h 1.04645 c 0.89153,0 1.06302,-0.0522 1.15841,-0.35278 0.0904,-0.2848 0.26689,-0.35278 0.91588,-0.35278 h 0.80392 l -0.11025,0.55122 c -0.0606,0.30316 -0.11024,0.66035 -0.11024,0.79375 0,0.19654 -0.58529,0.24253 -3.08681,0.24253 -2.98511,0 -3.0868,-0.0118 -3.0868,-0.35831 z m 11.64167,-0.0827 c 0,-0.24254 0.0794,-0.44097 0.17639,-0.44097 0.10521,0 0.17638,-0.67616 0.17638,-1.6757 0,-0.99954 -0.0712,-1.67569 -0.17638,-1.67569 -0.097,0 -0.17639,-0.19844 -0.17639,-0.44098 v -0.44097 l 2.51354,0.004 c 2.85617,0.004 3.9025,0.28881 4.11044,1.11729 0.18222,0.72603 0.0225,1.05439 -0.71645,1.47289 -0.56176,0.31816 -0.98035,0.39934 -2.07108,0.40165 l -1.36701,0.003 v 0.61736 c 0,0.33955 0.0794,0.61737 0.17639,0.61737 0.097,0 0.17639,0.19843 0.17639,0.44097 0,0.43362 -0.0235,0.44097 -1.41111,0.44097 -1.3876,0 -1.41111,-0.007 -1.41111,-0.44097 z m 4.46875,-2.7282 c 0.081,-0.0778 0.12066,-0.32928 0.0882,-0.55875 -0.0532,-0.37602 -0.15918,-0.42244 -1.07326,-0.47012 l -1.01424,-0.0529 v 0.59677 c 0,0.32822 0.059,0.65579 0.13118,0.72794 0.15573,0.15573 1.65643,-0.0394 1.86813,-0.24294 z m 3.64514,2.7282 c 0,-0.24254 0.0794,-0.44097 0.17638,-0.44097 0.10522,0 0.17639,-0.67616 0.17639,-1.6757 0,-0.99954 -0.0712,-1.67569 -0.17639,-1.67569 -0.097,0 -0.17638,-0.19844 -0.17638,-0.44098 v -0.44097 h 2.50194 c 2.17706,0 2.60081,0.0479 3.2632,0.36851 0.70467,0.34113 0.76124,0.41975 0.76124,1.05783 0,0.61017 -0.0658,0.71726 -0.57326,0.93271 l -0.57326,0.24339 0.52557,0.20912 c 0.61098,0.2431 0.7909,0.47516 0.79464,1.0249 0.001,0.21828 0.0821,0.39688 0.17909,0.39688 0.097,0 0.17639,0.19843 0.17639,0.44097 0,0.42837 -0.0353,0.44097 -1.23472,0.44097 h -1.23472 v -0.86035 c 0,-1.07197 -0.24486,-1.29315 -1.35331,-1.22244 l -0.85155,0.0543 -0.0529,1.01423 -0.0529,1.01424 h -1.13773 c -1.09598,0 -1.13772,-0.0162 -1.13772,-0.44097 z m 4.25789,-2.72298 c 0.3386,-0.27787 0.38004,-0.40147 0.22176,-0.66146 -0.14341,-0.23557 -0.4568,-0.33365 -1.19062,-0.37263 l -0.99598,-0.0529 v 0.59677 c 0,0.32822 0.0529,0.64968 0.11759,0.71435 0.25187,0.25187 1.44338,0.1073 1.84725,-0.22413 z m 5.27073,2.97477 c -0.96707,-0.40282 -1.06196,-0.62208 -1.06196,-2.45384 v -1.7064 l 0.85468,-0.40031 c 0.74652,-0.34965 1.07577,-0.39253 2.60174,-0.33883 1.49101,0.0525 1.83198,0.12205 2.32651,0.47477 l 0.57945,0.41329 -0.0503,1.6849 c -0.0482,1.6169 -0.0704,1.69989 -0.54765,2.05615 -0.42265,0.31548 -0.78042,0.37735 -2.38125,0.41185 -1.03614,0.0223 -2.08069,-0.0414 -2.32123,-0.14158 z m 3.08318,-2.36846 v -1.5875 h -0.97014 -0.97014 l -0.052,1.39552 c -0.0697,1.87065 -0.0543,1.89721 1.0643,1.83286 l 0.92801,-0.0534 z m 4.89479,2.18629 -0.74965,-0.37107 v -1.74546 c 0,-1.43392 -0.0472,-1.74545 -0.26458,-1.74545 -0.16463,0 -0.26459,-0.16659 -0.26459,-0.44098 0,-0.42818 0.0356,-0.44097 1.22913,-0.44097 h 1.22912 l 0.0497,2.07257 0.0497,2.07257 h 0.88195 0.88194 l 0.0497,-2.07257 0.0497,-2.07257 h 1.22913 c 1.19347,0 1.22912,0.0128 1.22912,0.44097 0,0.24254 -0.0794,0.44098 -0.17639,0.44098 -0.10221,0 -0.1774,0.57487 -0.1788,1.36701 -10e-4,0.75186 -0.0495,1.54263 -0.10703,1.75728 -0.28357,1.05767 -3.54555,1.526 -5.13813,0.73769 z m 7.18785,-0.0577 c 0,-0.28494 0.0981,-0.45284 0.26458,-0.45284 0.21662,0 0.26459,-0.30379 0.26459,-1.6757 0,-1.37191 -0.048,-1.67569 -0.26459,-1.67569 -0.16463,0 -0.26458,-0.16659 -0.26458,-0.44098 v -0.44097 h 2.56904 c 2.23319,0 2.68361,0.0493 3.44548,0.37704 l 0.87645,0.37704 -0.05,1.76521 c -0.0483,1.70534 -0.0669,1.77781 -0.54734,2.13651 -0.44983,0.33582 -0.77416,0.37663 -3.39548,0.42725 l -2.89815,0.056 z m 4.8507,-2.12854 v -1.5875 l -1.19063,-0.0522 -1.19062,-0.0522 v 1.69181 1.69181 l 1.19062,-0.0521 1.19063,-0.0522 z m 3.55717,2.44005 c -0.0647,-0.0647 -0.11759,-0.3028 -0.11759,-0.52917 0,-0.33971 0.0924,-0.41157 0.52917,-0.41157 0.47037,0 0.52916,0.0588 0.52916,0.52916 0,0.43678 -0.0719,0.52917 -0.41157,0.52917 -0.22637,0 -0.46449,-0.0529 -0.52917,-0.11759 z M 49.693128,21.601149 c 0,-0.86235 0.0118,-0.88195 0.529167,-0.88195 h 0.529157 v -3.70416 -3.70417 h -0.529157 c -0.517407,0 -0.529167,-0.0196 -0.529167,-0.88194 v -0.88195 h 4.383803 4.383806 l 0.838814,3.43958 c 0.46135,1.89177 0.901537,3.43959 0.978197,3.43959 0.0767,0 0.515637,-1.54782 0.975494,-3.43959 l 0.836124,-3.43958 h 4.473346 4.473353 v 0.87023 c 0,0.81822 -0.029,0.87356 -0.485067,0.92604 l -0.485067,0.0558 v 3.61598 3.61597 l 0.485067,0.0558 c 0.456077,0.0525 0.485067,0.10783 0.485067,0.92604 v 0.87023 h -2.834972 -2.834975 l 0.041,-4.32264 c 0.0226,-2.37745 0.008,-4.35591 -0.0329,-4.39658 -0.0407,-0.0407 -0.859124,1.90453 -1.818801,4.32264 l -1.744868,4.39658 h -1.527731 -1.527744 l -1.725868,-4.32167 c -0.949227,-2.37692 -1.777721,-4.35374 -1.841091,-4.39294 -0.0634,-0.0392 -0.0873,1.90555 -0.0533,4.32167 l 0.0619,4.39294 H 52.44486 49.692998 Z m 23.635975,0.004 c 0,-0.86804 0.011,-0.88643 0.531087,-0.88643 0.624947,0 0.592967,0.059 2.966122,-5.46805 l 1.552601,-3.61597 4.045549,-0.0414 4.045536,-0.0414 1.399291,3.30458 c 2.523428,5.95939 2.472238,5.86223 3.088575,5.86223 0.529807,0 0.539197,0.0154 0.539197,0.88643 v 0.88642 l -2.769655,-0.0486 -2.769645,-0.0486 -0.433897,-1.14653 c -0.23864,-0.63059 -0.520257,-1.20484 -0.625817,-1.27612 -0.10556,-0.0713 -1.223794,-0.12959 -2.484965,-0.12959 -1.261174,0 -2.378048,0.0583 -2.481948,0.12959 -0.103887,0.0713 -0.393097,0.64553 -0.642674,1.27612 l -0.45379,1.14653 -2.752782,0.0486 -2.752785,0.0486 z m 11.060347,-3.57636 c -0.0494,-0.12126 -0.501077,-1.2722 -1.003714,-2.55764 -0.502637,-1.28543 -0.941184,-2.33715 -0.974544,-2.33715 -0.0565,0 -0.606697,1.37488 -1.605941,4.01285 l -0.417597,1.10243 h 2.045818 c 1.566971,0 2.024788,-0.0516 1.955978,-0.22049 z m 9.400646,3.57188 c 0,-0.86366 0.011,-0.88195 0.532747,-0.88195 h 0.532737 l -0.0477,-3.66007 -0.0477,-3.66007 -0.485067,-0.0558 c -0.456727,-0.0525 -0.485057,-0.1071 -0.485057,-0.93398 v -0.87816 l 6.658644,0.052 6.65868,0.052 1.19074,0.50387 c 1.96919,0.83328 2.07245,0.96125 2.07245,2.56839 0,1.61069 -0.10772,1.75809 -1.6316,2.2326 -0.55783,0.17369 -1.01423,0.37044 -1.01423,0.4372 0,0.0668 0.47168,0.17476 1.04819,0.23999 1.51109,0.17096 1.82503,0.48733 1.91701,1.93188 0.0718,1.1275 0.0914,1.17009 0.53903,1.16998 0.448,-10e-5 0.46235,0.0313 0.4034,0.88195 l -0.0611,0.88205 h -2.8934 -2.89339 v -1.59909 c 0,-0.87951 -0.0777,-1.74428 -0.17267,-1.92173 -0.28599,-0.53438 -1.17544,-0.71251 -3.55782,-0.71251 h -2.266727 v 2.11667 2.11666 h -2.998592 -2.998595 z m 10.968254,-5.28584 c 0.91383,-0.44031 1.07653,-1.73317 0.30819,-2.44898 -0.46088,-0.42937 -1.2243,-0.55111 -3.47127,-0.55352 l -1.807977,-0.002 v 1.69655 1.69655 l 2.248947,-0.0803 c 1.3103,-0.0468 2.44644,-0.1755 2.72211,-0.30832 z m 9.14005,5.28584 c 0,-0.86235 0.0118,-0.88195 0.52917,-0.88195 h 0.52916 v -3.70368 -3.70417 h -0.52916 c -0.51741,0 -0.52917,-0.0196 -0.52917,-0.88194 v -0.88195 h 3.52778 3.52778 v 0.88195 c 0,0.86234 -0.0118,0.88194 -0.52917,0.88194 h -0.52917 v 3.70417 3.70416 h 0.52917 c 0.51741,0 0.52917,0.0196 0.52917,0.88195 v 0.88194 h -3.52778 -3.52778 z m 9.34861,0 c 0,-0.81264 0.0332,-0.88195 0.4221,-0.88195 0.23216,0 0.46347,-0.1078 0.51403,-0.23957 0.13546,-0.35299 0.15515,-6.52489 0.0219,-6.87206 -0.0628,-0.16363 -0.30317,-0.2967 -0.53596,-0.2967 -0.38893,0 -0.4221,-0.0693 -0.4221,-0.88194 v -0.88195 h 4.23063 4.23063 l 1.22386,1.89618 c 0.67313,1.0429 1.84513,2.84868 2.60444,4.01285 l 1.38058,2.11667 0.0474,-4.01285 0.0474,-4.01285 h 2.46613 2.46614 v 0.88195 c 0,0.82314 -0.0294,0.88194 -0.44098,0.88194 h -0.44097 v 4.58611 4.58611 l -3.39549,-0.007 -3.39548,-0.007 -2.8907,-4.4075 c -1.58989,-2.42412 -2.95732,-4.44866 -3.03874,-4.49898 -0.0814,-0.0503 -0.0974,1.93615 -0.0356,4.41438 l 0.11247,4.50587 h -2.58588 -2.58588 z m 21.16667,0 c 0,-0.82315 0.0294,-0.88195 0.44097,-0.88195 h 0.44097 v -3.70368 -3.70417 h -0.44097 c -0.41157,0 -0.44097,-0.0588 -0.44097,-0.88194 v -0.88195 h 7.49317 7.49316 l 0.0824,0.39688 c 0.10659,0.51323 0.45346,2.68311 0.45346,2.83667 0,0.0648 -0.86697,0.11784 -1.9266,0.11784 h -1.92659 l -0.2042,-0.61872 c -0.11231,-0.34029 -0.35137,-0.69748 -0.53125,-0.79375 -0.17988,-0.0963 -1.40717,-0.17503 -2.72732,-0.17503 h -2.40027 l 0.0515,1.36701 0.0515,1.36702 3.1309,0.0482 3.1309,0.0482 v 0.78968 0.78968 h -3.175 -3.175 v 1.50379 1.50378 l 2.77813,-0.0486 2.77812,-0.0486 0.40028,-0.83785 0.40028,-0.83785 h 1.9003 1.90031 l -0.21454,1.7198 c -0.11799,0.94588 -0.2206,1.73963 -0.22801,1.76388 -0.007,0.0243 -3.50598,0.0441 -7.77459,0.0441 h -7.76111 z m 18.27566,-0.12399 c -0.0656,-0.5624 -0.1665,-1.3202 -0.22419,-1.684 l -0.10489,-0.66146 h 2.0378 2.0378 l 0.41329,0.74966 0.41329,0.74965 2.68971,0.0487 c 1.61977,0.0293 2.82584,-0.0241 3.03192,-0.13444 0.414,-0.22156 0.63765,-1.24268 0.37831,-1.72725 -0.22247,-0.4157 -0.20709,-0.41261 -5.43307,-1.09354 -4.07519,-0.53099 -4.95632,-0.71999 -5.20899,-1.11736 -0.0733,-0.1152 -0.1344,-0.89858 -0.13588,-1.74085 -0.003,-1.50222 0.007,-1.53858 0.52759,-1.90899 0.29167,-0.20769 1.02589,-0.59004 1.6316,-0.84968 l 1.1013,-0.47207 5.77674,-0.0552 c 4.67597,-0.0447 5.77741,-0.0111 5.78026,0.1762 0.002,0.12728 0.11001,0.88626 0.24015,1.68662 l 0.23662,1.45521 h -1.88909 -1.88908 l -0.27263,-0.69405 c -0.34006,-0.8657 -0.6818,-0.94656 -3.65432,-0.86465 -2.0334,0.056 -2.17534,0.0837 -2.50143,0.4868 -0.47885,0.59201 -0.37867,1.44587 0.20125,1.71526 0.24254,0.11267 2.42245,0.45658 4.84426,0.76425 2.42181,0.30767 4.66416,0.6684 4.98299,0.80162 l 0.5797,0.24221 v 1.65736 c 0,1.93186 0.006,1.92349 -1.85483,2.80438 l -1.23198,0.58335 -6.19245,0.0524 -6.19244,0.0524 z"
         id="path1"
         sodipodi:nodetypes="ssssssssscsssssssssssssscccccccsssssscccccccsssssssscsssssscccssscccssscccccsssssscccsssscccssscsssssssssscssssscccssscccssscccccscssssssssscccssscsssssccssscsccssssssssssssscssssscssssssssscccccccssssssscccccccssssssssssscssscsssscccsssccsssssssssccssccssssssssscssssssssscscsscscssscsscccsssssscscssscsssccssssccccssccccsssscccccccsssccscssssscsscssscscccccccccsssssssscccsscccssscccsscccsscccscscccssscccsssscccssscccssssscccssssscssssccccscccsssssssscccssscccccsssccccssssscccsscccsscccsscccscssssscccsscccccsscccccssccccccscccsscccssscssscccccccccccccccccscsccsscccccscsssccscscscccsssssscsccccs" /><path
         d="m 14.165914,41.600267 0.0334,-0.72692 -1.499304,-0.31316 c -1.804994,-0.37701 -3.599393,-1.01397 -5.732639,-2.03494 -1.981391,-0.94829 -2.165773,-1.11374 -3.062967,-2.74847 -0.758565,-1.38165 -0.895745,-1.91578 -0.492159,-1.91578 0.130485,0 0.380912,-0.15875 0.556505,-0.35278 0.175592,-0.19403 0.395282,-0.35278 0.488199,-0.35278 0.193427,0 1.156114,-0.74156 1.88913,-1.45521 0.577732,-0.56246 1.415032,-0.66536 1.415032,-0.1739 0,0.17115 0.169532,0.74662 0.376738,1.27882 0.207206,0.53221 0.363527,1.27226 0.34738,1.64455 -0.02539,0.58538 0.06903,0.76684 0.698308,1.34206 0.400215,0.36583 1.560633,1.17247 2.578705,1.79254 2.203617,1.34214 2.348872,1.46718 2.348872,2.02194 0,0.41441 0.0417,0.4283 1.27882,0.42597 2.39746,-0.005 2.78351,-0.37813 0.70947,-0.68661 -0.74971,-0.11151 -1.41356,-0.26006 -1.47523,-0.33012 -0.1519,-0.17256 -0.529,-1.31678 -0.45753,-1.38825 0.0314,-0.0314 0.7263,0.21556 1.54419,0.54883 1.59408,0.64955 3.33786,1.153 3.99359,1.153 0.59316,0 0.50367,0.21119 -0.47895,1.13031 -1.2254,1.14623 -2.80534,1.86799 -4.08942,1.86816 l -1.00354,1.4e-4 z m -5.248547,0.15366 c -0.03707,-0.12127 -0.112355,-0.48039 -0.167305,-0.79806 -0.09124,-0.52748 -0.07047,-0.56182 0.239496,-0.39592 0.400396,0.21428 0.449949,0.29071 0.60261,0.9294 0.0978,0.40915 0.05934,0.48507 -0.245732,0.48507 -0.198921,0 -0.392002,-0.0992 -0.429069,-0.22049 z m 1.303589,-0.26458 c -0.09749,-0.26679 -0.212098,-0.58429 -0.254681,-0.70556 -0.0879,-0.2503 0.237338,-0.28809 0.584541,-0.0679 0.127636,0.0809 0.338317,0.35196 0.46818,0.60227 0.20191,0.38918 0.198142,0.46969 -0.02601,0.5557 -0.460189,0.17659 -0.590766,0.11156 -0.772034,-0.38448 z m -2.554568,0.14069 c -0.299819,-0.12152 -0.34756,-0.26881 -0.288354,-0.88964 0.06842,-0.71743 0.08204,-0.7323 0.38142,-0.41645 0.316644,0.33407 0.626232,1.48319 0.394122,1.4629 -0.07034,-0.006 -0.28957,-0.0767 -0.487188,-0.15681 z m 3.829443,-0.55419 c -0.22088,-0.35369 -0.205802,-0.36407 0.354446,-0.24398 0.698567,0.14973 0.742972,0.18161 0.592393,0.42525 -0.191821,0.31038 -0.700635,0.21296 -0.946839,-0.18127 z m -5.223686,-0.0422 c -0.284857,-0.20829 -0.296939,-0.31015 -0.105574,-0.88999 0.175185,-0.53081 0.262706,-0.61609 0.462296,-0.45045 0.241868,0.20074 0.310548,1.57565 0.07871,1.57565 -0.06257,0 -0.258511,-0.10585 -0.43543,-0.23521 z m -1.149776,-0.90277 c -0.16612,-0.20017 -0.162963,-0.39302 0.01446,-0.88368 0.191971,-0.53089 0.264143,-0.59046 0.46818,-0.38642 0.166833,0.16683 0.204054,0.43934 0.120696,0.88368 -0.130349,0.69482 -0.272064,0.78558 -0.60334,0.38642 z m -1.063561,-1.06464 c -0.21737,-0.26191 -0.200084,-0.33905 0.252236,-1.12559 l 0.240263,-0.41781 0.204692,0.38248 c 0.158086,0.29539 0.152244,0.50096 -0.02566,0.90287 -0.261179,0.59004 -0.363405,0.62933 -0.671534,0.25805 z M 3.17638,37.920047 c -0.163909,-0.30628 -0.124115,-0.4564 0.233696,-0.88164 0.237184,-0.28187 0.47976,-0.46398 0.539056,-0.40469 0.212917,0.21292 0.101507,0.79514 -0.233696,1.22129 -0.340818,0.43328 -0.341909,0.43341 -0.539056,0.065 z m 9.788704,-0.0686 c -0.309388,-0.22624 -0.312479,-0.26457 -0.04305,-0.534 0.269428,-0.26943 0.304706,-0.26328 0.49143,0.0856 0.264602,0.49442 -0.0099,0.76897 -0.448378,0.44838 z m -0.96503,-0.94823 c 0.0053,-0.45653 0.345614,-1.10243 0.580894,-1.10243 0.05865,0 0.195608,0.16624 0.304348,0.36942 0.163569,0.30564 0.128874,0.44269 -0.20093,0.79375 -0.517803,0.55118 -0.69121,0.53579 -0.684312,-0.0607 z m -9.503081,-0.065 c -0.213898,-0.34298 -0.183745,-0.43342 0.308681,-0.92585 l 0.545735,-0.54573 v 0.56987 c 0,0.31343 -0.06725,0.56987 -0.149435,0.56987 -0.08219,0 -0.221095,0.16019 -0.30868,0.35598 -0.158001,0.3532 -0.161101,0.35301 -0.396301,-0.0241 z m 14.789141,0.0533 c -1.25389,-0.32814 -2.86487,-1.10039 -2.84729,-1.36489 0.006,-0.0917 0.19283,-0.18822 0.41495,-0.21438 1.18374,-0.13943 1.552,-0.24811 1.44228,-0.42563 -0.077,-0.12456 -0.63072,-0.1588 -1.59528,-0.0986 l -1.477374,0.0922 -0.815966,-0.9551 c -0.448781,-0.5253 -0.784827,-0.98294 -0.746769,-1.01697 0.121859,-0.10898 2.370989,-0.45869 2.949969,-0.45869 0.30734,0 0.55881,-0.0915 0.55881,-0.20338 0,-0.14802 -0.54932,-0.17393 -2.01842,-0.0952 l -2.018421,0.10817 -0.369032,-0.98633 c -0.202968,-0.54248 -0.343069,-1.01229 -0.311336,-1.04402 0.09237,-0.0924 3.134253,-0.60147 3.593789,-0.60147 0.22982,0 0.41787,-0.0794 0.41787,-0.17639 0,-0.22906 -1.972475,-0.22805 -3.183609,0.002 -1.104278,0.20942 -1.253446,0.0883 -1.183946,-0.96119 0.04476,-0.67586 0.07028,-0.70118 0.927967,-0.9209 0.485069,-0.12426 1.457413,-0.27888 2.160764,-0.34359 0.70335,-0.0647 1.278824,-0.1861 1.278824,-0.26973 0,-0.21874 -2.058987,-0.18725 -3.237984,0.0495 -0.552069,0.11088 -1.047511,0.15784 -1.100984,0.10436 -0.05347,-0.0535 -0.04163,-0.46791 0.02631,-0.92099 0.14327,-0.95539 0.348287,-1.09286 1.916853,-1.28534 0.64841,-0.0796 1.075006,-0.22192 1.126216,-0.37583 0.06783,-0.20384 -0.15351,-0.2299 -1.249105,-0.14704 l -1.331539,0.10071 0.266987,-0.64671 c 0.373752,-0.90533 0.690816,-1.21164 1.389912,-1.34279 0.71697,-0.13451 0.797274,-0.40388 0.143936,-0.48283 l -0.461895,-0.0558 0.733732,-0.79375 0.733732,-0.79375 -0.110707,0.79375 c -0.06089,0.43656 -0.114781,1.1894 -0.119761,1.67298 -0.0089,0.86025 0.01525,0.90125 1.116819,1.89881 1.08621,0.98367 1.45902,1.0928 1.03657,0.30343 -0.11117,-0.20771 -0.15057,-0.42921 -0.0876,-0.49221 0.13409,-0.13409 0.73876,0.58504 0.97717,1.16216 0.17942,0.43432 0.66321,0.66651 1.97487,0.94781 0.53788,0.11535 0.91508,0.31019 1.03525,0.53473 0.13879,0.25932 0.30059,0.32526 0.60848,0.24799 0.589874,-0.14805 0.831344,0.34917 0.575074,1.18417 -0.241114,0.78562 0.0566,1.32255 1.09765,1.97975 0.75728,0.47805 0.79807,0.62807 0.53635,1.97287 -0.28847,1.48226 -0.32964,2.50236 -0.11297,2.79868 0.17871,0.2444 0.2963,0.14951 0.85212,-0.68762 0.65729,-0.98996 1.55176,-2.0589 2.52779,-3.02087 0.59328,-0.58473 1.66031,-2.09226 1.66031,-2.34573 0,-0.21023 -0.76875,-0.92501 -0.99486,-0.92501 -0.0981,0 -0.3708,-0.20534 -0.60599,-0.45631 -0.2352,-0.25097 -0.9115,-0.72722 -1.50291,-1.05833 -1.19388,-0.66842 -2.51808,-0.80802 -3.14767,-0.33183 -0.18831,0.14243 -0.468334,0.25897 -0.622254,0.25897 -0.33558,0 -0.88743,-0.60454 -0.88743,-0.97215 0,-0.2979 -0.27671,-0.35197 -0.44098,-0.0862 -0.17246,0.27905 -0.92137,0.20512 -1.03946,-0.10262 -0.0589,-0.15346 -0.10706,-0.50785 -0.10706,-0.78755 0,-0.61344 0.40848,-0.87372 1.3712,-0.87372 0.56359,0 0.72537,0.0802 0.88976,0.44097 0.22283,0.48908 0.737654,0.6004 0.737654,0.15951 0,-0.15481 -0.13131,-0.50375 -0.2918,-0.77544 -0.277844,-0.47035 -0.273634,-0.51705 0.0882,-0.97704 0.20899,-0.26569 0.37999,-0.58133 0.37999,-0.70141 0,-0.12008 0.35718,-0.54757 0.79375,-0.94998 0.43656,-0.40241 0.79375,-0.76837 0.79375,-0.81325 0,-0.0449 -0.40298,-0.28579 -0.89551,-0.53537 l -0.8955,-0.45379 0.059,0.40672 c 0.103,0.70983 -0.34858,0.8506 -1.116284,0.34797 -0.37373,-0.24469 -0.67951,-0.49742 -0.67951,-0.56163 0,-0.0642 0.19843,-0.20716 0.44097,-0.31767 0.24253,-0.1105 0.44097,-0.28889 0.44097,-0.39641 0,-0.21903 -1.88845,-0.11108 -3.08185,0.17618 -0.38533,0.0928 -0.74022,0.12903 -0.78864,0.0806 -0.30505,-0.30505 2.2996,-0.95206 3.81712,-0.9482 1.305344,0.003 3.005254,0.40352 4.071074,0.9584 l 0.833,0.43368 -0.91564,0.008 c -1.09604,0.01 -1.39369,0.30112 -0.45628,0.44653 2.50683,0.38886 2.57258,0.41425 3.48858,1.34734 l 0.88195,0.89838 -0.61736,-0.10238 c -0.33955,-0.0563 -1.15315,-0.15525 -1.80799,-0.21985 -1.03315,-0.10193 -1.19062,-0.0793 -1.19062,0.17148 0,0.21916 0.16918,0.28894 0.70054,0.28894 0.3853,0 1.28938,0.12939 2.00906,0.28752 1.30852,0.28753 1.30853,0.28754 1.71062,1.14602 0.22116,0.47217 0.3618,0.89879 0.31254,0.94804 -0.0493,0.0493 -0.51011,0.01 -1.02412,-0.0877 -1.10752,-0.21003 -3.00309,-0.23518 -3.00309,-0.0398 0,0.0756 0.69453,0.23375 1.5434,0.35153 0.84888,0.11777 1.8352,0.30559 2.19183,0.41736 0.60415,0.18936 0.65658,0.26248 0.76776,1.07088 0.0656,0.4772 0.0852,0.90179 0.0435,0.94353 -0.0417,0.0417 -0.66504,0.002 -1.38512,-0.0892 -0.78558,-0.0991 -1.37395,-0.10098 -1.47102,-0.005 -0.1978,0.19605 -0.0225,0.25666 1.54303,0.53341 0.68588,0.12125 1.24448,0.31626 1.29686,0.45274 0.0506,0.13186 0.0203,0.53838 -0.0675,0.90338 l -0.15944,0.66364 -0.84895,-0.0607 c -1.03666,-0.0741 -1.06425,0.31887 -0.0394,0.56124 0.72625,0.17175 0.73315,0.2905 0.0908,1.56376 l -0.32952,0.65322 -0.92666,-0.11227 c -1.33413,-0.16164 -1.52748,-0.15657 -1.54745,0.0405 -0.01,0.097 0.46164,0.28216 1.04772,0.41144 l 1.06559,0.23504 -0.55369,0.689 c -0.90142,1.1217 -1.17683,1.23482 -2.69418,1.10655 -0.91991,-0.0778 -1.33146,-0.0525 -1.33146,0.0817 0,0.10686 0.29766,0.24279 0.66146,0.30207 1.38705,0.22603 1.41086,0.32979 0.20079,0.87496 -2.23087,1.00509 -4.349274,1.21773 -6.506694,0.65313 z m -5.970477,-0.60537 c -0.264651,-0.26465 -0.256332,-0.51889 0.03538,-1.08115 0.224257,-0.43226 0.254763,-0.44137 0.510397,-0.15246 0.245513,0.27748 0.242081,0.36206 -0.03538,0.87202 -0.231812,0.42606 -0.35714,0.51485 -0.510397,0.36159 z M 0,36.221547 c 0,-0.0767 0.253372,-0.40081 0.563049,-0.72032 l 0.563049,-0.58092 0.233408,0.55512 c 0.128375,0.30531 0.212347,0.57372 0.186604,0.59647 C 1.398682,36.202147 0,36.337537 0,36.221547 Z m 1.821621,-0.70114 c -0.06806,-0.17735 0.096,-0.48394 0.446508,-0.83445 l 0.554093,-0.5541 v 0.53067 c 0,0.3134 -0.145264,0.65505 -0.354794,0.83446 -0.437257,0.37439 -0.510114,0.37703 -0.645807,0.0234 z m 8.603285,-0.21524 c -0.140699,-0.2629 -0.128998,-0.50127 0.04491,-0.91487 0.219371,-0.52173 0.254919,-0.53959 0.52875,-0.26576 0.161462,0.16146 0.248324,0.36677 0.193027,0.45624 -0.0553,0.0895 -0.207611,0.36906 -0.338475,0.6213 -0.230748,0.44477 -0.243683,0.44788 -0.42821,0.10309 z m -0.960539,-0.92968 c -0.254132,-0.36283 -0.245654,-0.42795 0.113477,-0.8716 0.21347,-0.26372 0.447659,-0.44543 0.52042,-0.40381 0.208113,0.11905 0.155175,0.67598 -0.113476,1.19381 l -0.245768,0.47372 z m -8.121233,0.0638 c -0.256452,-0.25645 -0.06795,-0.68873 0.42187,-0.96745 0.521597,-0.29681 0.528051,-0.29544 0.528051,0.112 0,0.4095 -0.734456,1.07091 -0.949921,0.85545 z m 1.446654,-1.37328 c -0.265488,-0.58268 -0.104829,-0.70694 0.543168,-0.42011 0.49479,0.21901 0.511656,0.25641 0.247375,0.54843 -0.382373,0.42252 -0.552118,0.39497 -0.790543,-0.12832 z m 5.959974,0.31324 c -0.23393,-0.23393 -0.08517,-0.80255 0.289287,-1.10577 0.732334,-0.59301 0.925631,0.0167 0.239879,0.75663 -0.232353,0.25072 -0.470478,0.40783 -0.529166,0.34914 z m -7.867818,-0.48417 c 0,-0.29503 0.165827,-0.50257 0.5578,-0.69811 0.30679,-0.15305 0.59185,-0.24422 0.633467,-0.2026 0.185405,0.1854 -0.178014,0.7457 -0.661646,1.02009 -0.524389,0.2975 -0.529621,0.29632 -0.529621,-0.11938 z m 9.440871,-0.19965 c -0.157928,-0.24103 -0.326458,-0.8514 -0.374509,-1.35637 l -0.08737,-0.91814 0.446248,1.03647 c 0.245436,0.57006 0.529063,1.13626 0.630283,1.25822 0.132042,0.15911 0.111775,0.24948 -0.07174,0.3199 -0.151698,0.0582 -0.372613,-0.0802 -0.542916,-0.34008 z m -6.592448,-0.42696 c -0.353693,-0.29469 -0.372979,-0.36162 -0.130963,-0.45449 0.340959,-0.13083 1.515874,0.0671 1.515874,0.25535 0,0.23094 -0.412221,0.55669 -0.696737,0.55059 -0.150371,-0.003 -0.46005,-0.16138 -0.688174,-0.35145 z m -1.20464,-0.93232 c 0.228875,-1.66983 1.881506,-5.88604 3.004357,-7.66475 0.37648,-0.59638 0.57401,-0.74701 0.979646,-0.74701 0.859419,0 0.933014,0.8561 0.342996,3.98991 -0.366904,1.94877 -0.403865,2.03806 -1.13823,2.74975 -0.417456,0.40457 -0.907701,0.81974 -1.089432,0.92261 -0.181731,0.10287 -0.443434,0.28738 -0.581562,0.41001 -0.138128,0.12263 -0.560331,0.42573 -0.93823,0.67354 l -0.68709,0.45056 z m 5.671696,0.39301 c -0.141057,-0.44444 -0.07086,-0.52132 0.726061,-0.79529 0.539844,-0.18559 0.612667,-0.17907 0.525873,0.0471 -0.05541,0.14439 -0.100746,0.33338 -0.100746,0.41997 0,0.0866 -0.232974,0.27791 -0.517721,0.42516 -0.487974,0.25234 -0.524372,0.24677 -0.633467,-0.097 z m -7.665556,-0.0105 c 0.0015,-0.13164 0.06102,-0.32034 0.132292,-0.41933 0.165126,-0.22933 1.118897,-0.6534 1.226823,-0.54548 0.165366,0.16537 -0.148375,0.77833 -0.441616,0.86279 -0.166561,0.048 -0.441745,0.14441 -0.611519,0.2143 -0.205131,0.0845 -0.307775,0.0468 -0.30598,-0.11228 z m 4.35189,-0.22292 c -0.435539,-0.19271 -0.462692,-0.24724 -0.222419,-0.44664 0.388481,-0.32241 1.580879,-0.0912 1.438822,0.279 -0.05662,0.14754 -0.102938,0.30145 -0.102938,0.34202 0,0.14097 -0.620274,0.0438 -1.113465,-0.17438 z m 1.328298,-0.8609 c -0.962355,-0.29913 -0.329515,-0.87533 0.731747,-0.66625 0.499885,0.0985 0.501882,0.10383 0.176389,0.4729 -0.284091,0.32212 -0.408575,0.34863 -0.908136,0.19335 z m -5.682889,-0.49955 c 0,-0.21114 0.169898,-0.36218 0.48507,-0.43124 0.266788,-0.0585 0.584288,-0.13686 0.705555,-0.17422 0.121268,-0.0374 0.220486,0.0389 0.220486,0.16953 0,0.32044 -0.340316,0.56794 -0.926041,0.67348 -0.385264,0.0694 -0.48507,0.0205 -0.48507,-0.23755 z m 7.792068,-0.0163 c 0.04745,-0.3345 0.170389,-0.40665 0.718696,-0.42175 0.454649,-0.0125 0.661459,0.0582 0.661459,0.22602 0,0.25292 -0.100121,0.30512 -0.939182,0.48968 -0.443223,0.0975 -0.491893,0.0651 -0.440973,-0.29395 z m -1.337352,-0.64489 c -0.415779,-0.0904 -0.465773,-0.14889 -0.264583,-0.30975 0.355863,-0.28451 1.39459,-0.40307 1.39459,-0.15918 0,0.21562 -0.363027,0.63507 -0.520347,0.60122 -0.05336,-0.0115 -0.327705,-0.071 -0.60966,-0.13229 z m -6.454716,-0.33008 c 0,-0.30545 0.436121,-0.57509 0.930156,-0.57509 0.38738,0 0.493036,0.0728 0.448325,0.30868 -0.04088,0.21573 -0.257241,0.32517 -0.718489,0.36343 -0.362996,0.0301 -0.659992,-0.0135 -0.659992,-0.097 z m 8.290278,-0.0106 c 0,-0.17238 0.377767,-0.56444 0.543872,-0.56444 0.0663,0 0.162053,0.15875 0.212792,0.35278 0.07338,0.2806 0.0054,0.35278 -0.332205,0.35278 -0.233452,0 -0.424459,-0.0635 -0.424459,-0.14112 z m 24.598196,-0.57749 c -0.0635,-0.10274 -0.0877,-0.20373 -0.0537,-0.2244 0.034,-0.0207 0.35641,-0.17143 0.71654,-0.33501 0.89792,-0.40784 1.03606,-0.0616 0.1548,0.388 -0.46291,0.23615 -0.74153,0.29457 -0.81764,0.17141 z m -26.362085,-0.2577 c 0,-0.25519 0.26119,-0.46537 0.937915,-0.75473 0.480567,-0.2055 0.495099,-0.19653 0.440973,0.27211 -0.04725,0.40908 -0.159058,0.50122 -0.717429,0.59122 -0.461192,0.0743 -0.661459,0.0415 -0.661459,-0.1086 z m -6.35,-0.37162 c 0,-0.32216 0.366108,-0.50416 1.014184,-0.50416 0.598147,0 0.652902,0.0467 0.438324,0.37409 -0.190342,0.29039 -1.452508,0.40341 -1.452508,0.13007 z m 31.464255,0.0335 c -0.0541,-0.14088 -0.0525,-0.33023 0.003,-0.42079 0.079,-0.12775 -1.15712,-3.0999 -1.39166,-3.34626 -0.0285,-0.0299 -0.3479,0.0693 -0.70978,0.22049 -0.36189,0.1512 -0.68215,0.27491 -0.71169,0.27491 -0.0543,0 -0.96153,-1.92983 -0.96153,-2.04537 0,-0.11546 1.14468,0.15006 1.3141,0.30481 0.0922,0.0842 0.28435,0.15306 0.42708,0.15306 0.14273,0 0.38482,0.11108 0.53798,0.24684 0.42892,0.38019 2.61131,1.51705 2.91223,1.51705 0.14718,0 0.39274,0.24198 0.54568,0.53774 0.26566,0.51373 0.25996,0.55283 -0.12776,0.87607 -0.35592,0.29673 -0.36644,0.33907 -0.0856,0.34421 0.17615,0.003 0.4839,-0.0817 0.68389,-0.18873 0.34235,-0.18322 0.65908,0.002 0.66882,0.39054 0.003,0.10167 -2.69151,1.39156 -2.9064,1.39156 -0.0553,0 -0.14481,-0.11526 -0.19887,-0.25613 z M 7.231944,27.034967 c 0,-0.26141 0.829191,-1.11178 1.08409,-1.11178 0.08285,0 0.150633,0.2187 0.150633,0.486 0,0.40104 -0.107934,0.51979 -0.617362,0.67924 -0.503378,0.15755 -0.617361,0.14768 -0.617361,-0.0535 z m -5.79125,-0.17984 c -0.385057,-0.0733 -0.392904,-0.0988 -0.12259,-0.39746 0.243693,-0.26928 0.383339,-0.2901 0.894097,-0.13335 0.476591,0.14627 0.563701,0.23589 0.409672,0.42149 -0.195814,0.23594 -0.411492,0.2559 -1.181179,0.10932 z m 0.80223,-1.00167 c -0.480748,-0.21287 -0.483955,-0.22392 -0.152073,-0.52427 0.322661,-0.29201 0.366475,-0.29013 0.907373,0.0388 0.544892,0.33137 0.553464,0.35359 0.207766,0.5386 -0.198317,0.10614 -0.385638,0.18653 -0.416269,0.17865 -0.03063,-0.008 -0.27669,-0.11218 -0.546797,-0.23179 z m 5.245398,-0.15334 c 0.03681,-0.11985 0.118706,-0.45189 0.181981,-0.73787 0.08883,-0.40146 0.151871,-0.46176 0.276615,-0.26459 0.258295,0.40828 0.193473,0.77134 -0.179281,1.00413 -0.274042,0.17114 -0.332292,0.17079 -0.279315,-0.002 z m -4.298021,-0.81757 -0.425672,-0.32724 0.396248,-0.21207 c 0.328304,-0.1757 0.454221,-0.1596 0.734352,0.0939 0.750978,0.67963 0.119095,1.07886 -0.704928,0.44539 z m 31.448809,-0.15269 c -0.10874,-0.0713 -0.23083,-0.41979 -0.27133,-0.77447 l -0.0736,-0.64488 0.44772,0.35076 c 0.6699,0.52483 0.84337,1.2078 0.30501,1.20088 -0.11554,-0.001 -0.29904,-0.061 -0.40778,-0.13229 z m 1.24878,-0.0531 c -0.17818,-0.2883 0.005,-0.37038 0.53237,-0.23811 0.35136,0.0882 0.41549,0.16007 0.2413,0.27047 -0.32482,0.20586 -0.63444,0.19291 -0.77367,-0.0324 z M 8.229271,24.291897 c -0.13504,-0.21828 -0.394839,-0.71438 -0.57733,-1.10243 -0.3305,-0.70279 -0.335416,-0.70537 -1.252184,-0.65673 -0.528085,0.028 -1.189269,-0.0635 -1.551225,-0.21475 -0.62813,-0.26245 -0.629559,-0.26555 -0.332203,-0.71937 0.479471,-0.73176 2.159961,-1.82638 3.384646,-2.20465 0.663957,-0.20507 1.633957,-0.34964 2.34597,-0.34964 h 1.213951 l -0.590787,0.92604 c -0.573308,0.89864 -1.415553,2.70717 -1.889349,4.05695 -0.268385,0.76458 -0.411079,0.81482 -0.751489,0.26458 z m 0.01802,-2.55764 c 0.04258,-0.1297 -0.08121,-0.22049 -0.300633,-0.22049 -0.462469,0 -0.662458,-0.46628 -0.388284,-0.90531 0.236016,-0.37792 0.02822,-0.43722 -0.51442,-0.14681 -0.390763,0.20913 -0.463682,1.03546 -0.121563,1.37758 0.27131,0.27131 1.226212,0.19565 1.3249,-0.10497 z m -3.994225,2.48422 c -0.208869,-0.23248 -0.208869,-0.29531 0,-0.42758 0.308631,-0.19545 0.685818,-0.20523 0.685818,-0.0178 0,0.0785 -0.09922,0.27209 -0.220486,0.43028 -0.198539,0.25897 -0.244859,0.26047 -0.465332,0.0151 z m 29.051474,0.0734 c -0.19723,-0.15713 -0.25177,-0.41314 -0.18976,-0.89088 0.0836,-0.6441 0.10005,-0.65859 0.41945,-0.36953 0.19944,0.18049 0.33243,0.5369 0.33243,0.89087 0,0.6341 -0.12603,0.71695 -0.56212,0.36954 z m 2.77718,-0.39549 c -0.38244,-0.13624 -0.89838,-0.40607 -1.14652,-0.59963 -0.48881,-0.38128 -3.95178,-2.13578 -4.21553,-2.13578 -0.0887,0 -0.25207,-0.1095 -0.36314,-0.24333 -0.11107,-0.13383 -0.43537,-0.29001 -0.72066,-0.34707 -0.37869,-0.0757 -0.61619,-0.29481 -0.87981,-0.81155 l -0.36109,-0.7078 1.06716,-0.53871 c 0.58694,-0.29628 1.13151,-0.49893 1.21015,-0.45033 0.0786,0.0486 0.40371,0.68634 0.72237,1.41719 0.31865,0.73085 0.67005,1.32882 0.78089,1.32882 0.52985,0 0.93772,-0.54006 1.03626,-1.37211 0.0559,-0.47226 0.23984,-1.14834 0.40868,-1.5024 l 0.30698,-0.64375 0.33463,0.74489 c 0.20604,0.45866 0.29624,0.9387 0.23474,1.24926 -0.0746,0.37675 0.0115,0.63678 0.34052,1.02777 0.24294,0.28871 0.44042,0.74759 0.44042,1.02336 0,0.34004 0.17092,0.64377 0.53436,0.94959 1.59325,1.34063 3.76682,0.189 3.76682,-1.99578 0,-0.78337 -0.6466,-2.30305 -0.9799,-2.30305 -0.20699,0 -0.6985,-1.25776 -0.63853,-1.63397 0.0461,-0.28942 0.13384,-0.26921 0.87332,0.20123 2.2765,1.44828 2.75116,4.60563 0.97035,6.45458 -1.05553,1.09591 -2.30391,1.39391 -3.72247,0.88857 z m -3.94159,-0.13368 c -0.18502,-0.22386 -0.22491,-1.54565 -0.0465,-1.5407 0.36991,0.0103 0.54571,0.37042 0.50065,1.02567 -0.0529,0.76993 -0.1513,0.88147 -0.45416,0.51503 z m -1.21757,-0.70555 c -0.21424,-0.33103 -0.17167,-1.36691 0.0562,-1.36697 0.35768,-9e-5 0.55523,0.42987 0.46599,1.01419 -0.0915,0.59909 -0.28024,0.7266 -0.52218,0.35278 z m -1.24547,-0.70556 c -0.0967,-0.12127 -0.21189,-0.47949 -0.25597,-0.79605 -0.0718,-0.51577 -0.0421,-0.5641 0.28652,-0.46524 0.53961,0.16235 0.60264,0.27595 0.50411,0.90851 -0.0949,0.60935 -0.24899,0.71101 -0.53466,0.35278 z m 7.0118,-0.13229 c 0,-0.097 0.0729,-0.17639 0.16196,-0.17639 0.0891,0 0.28752,-0.0482 0.44097,-0.10707 0.18309,-0.0703 0.27901,-0.01 0.27901,0.17639 0,0.18476 -0.15354,0.28346 -0.44097,0.28346 -0.24254,0 -0.44097,-0.0794 -0.44097,-0.17639 z m -8.24832,-0.22049 c -0.26682,-0.33122 -0.45382,-1.36701 -0.24679,-1.36701 0.53216,0 0.73399,0.24771 0.73399,0.90082 0,0.69986 -0.16882,0.86141 -0.4872,0.46619 z m 9.65943,0.0842 c 0,-0.28167 0.70236,-0.98403 0.84319,-0.84319 0.0595,0.0595 -0.10583,0.32231 -0.36748,0.58395 -0.26164,0.26164 -0.47571,0.3783 -0.47571,0.25924 z m -1.94028,-0.64579 c 0,-0.22195 0.21819,-0.54761 0.51289,-0.76548 0.44015,-0.32542 0.5277,-0.34059 0.61736,-0.10694 0.19831,0.51678 0.10228,0.70006 -0.51289,0.97889 -0.6028,0.27323 -0.61736,0.27072 -0.61736,-0.10647 z m -8.98332,-0.34936 c -0.13155,-0.1585 -0.18685,-0.34051 -0.1229,-0.40446 0.16473,-0.16473 0.5171,0.22757 0.43246,0.48148 -0.0487,0.14595 -0.14425,0.12216 -0.30956,-0.077 z m 10.57082,-0.19245 c 0,-0.52715 0.88793,-1.41827 1.09245,-1.09637 0.26379,0.41516 0.1221,0.74791 -0.48256,1.13333 l -0.60989,0.38875 z m -2.11667,-0.67383 c 0,-0.22562 0.19165,-0.59027 0.4259,-0.81033 l 0.42589,-0.4001 0.21528,0.40225 c 0.19152,0.35787 0.15913,0.44718 -0.2936,0.80946 -0.63995,0.51207 -0.77347,0.51185 -0.77347,-0.001 z m 1.69551,-0.24611 c -0.22374,-0.22375 -0.0937,-0.71653 0.31437,-1.19145 l 0.42238,-0.49156 0.21466,0.4011 c 0.19027,0.35552 0.15455,0.45726 -0.31437,0.8955 -0.29096,0.27193 -0.57763,0.44582 -0.63704,0.38641 z m -2.22467,-0.98755 c 0,-0.40897 0.75988,-1.24159 0.95503,-1.04644 0.22982,0.22982 0.0785,0.70804 -0.33901,1.07102 -0.55529,0.48281 -0.61602,0.48039 -0.61602,-0.0246 z m 1.68658,-0.2561 c -0.21814,-0.21814 -0.0772,-0.70489 0.30916,-1.06787 0.51213,-0.48113 0.65009,-0.48259 0.65009,-0.007 0,0.38324 -0.77851,1.25549 -0.95925,1.07475 z m -9.02429,-0.28706 c -0.0538,-0.14015 -0.0123,-0.41456 0.0922,-0.60979 0.10448,-0.19523 0.18997,-0.5062 0.18997,-0.69103 0,-0.33026 0.64321,-0.74546 1.15483,-0.74546 0.40268,0 0.30005,0.2762 -0.18469,0.49707 -0.43985,0.2004 -0.60544,0.56126 -0.25756,0.56126 0.10088,0 0.50048,-0.16175 0.888,-0.35945 0.70701,-0.36069 1.04525,-0.338 1.04525,0.0701 0,0.20311 -0.8653,0.69737 -2.25294,1.28688 -0.49803,0.21157 -0.59068,0.21025 -0.67504,-0.01 z m -12.287351,-0.41469 c -0.25589,-0.28521 -0.18422,-0.43399 0.94281,-1.95708 0.67086,-0.90662 1.21975,-1.76753 1.21975,-1.91313 0,-0.1456 -0.126,-0.69815 -0.28,-1.22788 -0.34028,-1.17051 -0.71991,-1.20731 -1.0871,-0.10538 -0.24639,0.73941 -0.26105,0.74964 -1.07295,0.74867 -0.91862,-10e-4 -2.078873,-0.27676 -2.236183,-0.53129 -0.05658,-0.0915 0.218369,-0.59191 0.610987,-1.11193 1.204806,-1.59576 0.862096,-1.84771 -0.642645,-0.47246 -0.911708,0.83325 -1.018264,0.88194 -1.929898,0.88194 h -0.964906 l 1.420098,-1.2698 c 0.781053,-0.69839 1.420097,-1.3286998 1.420097,-1.4006998 0,-0.40767 -0.50952,-0.16451 -2.470581,1.1790498 l -2.176914,1.49145 H 6.563665 c -1.469139,0 -1.766703,-0.0552 -2.526948,-0.469 -0.473944,-0.25796 -0.860243,-0.55561 -0.858441,-0.66146 0.0018,-0.10585 2.417711,-1.4167998 5.368688,-2.9132198 l 5.365412,-2.72076 0.705168,0.46666 c 0.54811,0.36272 0.71757,0.59548 0.76083,1.04507 0.0528,0.54841 0.11054,0.59213 1.11399,0.84299 0.58208,0.14552 1.15755,0.3288 1.27882,0.40728 0.12126,0.0785 0.30832,0.0884 0.41567,0.0221 0.10735,-0.0663 0.50505,-0.0184 0.88376,0.10662 0.56212,0.18552 0.76673,0.18542 1.11414,-5e-4 0.234066,-0.12527 0.618346,-0.17938 0.853946,-0.12024 0.23561,0.0591 0.48552,0.0494 0.55536,-0.0216 0.0698,-0.071 0.61741,-0.24814 1.21681,-0.39366 1.0091,-0.24499 1.09425,-0.30378 1.14954,-0.79375 0.072,-0.63861 0.27773,-0.90754 0.9665,-1.26372 0.51847,-0.26811 0.56652,-0.24817 5.87477,2.43698 2.94362,1.48901 5.35339,2.7938998 5.35504,2.8997498 0.002,0.10585 -0.38476,0.4035 -0.85871,0.66146 -0.75975,0.41351 -1.0582,0.469 -2.52224,0.469 h -1.66053 l -2.10796,-1.42952 C 26.63455,9.3029472 26.45877,9.2086872 26.45726,9.5445372 c -5.9e-4,0.13165 0.61457,0.8111598 1.36702,1.5100098 l 1.36809,1.27065 -0.9366,0.008 c -0.88642,0.008 -0.98656,-0.0391 -1.86913,-0.87377 -0.78722,-0.74452 -1.5158,-1.12628 -1.5158,-0.79425 0,0.0482 0.3568,0.57238 0.79289,1.16477 0.43609,0.59238 0.75072,1.14529 0.69918,1.22868 -0.1492,0.24142 -1.33062,0.51541 -2.22702,0.51648 -0.8119,9.7e-4 -0.82657,-0.009 -1.07295,-0.74867 -0.36388,-1.09198 -0.75573,-1.06862 -1.09242,0.0651 -0.15107,0.50873 -0.27468,1.05695 -0.27468,1.21828 0,0.16133 0.51594,1.01455 1.14653,1.89605 0.63059,0.88149 1.14653,1.67787 1.14653,1.76972 0,0.43067 -0.53629,0.61672 -1.19623,0.41499 -0.52069,-0.15917 -0.75725,-0.38525 -1.1478,-1.09699 -0.57177,-1.04196 -0.94272,-1.06761 -0.86855,-0.06 l 0.0506,0.68767 h -1.233686 c -1.19647,0 -1.23063,-0.0121 -1.13251,-0.40253 0.31626,-1.25828 -0.14168,-1.37802 -0.82161,-0.21483 -0.67331,1.15188 -1.60302,1.54995 -2.1628,0.92604 z m 19.211951,0.0132 c -0.31617,-0.31617 -0.0707,-0.86689 0.50704,-1.13739 0.56902,-0.26642 0.61162,-0.2657 0.61162,0.0104 0,0.47456 -0.88226,1.3634 -1.11866,1.127 z m 1.57851,-0.86544 c -0.17883,-0.46601 -0.13054,-0.55424 0.51029,-0.93234 l 0.61736,-0.36425 v 0.50293 c 0,0.3399 -0.14093,0.59527 -0.43476,0.7878 -0.53575,0.35103 -0.56036,0.35124 -0.69289,0.006 z m -1.87096,-0.76635 c 0,-0.41404 0.35131,-0.71853 0.82903,-0.71853 0.60102,0 0.48142,0.40014 -0.21741,0.72735 -0.56834,0.2661 -0.61162,0.26548 -0.61162,-0.009 z m 1.5875,-0.59506 c 0,-0.35335 0.38017,-0.65264 0.82903,-0.65264 0.5727,0 0.5034,0.2782 -0.15057,0.60445 -0.67222,0.33534 -0.67846,0.33578 -0.67846,0.0482 z M 19.005359,7.6542872 c -0.3684,-0.19986 -0.572,-0.21721 -0.84353,-0.0719 -0.32937,0.17627 -0.34837,0.15212 -0.23821,-0.30276 0.0658,-0.27188 0.18745,-0.67808 0.27026,-0.90268 0.25386,-0.68852 0.1788,-0.8397 -0.6406,-1.29031 -0.76138,-0.41871 -0.78092,-0.4497 -0.51917,-0.82341 0.373,-0.53253 1.58576,-0.55715 1.7513,-0.0356 0.1203,0.37901 0.52286,0.472 0.71281,0.16466 0.064,-0.10347 -0.0306,-0.29939 -0.21007,-0.43537 -0.48432,-0.36691 0.0123,-0.3178 0.78804,0.0779 0.626091,0.31941 0.679131,0.41599 1.051301,1.9146 0.47819,1.92548 0.47891,1.83029 -0.0124,1.6435 -0.2707,-0.10293 -0.54762,-0.0744 -0.837841,0.0863 -0.54548,0.30205 -0.67363,0.29953 -1.27189,-0.025 z m -2.86676,-0.78235 c -0.0605,-0.0979 -0.0638,-0.32345 -0.007,-0.50127 0.11217,-0.35343 0.93266,-1.19009 1.04996,-1.07065 0.0401,0.0408 0.0301,0.45122 -0.0222,0.91204 -0.0829,0.73039 -0.14739,0.83784 -0.50273,0.83784 -0.2242,0 -0.45712,-0.0801 -0.51762,-0.17796 z m 0.31118,-4.1145 c -1.30738,-1.41834 -1.37036,-1.93991001 -0.30361,-2.51439001 0.60498,-0.3258 0.63222,-0.32562 1.45151,0.01 0.71533,0.29299 1.42885,0.35582 4.980091,0.43855 4.13114,0.0962 4.14533,0.0979 4.20151,0.49343001 0.0615,0.43266 0.38484,0.50357 0.94048,0.2062 0.44206,-0.23659 0.62744,-0.0843 0.33147,0.27236 -0.12169,0.14663 -0.17185,0.39535 -0.11147,0.55272 0.0857,0.22342 0.25431,0.26169 0.76939,0.17464 0.6105,-0.10316 0.63448,-0.0917 0.32211,0.15353 -0.51243,0.40234 -1.81942,0.85746 -2.12531,0.74008 -0.14918,-0.0572 -0.27123,-0.26532 -0.27123,-0.46239 0,-0.34998 -0.0963,-0.35832 -4.13916,-0.35832 -3.521871,0 -4.232381,-0.0445 -4.764261,-0.29809 -0.83755,-0.3994 -1.12009,-0.14258 -0.71178,0.647 0.43169,0.83478 0.23291,0.8155 -0.56974,-0.0553 z"
         style="fill:#f9f9f9"
         id="path1-3" /></g></g></svg>
