<?xml version="1.0" encoding="UTF-8" standalone="no"?>
<!-- Created with Inkscape (http://www.inkscape.org/) -->

<svg
   width="250mm"
   height="250mm"
   viewBox="0 0 250 250"
   version="1.1"
   id="svg1"
   xml:space="preserve"
   inkscape:version="1.3 (0e150ed, 2023-07-21)"
   sodipodi:docname="ega.svg"
   xmlns:inkscape="http://www.inkscape.org/namespaces/inkscape"
   xmlns:sodipodi="http://sodipodi.sourceforge.net/DTD/sodipodi-0.dtd"
   xmlns:xlink="http://www.w3.org/1999/xlink"
   xmlns="http://www.w3.org/2000/svg"
   xmlns:svg="http://www.w3.org/2000/svg"><sodipodi:namedview
     id="namedview1"
     pagecolor="#ffffff"
     bordercolor="#000000"
     borderopacity="0.25"
     inkscape:showpageshadow="2"
     inkscape:pageopacity="0.0"
     inkscape:pagecheckerboard="0"
     inkscape:deskcolor="#d1d1d1"
     inkscape:document-units="mm"
     inkscape:zoom="0.44682412"
     inkscape:cx="316.67941"
     inkscape:cy="365.91579"
     inkscape:window-width="1728"
     inkscape:window-height="968"
     inkscape:window-x="0"
     inkscape:window-y="614"
     inkscape:window-maximized="1"
     inkscape:current-layer="layer1" /><defs
     id="defs1"><linearGradient
       id="linearGradient1"
       inkscape:collect="always"><stop
         style="stop-color:#b5181d;stop-opacity:0.7011686;"
         offset="0"
         id="stop1" /><stop
         style="stop-color:#74181f;stop-opacity:1;"
         offset="1"
         id="stop2" /></linearGradient><linearGradient
       inkscape:collect="always"
       xlink:href="#linearGradient1"
       id="linearGradient2"
       x1="4.6118358"
       y1="125"
       x2="245.38817"
       y2="125"
       gradientUnits="userSpaceOnUse" /></defs><g
     inkscape:label="Layer 1"
     inkscape:groupmode="layer"
     id="layer1"><path
       style="fill:url(#linearGradient2);stroke-width:0.859336"
       d="m 88.225683,249.93941 c -0.343898,-0.0528 -0.625262,-0.16334 -0.625262,-0.24567 0,-0.0824 0.401783,-1.63578 0.892843,-3.45223 0.491059,-1.81644 0.912099,-3.50726 0.935645,-3.75736 0.112433,-1.19437 0.18665,-1.15947 -3.817935,-1.79511 -13.076018,-2.0755 -27.266301,-6.91127 -42.233237,-14.39226 -6.453973,-3.22594 -7.867392,-4.07292 -8.723625,-5.2276 -0.421204,-0.56802 -1.265511,-1.3434 -1.876241,-1.72304 -0.896313,-0.55717 -1.1586,-0.86926 -1.360355,-1.61849 -0.368551,-1.36871 -1.178449,-2.85781 -2.507001,-4.60943 -0.687493,-0.90641 -1.339352,-2.0778 -1.561679,-2.80635 -0.455672,-1.49312 -0.918502,-2.41949 -2.044713,-4.09258 -0.466069,-0.6924 -0.909204,-1.6815 -0.992869,-2.21618 -0.0831,-0.53112 -0.405735,-1.54143 -0.716934,-2.24512 -0.311209,-0.7037 -0.565831,-1.31787 -0.565831,-1.36483 0,-0.0468 0.383677,-0.0865 0.852618,-0.0876 1.309353,-0.004 2.985814,-0.92268 4.395338,-2.41012 0.69798,-0.73656 1.392203,-1.5694 1.542723,-1.85078 0.227759,-0.42575 0.46425,-0.51156 1.409793,-0.51156 0.624875,0 1.516531,-0.15814 1.981458,-0.35153 1.028015,-0.42753 2.781833,-2.10866 3.717916,-3.56388 0.56651,-0.88068 0.839976,-1.09639 1.523628,-1.20181 2.107446,-0.32499 3.928704,-1.8766 5.163159,-4.39873 0.608752,-1.24378 0.740316,-1.37431 1.396223,-1.38539 0.398275,-0.007 0.991492,-0.11388 1.318254,-0.23812 0.387519,-0.14734 0.934674,-0.14957 1.573419,-0.006 0.894519,0.20046 1.579812,0.11829 2.641385,-0.31672 0.294924,-0.12087 0.333379,0.10207 0.261874,1.5181 -0.06788,1.34438 0.03119,2.004 0.521522,3.47162 0.332932,0.99652 0.808093,2.15819 1.055917,2.58148 0.247815,0.4233 0.587967,1.5566 0.75588,2.51845 0.346244,1.9833 1.065456,3.64331 2.410257,5.56309 l 0.925635,1.32138 -0.54182,0.82525 c -1.312652,1.99932 -1.449837,4.06488 -0.380617,5.73111 2.291901,3.57161 9.592664,8.87794 24.657977,17.92182 3.376388,2.0269 6.365589,3.9371 6.642665,4.24489 0.627521,0.6971 0.988547,1.98704 1.17266,4.18983 l 0.142481,1.70484 1.364197,0.18722 c 2.171877,0.29816 13.595329,0.002 15.428209,-0.39945 2.08446,-0.45698 2.98843,-0.99759 2.98843,-1.78718 v -0.61051 l -2.925,-0.11981 c -4.99016,-0.20424 -13.071664,-1.56954 -13.84034,-2.33819 -0.909658,-0.90967 -3.007581,-7.2811 -2.859053,-8.68301 l 0.0709,-0.66944 2.273664,1.04037 c 13.072499,5.98175 21.560299,8.66151 30.523889,9.63706 1.40683,0.15313 2.55787,0.3499 2.55787,0.43731 0,0.81794 -4.41448,5.6593 -7.61677,8.3533 -4.97607,4.18625 -10.59869,7.16512 -16.278705,8.62441 -2.107426,0.54144 -2.836289,0.61279 -6.685263,0.65432 -2.375969,0.0256 -4.601314,0.004 -4.945205,-0.0495 z m -29.387055,-2.27464 c -1.00697,-0.24301 -1.883974,-0.80044 -2.138604,-1.35929 -0.184473,-0.40485 -0.224432,-1.34814 -0.127207,-3.00163 0.127304,-2.16462 0.09346,-2.50338 -0.330913,-3.31195 -0.26,-0.4954 -0.472721,-1.03254 -0.472721,-1.19367 0,-1.018 4.160784,1.05976 5.152183,2.57282 0.255223,0.38952 0.466492,1.29934 0.563303,2.42585 0.12973,1.5097 0.2506,1.90246 0.743885,2.41733 0.837422,0.8741 0.761302,1.29767 -0.263654,1.4671 -0.954052,0.15776 -2.436767,0.14986 -3.126279,-0.0173 z m 6.860285,-0.83973 c -0.307934,-0.33228 -0.628836,-0.98449 -0.71312,-1.44936 -0.55539,-3.0636 -0.871993,-3.98855 -1.66615,-4.86759 -0.964579,-1.06766 -0.76297,-1.34727 0.847513,-1.17538 3.125765,0.33366 4.710809,1.40194 5.348988,3.60508 0.292406,1.00943 0.624968,1.57556 1.28176,2.1819 0.487793,0.45032 0.886902,0.9213 0.886902,1.04658 0,0.42639 -1.927524,1.02606 -3.679306,1.14465 -1.669655,0.11307 -1.771384,0.0917 -2.306587,-0.48588 z m -14.247284,-0.6219 c -1.560013,-0.2584 -2.747057,-0.86001 -3.169824,-1.6065 -0.288488,-0.50938 -0.266317,-0.88101 0.195688,-3.28001 0.490827,-2.54866 0.499807,-2.75637 0.154829,-3.58202 -0.201411,-0.48205 -0.366206,-0.96628 -0.366206,-1.07605 0,-0.6319 2.040158,0.29598 3.457159,1.57232 1.383385,1.24609 1.783655,2.31442 1.550938,4.13958 -0.158277,1.24141 -0.119271,1.62582 0.243812,2.4023 0.821989,1.75795 0.646099,1.87971 -2.066394,1.43038 z m 22.475529,-2.04625 c -0.972896,-1.026 -2.949387,-4.15472 -2.68423,-4.24907 0.116401,-0.0414 1.31218,0.22789 2.657265,0.59848 1.345092,0.37058 3.249501,0.84872 4.232032,1.06253 l 1.786404,0.38875 -0.72669,0.74976 c -0.889119,0.91734 -2.555347,1.84469 -3.693572,2.05571 -0.762161,0.14138 -0.92027,0.0803 -1.571209,-0.60616 z m -30.022966,-1.10863 c -2.242506,-0.68523 -3.823254,-1.95222 -3.823254,-3.06431 0,-0.27848 0.434145,-1.41571 0.964777,-2.52721 0.818535,-1.7146 0.966066,-2.24244 0.973241,-3.48217 0.0052,-0.87032 0.111566,-1.4956 0.263403,-1.54622 0.402969,-0.13426 2.522693,2.127 3.145032,3.35513 0.683945,1.34969 0.70725,2.11683 0.110333,3.63123 -0.526439,1.33558 -0.55832,1.84125 -0.181757,2.88263 0.38273,1.05842 0.0752,1.2175 -1.451781,0.75092 z m -6.665335,-4.47434 c -1.288016,-0.69465 -2.809909,-2.15799 -3.163569,-3.04187 -0.409946,-1.02455 -0.303242,-1.4295 0.852858,-3.23678 0.954343,-1.49187 1.374686,-2.73328 1.20788,-3.56727 -0.370835,-1.85419 1.752051,-0.62207 2.873182,1.6676 0.785468,1.60413 0.775346,2.24074 -0.06514,4.09431 -0.534395,1.17857 -0.682098,1.82543 -0.682098,2.98721 0,0.81557 -0.07674,1.47877 -0.170528,1.47376 -0.09379,-0.004 -0.477465,-0.17471 -0.852625,-0.37696 z m -6.860252,-6.54744 c -1.393155,-1.21869 -2.487331,-3.16688 -2.26844,-4.03899 0.08292,-0.3305 0.716926,-1.26822 1.408838,-2.08379 1.320456,-1.55648 1.922025,-2.694 1.922025,-3.63438 0,-0.8223 0.310169,-0.88195 0.95217,-0.18318 1.057637,1.1512 1.589609,2.29629 1.716413,3.6947 0.120619,1.33017 0.09868,1.39793 -0.973062,3.00687 -0.876763,1.31624 -1.11663,1.88607 -1.197122,2.84392 -0.05534,0.65884 -0.172165,1.24206 -0.259528,1.29605 -0.08737,0.0539 -0.672956,-0.35153 -1.301294,-0.9012 z m -5.569639,-6.72143 c -1.299359,-1.36592 -1.778646,-2.24003 -1.779634,-3.24567 -7.65e-4,-0.78446 0.191082,-1.07081 1.924955,-2.87315 1.59339,-1.65631 1.951621,-2.16329 2.075357,-2.93709 0.08225,-0.51437 0.273682,-0.93521 0.425407,-0.93521 0.355317,0 1.366146,1.86935 1.710076,3.16247 0.404637,1.52142 0.136511,2.354 -1.263264,3.92277 -1.225922,1.37391 -1.391129,1.70286 -1.514229,3.01502 -0.09365,0.99826 -0.555611,0.9663 -1.578668,-0.10922 z m 56.538894,-1.72544 c -1.125464,-0.69219 -2.125672,-1.33373 -2.222699,-1.42569 -0.09702,-0.0921 0.332624,-0.51455 0.954757,-0.93908 1.091133,-0.7446 1.256762,-0.95768 1.80317,-2.31989 0.356282,-0.88824 0.725667,-0.7796 1.547527,0.45516 1.134538,1.70451 1.441414,2.46091 1.441414,3.55278 0,0.82889 -0.111258,1.10545 -0.599076,1.48917 -0.329488,0.25919 -0.662016,0.46557 -0.738935,0.45863 -0.07691,-0.006 -1.060695,-0.57892 -2.186158,-1.27108 z m -4.940891,-2.97868 c -1.079695,-0.66951 -1.715809,-3.64227 -1.049369,-4.90407 0.144273,-0.27314 0.701347,-0.98739 1.23796,-1.58723 0.766399,-0.85671 0.990538,-1.29517 1.045046,-2.04435 0.0471,-0.64723 0.183838,-0.97537 0.425485,-1.02112 0.502796,-0.0953 2.381373,1.62295 3.082402,2.81916 0.894681,1.52664 0.672664,2.18762 -1.343279,3.99903 -0.906866,0.81486 -1.849283,1.85376 -2.094253,2.30864 -0.51122,0.94929 -0.482011,0.93966 -1.303992,0.42994 z m 39.614201,-0.98088 c -7.46482,-0.65339 -14.85864,-2.78617 -21.453459,-6.18828 -3.333596,-1.71972 -7.169191,-4.19993 -6.723366,-4.34749 0.647956,-0.21449 4.963877,-0.82721 8.951255,-1.27078 2.243683,-0.2496 4.16337,-0.53776 4.26595,-0.64035 0.10259,-0.10267 0.1222,-0.50814 0.0435,-0.90126 -0.12894,-0.64466 -0.24514,-0.73009 -1.184606,-0.87097 -1.948294,-0.29217 -10.199998,0.0713 -13.092068,0.57669 l -2.704588,0.47261 -0.705902,-0.5433 c -1.005363,-0.77378 -5.354428,-5.233 -6.68046,-6.84967 -0.615432,-0.75029 -1.647168,-2.10804 -2.292743,-3.01719 -1.40852,-1.98359 -1.759258,-1.71554 3.739812,-2.85813 3.489739,-0.7251 6.318947,-1.05624 14.120532,-1.65273 1.727196,-0.13206 1.90251,-0.27438 1.703246,-1.38269 -0.128074,-0.71236 -1.631235,-0.84914 -7.429914,-0.67608 -4.102124,0.12242 -5.497496,0.26709 -9.891575,1.02559 -4.677322,0.80738 -5.141828,0.85159 -5.420234,0.51587 -1.134875,-1.36844 -5.546937,-12.11014 -5.086702,-12.38419 0.08899,-0.053 1.082615,-0.31202 2.20808,-0.57566 1.125464,-0.26361 3.146166,-0.73814 4.490461,-1.05448 4.048605,-0.95276 10.310424,-1.69639 14.336456,-1.70256 0.89981,-0.002 2.019706,-0.0659 2.488646,-0.14342 0.733632,-0.12126 0.852135,-0.22403 0.849135,-0.73644 -0.0077,-1.29114 0.04486,-1.28018 -5.956609,-1.24803 -5.816363,0.0312 -6.881132,0.14325 -15.60462,1.64261 -2.518343,0.43285 -3.744617,0.55947 -3.80374,0.39276 -0.478546,-1.34942 -1.499549,-11.31024 -1.190945,-11.61883 0.183934,-0.18394 7.653221,-1.99173 11.098514,-2.68616 3.187123,-0.6424 7.676861,-1.05932 11.457698,-1.06396 3.197486,-0.004 3.548457,-0.0934 3.548457,-0.90505 0,-1.2027 -0.261651,-1.25417 -6.231296,-1.22581 -4.978193,0.0236 -5.888857,0.0918 -9.980172,0.7465 -2.47616,0.39625 -5.480132,0.92168 -6.675478,1.16764 -3.233173,0.66524 -3.224915,0.66693 -3.10288,-0.63281 0.253418,-2.69902 0.81398,-6.45738 1.195396,-8.01464 0.229708,-0.93789 0.478203,-1.9727 0.552218,-2.29959 0.112394,-0.49646 0.353573,-0.65579 1.464686,-0.96754 1.976078,-0.55446 7.4476,-1.42522 11.666896,-1.85671 2.04668,-0.20929 3.849129,-0.41778 4.005441,-0.4633 0.394977,-0.11499 0.356805,-1.34528 -0.05224,-1.68479 -0.489365,-0.40614 -10.201974,-0.1785 -13.172734,0.30875 -1.240031,0.20337 -2.29918,0.32521 -2.353671,0.27071 -0.318959,-0.31896 3.736334,-9.03163 4.909748,-10.54845 0.342532,-0.44277 1.021716,-0.65625 4.146665,-1.30339 2.055368,-0.42564 3.819947,-0.77567 3.921281,-0.77785 0.101338,-0.002 0.152498,-0.38644 0.113685,-0.85394 -0.06617,-0.79671 -0.127573,-0.86 -0.980039,-1.01004 -0.500202,-0.088 -1.704122,-0.16596 -2.675379,-0.17318 l -1.765926,-0.0131 1.197509,-1.53292 c 1.55277,-1.98769 7.382976,-7.85739 7.644181,-7.69596 0.110565,0.0683 0.277041,0.9706 0.369944,2.00501 0.374076,4.16532 0.432375,3.75737 -0.807656,5.65186 -1.671509,2.5537 -1.790734,3.40662 -1.030187,7.36984 0.928426,4.83801 0.758122,4.54958 4.853193,8.21956 1.97044,1.7659 4.586593,4.19435 5.813665,5.39654 1.22708,1.20222 2.311691,2.18584 2.410257,2.18584 0.300063,0 1.611265,-0.49206 1.611265,-0.60467 0,-0.058 -0.827197,-1.47612 -1.838215,-3.15137 -1.011025,-1.67527 -1.772347,-3.15253 -1.691827,-3.2828 0.08052,-0.13028 0.546554,-0.23687 1.035638,-0.23687 0.861226,0 0.964425,0.0905 3.274964,2.87172 1.730772,2.08336 2.489137,3.19127 2.762427,4.03574 0.90558,2.79814 0.49989,2.50211 6.31141,4.60544 3.25836,1.17927 3.66953,1.27803 4.3118,1.0356 0.62845,-0.23722 1.00585,-0.16591 3.28678,0.62102 3.09137,1.06654 3.69207,1.42288 3.69207,2.19023 0,0.31376 0.14826,0.9253 0.32945,1.35895 0.39016,0.93379 0.69969,0.9719 3.53123,0.43477 2.30012,-0.43633 2.55723,-0.31121 3.59477,1.74921 0.83537,1.65894 0.86978,1.36368 -0.74234,6.36803 l -0.85296,2.6478 0.72651,1.89952 c 1.46469,3.82951 2.00729,4.38645 6.52531,6.69788 1.60453,0.8209 3.22085,1.78939 3.59182,2.15222 1.03552,1.01283 1.03713,2.63936 0.009,8.51031 -1.20425,6.87311 -1.34531,8.0255 -1.05925,8.65335 0.18266,0.40088 0.13289,1.09603 -0.20228,2.8251 -0.5304,2.7361 -0.57726,5.22631 -0.11515,6.11993 0.27819,0.53799 1.23995,1.38668 1.57138,1.38668 0.0538,0 1.3108,-1.74274 2.79324,-3.87274 7.89691,-11.34648 7.6437,-11.01392 8.44522,-11.09141 0.80534,-0.0778 1.40522,-0.78765 4.74306,-5.61247 1.28768,-1.86134 1.78435,-2.38771 2.73874,-2.90259 0.64121,-0.3459 1.45624,-0.91521 1.8112,-1.26512 1.1692,-1.15261 8.48951,-12.01164 8.48951,-12.59345 0,-0.38141 -0.50461,-1.04691 -1.6484,-2.17402 -3.11632,-3.07087 -5.28905,-4.51888 -6.06289,-4.04063 -0.36032,0.22269 -1.77011,-1.18294 -1.91548,-1.90983 -0.21964,-1.09821 -2.21398,-2.48007 -10.66041,-7.38652 -4.17765,-2.42675 -5.01903,-2.65415 -10.9985,-2.97257 -3.67597,-0.19576 -4.43825,0.0123 -5.32513,1.4537 -0.78038,1.26828 -1.10377,1.44392 -3.59329,1.9517 -2.68289,0.54721 -3.0421,0.46421 -3.40891,-0.78768 -0.57887,-1.97569 -0.61299,-2.01599 -1.84491,-2.17941 -1.37125,-0.18192 -1.49313,-0.43351 -1.03695,-2.14055 0.18378,-0.68779 0.33538,-1.32726 0.33688,-1.42105 0.002,-0.0938 -0.5429,-0.1705 -1.20973,-0.1705 -1.15034,0 -1.24056,0.0435 -1.76209,0.84891 -0.61495,0.94974 -1.28794,1.16108 -3.77136,1.18428 l -1.40276,0.0133 -0.34932,-1.07999 c -0.7944,-2.45606 -0.98276,-7.38084 -0.34748,-9.08534 0.36316,-0.97441 4.02538,-2.27531 5.63821,-2.00283 0.45883,0.0775 1.4728,-0.0148 2.29835,-0.20945 2.45558,-0.57873 2.81482,-0.51141 3.74053,0.70095 0.44341,0.58072 0.80619,1.15564 0.80619,1.27762 0,0.12197 0.35198,0.80118 0.78216,1.50934 0.71421,1.17569 2.0871,2.29608 2.81358,2.29608 0.59747,0 0.95158,-0.74858 0.95158,-2.01161 0,-1.18387 -0.12967,-1.5209 -1.48633,-3.86285 -0.81748,-1.4112 -1.54624,-2.86532 -1.61945,-3.23139 -0.16562,-0.82804 0.1911,-1.3944 2.24481,-3.5642 l 1.55549,-1.64339 -0.0542,-1.37214 -0.0542,-1.37213 4.19741,-4.08155 c 3.21747,-3.12866 4.33523,-4.08351 4.78774,-4.08995 0.62567,-0.009 2.02438,-0.61682 2.02438,-0.87984 0,-0.21028 -0.35147,-0.41792 -3.52417,-2.08185 -1.50062,-0.78701 -3.59488,-1.88637 -4.65392,-2.44305 -1.66628,-0.87586 -2.04777,-0.99258 -2.83353,-0.86692 -0.49942,0.0798 -0.93976,0.17694 -0.97857,0.21574 -0.0388,0.0388 0.22551,0.73039 0.58735,1.53688 1.11135,2.47699 1.1339,2.31701 -0.42527,3.01673 -1.17906,0.52913 -1.35743,0.6863 -1.23097,1.08474 0.13842,0.43616 -0.17854,0.85152 -0.6566,0.86041 -0.10307,0.002 -0.77355,-0.55561 -1.48995,-1.23893 -0.92487,-0.8822 -2.05717,-1.61415 -3.90518,-2.52447 -1.43145,-0.70512 -2.6778,-1.39939 -2.76968,-1.54281 -0.0919,-0.14343 -0.1686,-0.54933 -0.17051,-0.902 -0.004,-0.6012 0.19492,-0.73604 3.17456,-2.15997 1.74792,-0.83532 3.18032,-1.63477 3.18312,-1.77657 0.003,-0.14178 -0.54826,-0.48238 -1.22458,-0.75687 -1.18918,-0.48265 -1.33264,-0.4901 -4.35905,-0.22599 -1.72117,0.15018 -3.6836,0.21588 -4.36096,0.14596 -0.86255,-0.089 -1.99192,0.0389 -3.76928,0.42693 -1.39574,0.30471 -4.08757,0.87884 -5.98182,1.27584 l -3.444096,0.72184 -0.584468,-0.66496 c -0.321452,-0.36572 -0.587698,-0.72063 -0.591653,-0.78868 -0.01136,-0.19687 5.581027,-2.20274 7.924197,-2.8422 8.18437,-2.23355 17.82176,-2.51791 26.32168,-0.77663 4.67435,0.95758 9.2046,2.51096 13.45627,4.61404 2.65921,1.31537 5.7871,3.11782 5.64943,3.25548 -0.0481,0.0481 -0.81151,-0.0154 -1.69668,-0.14096 -2.08151,-0.2952 -9.80039,-0.57479 -10.56576,-0.38269 -0.4219,0.10589 -0.63284,0.3477 -0.74374,0.8526 -0.0851,0.38763 -0.0677,0.79027 0.0387,0.89475 0.10644,0.1045 2.03519,0.40442 4.28612,0.66651 5.53357,0.64431 10.45409,1.54464 13.86932,2.53771 1.54538,0.44937 1.67457,0.5464 4.45187,3.34336 2.9077,2.9283 6.52806,7.3663 6.12075,7.50309 -0.12318,0.0413 -1.4781,-0.19574 -3.01095,-0.52688 -4.27539,-0.92363 -7.14554,-1.25679 -12.13219,-1.40827 -5.50334,-0.1672 -5.77464,-0.12253 -5.77464,0.95048 0,0.93096 0.0119,0.93505 3.29682,1.13606 3.73253,0.22838 10.13964,1.21286 13.47392,2.07031 3.28411,0.84456 6.90519,1.85988 6.9991,1.96248 0.0305,0.0333 0.57067,1.03255 1.2004,2.22054 1.53316,2.89227 3.98051,9.09463 3.58859,9.09463 -0.0538,0 -2.15823,-0.40595 -4.67635,-0.90212 -6.16256,-1.21426 -8.77319,-1.55636 -14.0466,-1.84062 -5.47846,-0.29531 -5.95827,-0.20766 -5.96717,1.09001 -0.004,0.61411 0.14262,0.6525 3.74806,0.98005 4.91824,0.44681 10.4558,1.3353 14.12705,2.26662 5.23764,1.3287 7.63992,2.0065 7.84761,2.2142 0.50998,0.50997 1.55772,7.57472 1.55772,10.50343 v 1.30351 l -1.87577,-0.41221 c -4.78423,-1.05147 -8.93461,-1.55111 -12.93336,-1.55706 -2.56556,-0.004 -2.64782,0.0116 -2.73718,0.50764 -0.2106,1.16938 -0.16952,1.18752 4.19699,1.85349 4.46392,0.68083 9.06421,1.65117 11.69929,2.46772 1.56597,0.48527 1.64668,0.54378 1.64447,1.19241 -0.005,1.57322 -0.48088,5.2016 -1.05036,8.01465 -0.47489,2.34587 -0.68971,3.01219 -0.97065,3.01071 -0.19843,-8.5e-4 -1.48624,-0.15251 -2.86181,-0.33661 -1.37556,-0.18409 -3.34732,-0.33672 -4.38167,-0.33916 -1.77426,-0.004 -1.89491,0.0269 -2.13302,0.54947 -0.32367,0.71038 -0.12318,1.22092 0.53659,1.36649 2.54313,0.56107 7.96633,1.92465 8.07101,2.02933 0.36709,0.36709 -4.12216,10.38451 -5.35077,11.93986 l -0.42843,0.54239 -2.5905,-0.48535 c -3.17806,-0.59544 -7.66699,-1.12522 -10.07166,-1.18866 -1.53402,-0.0404 -1.84308,0.0156 -2.11171,0.38294 -0.17309,0.2367 -0.28525,0.63574 -0.24927,0.88674 0.0554,0.38677 0.42954,0.52992 2.45277,0.93849 7.55789,1.52623 10.6862,2.2476 10.6862,2.46411 0,0.17066 -3.2052,4.07274 -4.66101,5.67432 -1.41946,1.5616 -5.0864,4.93503 -6.25134,5.75099 -0.37068,0.25964 -0.67132,0.25357 -1.93305,-0.0391 -2.00256,-0.46443 -6.38324,-0.96883 -10.02232,-1.15399 -2.63956,-0.13426 -3.01726,-0.1071 -3.366,0.24153 -0.58623,0.58622 -0.39909,1.56982 0.31399,1.65026 0.31263,0.0352 1.33578,0.20683 2.27367,0.38127 0.93788,0.17452 3.1888,0.59299 5.00205,0.93015 1.81324,0.33716 3.38202,0.69076 3.48616,0.78578 0.2648,0.24156 -3.14415,2.25696 -6.72645,3.97668 -5.14109,2.46805 -11.43734,4.30641 -17.45002,5.09498 -2.61083,0.34242 -8.70327,0.46845 -11.3683,0.23519 z m -95.306597,-0.83518 c -0.905499,-0.9701 -1.730737,-2.4158 -1.902931,-3.33366 -0.169366,-0.90281 -0.134178,-0.94675 3.254615,-4.06338 0.695134,-0.63931 1.255164,-1.37916 1.365107,-1.80347 0.26703,-1.03048 0.685879,-1.04264 1.083974,-0.0316 0.188942,0.47995 0.434756,1.03667 0.546237,1.23713 0.364926,0.65622 0.508075,2.34612 0.254957,3.00999 -0.13549,0.35535 -0.901744,1.28871 -1.702809,2.07416 -1.161891,1.13924 -1.49558,1.6258 -1.649805,2.40565 -0.106326,0.53766 -0.298851,1.01274 -0.427837,1.05573 -0.128987,0.043 -0.498664,-0.20481 -0.821508,-0.5507 z m 51.494076,-3.75515 c -0.882503,-0.9287 -1.575739,-2.30261 -1.725126,-3.41904 -0.08558,-0.63985 0.03066,-1.13655 0.452544,-1.93261 1.387399,-2.6181 1.47744,-2.85615 1.358225,-3.59076 -0.06592,-0.40611 2.14e-4,-0.89949 0.146912,-1.09642 0.234393,-0.31467 0.395861,-0.25499 1.331464,0.49199 1.35463,1.08155 2.386409,2.38727 2.578883,3.2636 0.113762,0.51794 0.02063,0.86758 -0.382422,1.43574 -2.102803,2.96422 -2.307582,3.34182 -2.414225,4.4517 -0.06308,0.65668 -0.221736,1.13473 -0.376553,1.13473 -0.147143,0 -0.583507,-0.3325 -0.96971,-0.73893 z M 4.896044,214.2696 c -0.1563132,-0.0717 -0.2842082,-0.3775 -0.2842082,-0.67951 0,-0.40481 0.9062214,-1.4555 3.448817,-3.99864 l 3.4488162,-3.44956 0.729929,0.86944 c 0.515524,0.61405 0.767636,1.18785 0.858321,1.95356 0.141585,1.19546 0.948458,2.95148 1.84668,4.01894 0.319552,0.37977 0.581014,0.80362 0.581014,0.94188 0,0.17143 -1.00044,0.25139 -3.148204,0.25139 -1.731502,0 -4.0591592,0.0501 -5.1725753,0.11134 -1.1134081,0.0613 -2.1522679,0.0528 -2.3085897,-0.0193 z m 11.65392,-3.10509 c -0.940921,-1.39271 -1.339679,-2.66387 -1.132106,-3.60897 0.111069,-0.50567 0.578745,-0.97616 1.889662,-1.90103 2.3073,-1.62781 2.922087,-2.23456 3.104172,-3.0636 0.08353,-0.38037 0.284827,-0.69157 0.447301,-0.69157 0.599137,0 1.37462,2.90939 1.198791,4.49755 -0.102561,0.92643 -0.252645,1.18155 -1.099288,1.86869 -1.848914,1.5006 -2.435935,2.18504 -2.693091,3.14001 -0.14992,0.55677 -0.392055,0.95257 -0.582741,0.95257 -0.179438,0 -0.689153,-0.53714 -1.1327,-1.19365 z m 50.380635,-1.70526 c -0.898409,-1.04967 -1.612037,-2.62165 -1.612037,-3.551 0,-0.25159 0.434834,-1.17715 0.966306,-2.05683 0.807321,-1.33629 0.966297,-1.79363 0.966297,-2.77972 0,-0.64915 0.06952,-1.24993 0.154559,-1.33507 0.197614,-0.19792 2.154674,1.14216 2.970735,2.03421 0.343339,0.3753 0.688784,1.02634 0.767652,1.44676 0.125031,0.66647 -0.01753,1.00238 -1.113268,2.62198 -1.635601,2.41772 -1.756519,2.6776 -1.756519,3.77525 0,0.50843 -0.09437,0.92441 -0.209678,0.92441 -0.115322,0 -0.625639,-0.48598 -1.134039,-1.07999 z m -5.453964,-5.30623 c -1.199892,-1.23185 -2.069592,-2.73142 -2.069592,-3.56845 0,-0.28447 0.629524,-1.18193 1.504656,-2.14505 1.496773,-1.64726 2.133197,-2.71168 2.133197,-3.5678 0,-0.76523 0.495785,-0.81828 1.067906,-0.11423 0.885082,1.08916 1.433124,2.55872 1.433124,3.84289 0,1.07172 -0.113454,1.3442 -1.136834,2.73055 -0.943387,1.27799 -1.136824,1.7041 -1.136824,2.50427 0,1.61226 -0.456152,1.693 -1.795633,0.31784 z m -48.183271,0.19051 c -0.588524,-0.96602 -1.178441,-2.74724 -1.178441,-3.55831 0,-0.97487 0.77708,-1.76822 2.695539,-2.75192 2.090618,-1.07199 2.595771,-1.47297 3.087423,-2.45081 0.206403,-0.4105 0.464961,-0.69095 0.57456,-0.62321 0.28114,0.17374 0.69082,2.21946 0.69082,3.44955 0,1.62956 -0.479226,2.33891 -2.395072,3.54523 -1.420973,0.89473 -1.786551,1.2521 -2.151348,2.10314 -0.241705,0.56389 -0.537076,1.02526 -0.656378,1.02526 -0.119294,0 -0.419485,-0.33252 -0.667103,-0.73893 z m 43.55211,-6.9198 c -1.163049,-1.86927 -1.632453,-3.97115 -1.082324,-4.8464 0.117884,-0.18758 1.062741,-0.90378 2.099651,-1.59156 1.486728,-0.98615 1.980777,-1.45614 2.336955,-2.22314 0.278097,-0.59887 0.581692,-0.94758 0.790047,-0.90746 0.500976,0.0965 1.119191,1.92887 1.132914,3.35796 0.01599,1.66796 -0.497658,2.61443 -2.05988,3.79527 -0.780784,0.59019 -1.384294,1.25496 -1.55349,1.71121 -0.651951,1.75799 -0.933908,1.8773 -1.663873,0.70412 z m -34.158037,0.19166 c -0.375152,-0.22935 -0.78998,-0.56151 -0.921828,-0.73809 -0.476123,-0.63765 -1.729516,-4.809 -1.510729,-5.02778 0.118366,-0.11837 0.780002,-0.22844 1.47029,-0.2446 1.048604,-0.0246 1.413607,0.081 2.21872,0.64205 1.937243,1.34979 2.168302,1.4649 2.949815,1.46948 1.447655,0.008 1.552349,0.28647 0.570582,1.51487 -1.165035,1.45768 -1.896467,2.11286 -2.780097,2.4903 -0.95101,0.40622 -1.178399,0.3941 -1.996753,-0.10633 z m -12.209601,-0.6656 c -0.142091,-0.3415 -0.300879,-1.38826 -0.352886,-2.32615 -0.1337468,-2.41244 0.290412,-2.99623 2.963979,-4.07937 2.081483,-0.84329 2.527556,-1.13577 3.153737,-2.0679 0.653448,-0.97271 0.987987,-0.27959 0.987987,2.04696 0,1.83585 -0.05087,2.07093 -0.568416,2.62811 -0.312627,0.33656 -1.392675,0.99434 -2.400109,1.46174 -1.714521,0.79545 -2.829303,1.74272 -2.829303,2.40414 0,0.60818 -0.694292,0.55908 -0.954989,-0.0676 z m 56.540828,-2.04194 c -0.247274,-0.46895 -0.870472,-1.31304 -1.38488,-1.87576 -0.831011,-0.90909 -0.962627,-1.21102 -1.180495,-2.70821 -0.146989,-1.0101 -0.529935,-2.26339 -0.956046,-3.12895 -0.681497,-1.38431 -0.700008,-1.49607 -0.448504,-2.70756 0.144273,-0.69502 0.229862,-2.04157 0.190194,-2.99235 -0.04375,-1.04809 0.02001,-1.75943 0.162032,-1.80675 0.128806,-0.0429 0.470614,0.66535 0.759574,1.57398 1.123102,3.53143 3.81309,9.49313 5.591802,12.39283 l 0.59137,0.96407 -1.290353,0.57066 c -0.709691,0.31388 -1.356668,0.57066 -1.437729,0.57066 -0.08104,0 -0.34968,-0.38368 -0.596965,-0.85262 z M 29.053681,191.9776 c -1.756964,-1.41225 -3.090017,-2.11607 -4.022328,-2.12368 -0.336507,-0.003 -0.670944,-0.10062 -0.743198,-0.21753 -0.182316,-0.29499 1.118298,-1.24375 2.693684,-1.96498 1.896589,-0.86829 3.111664,-0.82951 4.686553,0.14959 0.883647,0.54936 1.612132,0.81078 2.483127,0.89111 0.67794,0.0626 1.269344,0.22528 1.314236,0.36169 0.138399,0.42054 -1.752787,3.03359 -2.624053,3.62563 -1.287207,0.87467 -1.961743,0.74614 -3.788021,-0.72182 z m 24.657212,-3.20865 c -0.302221,-0.79116 -0.510652,-1.8758 -0.527909,-2.74707 -0.02552,-1.2899 0.03361,-1.49325 0.568598,-1.95433 0.332897,-0.28691 1.18804,-0.6314 1.932613,-0.77854 2.390096,-0.4723 3.059072,-0.73353 3.95774,-1.54541 1.175605,-1.0621 1.452424,-0.85628 1.268105,0.94283 -0.298585,2.91436 -1.323447,4.54516 -3.208246,5.10508 -1.447439,0.43 -1.916972,0.72794 -2.413651,1.53159 -0.25603,0.41426 -0.603279,0.7532 -0.771674,0.7532 -0.16839,0 -0.530899,-0.58831 -0.805576,-1.30735 z M 8.6229935,188.54158 c -0.2446873,-1.4804 -0.1499015,-2.64081 0.2959297,-3.62278 0.4910933,-1.08166 1.0934368,-1.4597 3.1924418,-2.00361 1.738394,-0.45046 3.080273,-1.10093 3.265185,-1.5828 0.07399,-0.1929 0.281673,-0.35073 0.461438,-0.35073 0.54322,0 0.699267,2.03245 0.269539,3.51069 -0.432796,1.48877 -0.779143,1.76149 -3.176398,2.50112 -2.043751,0.63057 -2.805595,1.08461 -3.094392,1.8442 -0.3400478,0.8944 -1.0454081,0.72233 -1.2137435,-0.29609 z M 19.424341,188.2055 c -0.246837,-1.10297 -0.209223,-1.48817 0.406457,-4.1628 1.497298,-6.50455 4.183075,-15.27624 7.02869,-22.95556 3.596535,-9.70579 11.234554,-24.18795 13.560837,-25.71219 0.902483,-0.59133 4.771307,-0.73923 5.773956,-0.22074 0.944754,0.48855 1.206387,1.15308 1.840268,4.67421 l 0.51164,2.84207 -0.609562,3.06944 c -0.335253,1.6882 -0.858932,4.29722 -1.163722,5.79784 -0.928014,4.56905 -1.697153,8.89098 -2.348143,13.19461 l -0.620184,4.09998 -1.099803,1.35027 c -1.041686,1.27892 -2.162047,3.30484 -2.166884,3.91835 -8.59e-4,0.15475 -0.423156,0.54709 -0.937621,0.87185 -1.383919,0.87363 -2.812092,2.26137 -3.615108,3.51277 -0.518058,0.80733 -0.936882,1.18029 -1.54725,1.37782 -2.229943,0.7217 -4.702228,2.53234 -5.731394,4.19758 -0.267133,0.43223 -0.670135,0.78588 -0.895565,0.78588 -0.22542,0 -1.214647,0.40598 -2.198268,0.90218 -1.732293,0.87387 -3.016399,1.87037 -3.721028,2.88761 -0.212402,0.30666 -0.690768,0.54742 -1.268182,0.63832 l -0.927138,0.14593 z m 17.045392,-0.87988 c -2.135414,-1.47862 -3.32691,-2.02401 -4.421834,-2.02401 -0.583884,0 -1.061605,-0.0966 -1.061605,-0.21469 0,-0.8097 3.103748,-2.86048 4.688983,-3.09819 0.845063,-0.12673 1.223359,-0.037 2.482509,0.58919 1.282939,0.63797 1.640852,0.72032 2.624551,0.60381 0.862593,-0.10214 1.168809,-0.0573 1.261694,0.18471 0.188788,0.49198 -1.244412,2.98603 -2.225019,3.87194 -1.117703,1.00979 -1.984353,1.03235 -3.349279,0.0873 z m 6.613872,-5.77191 c -1.986073,-0.92461 -3.306665,-1.24026 -4.275102,-1.02184 -1.568211,0.3537 -1.600488,0.004 -0.148607,-1.61247 2.134187,-2.37528 3.695222,-2.92211 6.050627,-2.11955 0.660975,0.22524 1.352895,0.3083 1.802596,0.21643 1.678351,-0.34287 1.870799,-0.2973 1.817572,0.43036 -0.0788,1.07676 -0.985771,3.13205 -1.735593,3.93291 -0.863401,0.92217 -1.80452,0.96884 -3.511495,0.17415 z M 7.8049143,180.01535 c 0.013329,-1.59924 0.6365189,-3.3203 1.4081597,-3.88892 0.455551,-0.3357 1.30595,-0.53655 3.173364,-0.7495 1.93159,-0.22026 2.710647,-0.40889 3.208289,-0.77682 1.006875,-0.74441 1.216552,-0.32388 0.760331,1.52486 -0.652691,2.64491 -1.303209,3.22574 -3.819637,3.41047 -2.125876,0.15604 -2.9505898,0.41005 -3.6098293,1.11177 -0.8415135,0.89575 -1.1320463,0.73195 -1.1206774,-0.63186 z m 45.7387087,-0.94231 c 0.132638,-2.06684 0.893245,-3.78323 1.816782,-4.09979 0.426523,-0.1462 1.301515,-0.0845 2.861803,0.20177 2.12189,0.38932 3.086718,0.39604 3.942015,0.0275 0.2754,-0.1187 0.409422,-0.002 0.52484,0.45818 0.209747,0.83567 -1.202666,2.89095 -2.598367,3.78102 -0.96548,0.61572 -1.11961,0.64474 -2.666879,0.50222 -1.429754,-0.1317 -1.747614,-0.0891 -2.457185,0.32958 -1.410824,0.83243 -1.546144,0.71828 -1.423009,-1.20038 z m -10.636397,-4.59287 c 0.34003,-1.36196 2.155241,-3.6999 3.353919,-4.31977 0.440426,-0.22775 1.244311,-0.31896 2.543781,-0.28864 1.650072,0.0385 1.994708,-0.0232 2.621208,-0.46931 1.145708,-0.81582 1.478339,-0.51464 1.318778,1.19411 -0.17544,1.87876 -0.806701,3.52019 -1.573564,4.09169 -0.616324,0.45929 -0.630597,0.45945 -3.374638,0.0386 -2.303493,-0.3533 -2.873509,-0.37527 -3.473652,-0.13386 -1.53418,0.61713 -1.596817,0.61214 -1.415832,-0.11281 z M 7.7250734,173.30806 c -0.1911764,-0.33703 0.5104456,-3.04966 0.9891302,-3.82419 0.7735312,-1.25161 1.4305624,-1.46965 4.2417944,-1.40768 2.087276,0.046 2.565547,-0.0118 3.187673,-0.38606 0.402564,-0.24211 0.80267,-0.36947 0.889111,-0.28304 0.297099,0.2971 -0.396291,2.62832 -1.05028,3.53112 -0.829337,1.14488 -1.857782,1.50867 -3.728891,1.319 -1.598769,-0.16205 -2.8475818,0.117 -3.4366566,0.76792 -0.4176975,0.46155 -0.9171521,0.59098 -1.091881,0.28293 z m 52.7051136,-0.51157 c -1.024373,-0.4742 -1.872837,-0.55265 -2.675724,-0.24739 -0.313786,0.11931 -0.681925,0.12293 -0.866991,0.009 -0.273133,-0.16881 -0.257329,-0.38008 0.104766,-1.40102 0.491883,-1.38682 1.554735,-3.0236 2.181064,-3.3588 0.59233,-0.317 1.664334,-0.28966 2.09572,0.0534 0.240073,0.19095 0.403108,0.84382 0.496808,1.98946 0.07674,0.93788 0.204643,2.08893 0.284286,2.55786 0.1253,0.73767 0.08716,0.85035 -0.282824,0.83576 -0.235199,-0.01 -0.836899,-0.20631 -1.337109,-0.43787 z m 140.650833,-4.74317 c -0.38889,-0.491 -0.70706,-0.99167 -0.70706,-1.11259 0,-0.12093 0.79293,-0.58853 1.76208,-1.03913 0.96915,-0.45061 2.8364,-1.33117 4.14942,-1.9568 2.21592,-1.0558 3.39643,-1.3947 3.42041,-0.9819 0.004,0.0938 0.0938,0.60439 0.19644,1.13467 0.12501,0.64584 0.10286,1.03242 -0.0667,1.17101 -0.29586,0.24166 -6.87225,3.30448 -7.57243,3.5267 -0.37234,0.11818 -0.62793,-0.0423 -1.18212,-0.74196 z m -154.8612,-0.2565 c 0,-0.87806 1.217334,-3.47834 2.024578,-4.32454 0.88185,-0.92443 2.029013,-1.35865 3.594817,-1.36072 0.739571,-8.7e-4 1.135767,-0.15701 1.735258,-0.68337 1.195439,-1.0496 1.450309,-0.92592 1.634414,0.79316 0.208707,1.94891 -0.02922,3.3937 -0.684556,4.15631 -0.518507,0.6034 -0.617614,0.62441 -3.499868,0.74156 -2.596632,0.10554 -3.051314,0.18347 -3.64888,0.62526 -0.843936,0.62395 -1.155763,0.63808 -1.155763,0.0523 z m -37.1969,-2.75465 c 0.291882,-1.82529 1.575257,-3.71508 2.741694,-4.03715 0.550508,-0.152 1.404748,-0.10812 2.922628,0.15009 1.846988,0.31421 2.275178,0.32182 3.084148,0.0548 0.516676,-0.17053 1.006592,-0.24284 1.088719,-0.16072 0.240261,0.24026 -0.416048,1.9535 -1.121304,2.92707 -0.911567,1.25839 -1.885599,1.62387 -3.532353,1.32544 -2.175744,-0.3943 -3.107608,-0.35187 -4.013598,0.18268 -1.1904119,0.70235 -1.3437003,0.64442 -1.169934,-0.44226 z m 185.04111,-0.67225 c -0.77684,-1.74836 -0.76858,-2.04498 0.0694,-2.49346 0.30599,-0.16376 0.55635,-0.39522 0.55635,-0.51433 0,-0.11914 -0.80795,-1.96908 -1.79545,-4.11102 -2.88942,-6.26728 -7.08459,-15.23759 -7.16277,-15.31576 -0.0396,-0.0396 -1.9526,0.79625 -4.25103,1.85753 -2.29844,1.06127 -4.24075,1.85678 -4.31626,1.7678 -0.0755,-0.089 -0.4204,-0.98031 -0.76642,-1.98073 -0.8737,-2.52599 -2.91301,-7.00531 -4.2138,-9.2555 -0.59945,-1.03699 -1.00665,-1.97492 -0.90489,-2.0843 0.10353,-0.11129 0.95695,0.12247 1.93767,0.53075 1.43884,0.59899 1.99145,0.71602 3.08646,0.6536 1.18022,-0.0673 1.42578,-0.003 2.13202,0.56076 1.24359,0.99214 3.0585,1.74587 4.20989,1.74835 0.93656,0.002 1.12918,0.10552 2.14501,1.1527 1.20767,1.24492 2.98158,2.3734 4.78384,3.04325 0.62525,0.2324 1.53619,0.77903 2.02431,1.21474 0.93765,0.83699 3.59051,2.15966 4.88398,2.43504 0.42317,0.09 1.21259,0.50211 1.75426,0.91558 1.19411,0.91149 3.08492,1.64682 4.73252,1.84046 0.67189,0.079 1.31062,0.2075 1.41937,0.28564 0.21279,0.15284 3.0794,6.20276 2.97989,6.28895 -0.0329,0.0284 -0.68885,0.36707 -1.45772,0.75244 -2.06642,1.0357 -2.76983,2.10759 -2.03897,3.1071 0.30172,0.41262 0.43089,0.37621 3.14592,-0.8867 1.63305,-0.75962 3.05719,-1.28417 3.36509,-1.23945 0.414,0.0602 0.68381,0.41975 1.20217,1.60232 0.3676,0.83864 0.60564,1.68827 0.52898,1.88805 -0.0767,0.19979 -1.29153,0.91257 -2.69968,1.58396 -7.83315,3.73474 -13.48837,6.25782 -14.02627,6.25782 -0.53744,0 -0.69588,-0.19216 -1.32389,-1.60559 z M 47.660651,161.07259 c -0.205999,-0.53683 0.123932,-3.23275 0.508194,-4.1524 0.396834,-0.94976 1.39399,-2.31298 1.691869,-2.31298 0.113993,0 0.778233,-0.21363 1.476074,-0.47473 0.979024,-0.3663 1.397048,-0.67787 1.830307,-1.3642 0.308829,-0.48921 0.706341,-0.88946 0.883364,-0.88946 0.463259,0 1.315601,2.37062 1.436475,3.99526 0.145063,1.94996 -0.330166,2.46003 -2.848382,3.05717 -2.243759,0.53207 -3.484649,1.126 -4.0019,1.91542 -0.434413,0.663 -0.777777,0.74248 -0.976001,0.22592 z M 16.09382,158.54737 c -1.73933,-0.6651 -2.423809,-0.7479 -3.267625,-0.39534 -0.646117,0.26998 -0.851112,0.27796 -1.086536,0.0424 -0.235338,-0.23551 -0.140742,-0.59926 0.500598,-1.92489 1.348521,-2.78741 2.242789,-3.09582 5.254452,-1.81208 2.312749,0.98582 2.799984,1.09426 3.724956,0.82898 1.202847,-0.34498 1.250445,0.0614 0.163411,1.39506 -1.810062,2.22063 -3.137177,2.6888 -5.289256,1.8659 z m 4.661004,-5.52066 c -2.327709,-1.35017 -2.971205,-1.60262 -4.085026,-1.60262 -1.408984,0 -1.444982,-0.21829 -0.292801,-1.77555 0.932698,-1.2606 2.367918,-2.31704 3.147816,-2.31704 0.273836,0 1.097459,0.43867 1.830257,0.97484 2.263422,1.65606 3.013356,2.03794 4.059323,2.0671 0.542731,0.015 1.05089,0.0916 1.129245,0.17 0.193411,0.19348 -1.758047,1.88771 -2.668127,2.31644 -1.323213,0.62334 -2.248384,0.67281 -3.120687,0.16683 z m 28.193389,-0.61844 c 0,-0.0904 0.26134,-1.49986 0.580773,-3.13215 0.319424,-1.63227 0.686892,-3.51509 0.816592,-4.18404 l 0.23582,-1.21627 0.608203,0.5827 c 1.063333,1.01874 2.105244,2.96873 2.11901,3.96583 0.0069,0.5011 -0.05809,1.02536 -0.144369,1.16504 -0.215522,0.34871 -4.216022,3.02352 -4.216022,2.81889 z m -22.850287,-4.13934 c -0.37515,-0.2338 -0.989043,-0.75412 -1.364196,-1.15629 -0.810568,-0.86892 -1.708351,-1.37271 -2.446279,-1.37271 -0.294934,0 -0.720605,-0.1348 -0.945932,-0.29957 -0.379071,-0.27718 -0.329882,-0.3698 0.658569,-1.23987 1.351022,-1.18921 2.751044,-1.87105 3.84186,-1.87105 0.728339,0 0.988296,0.15471 1.803987,1.07357 1.401601,1.57891 2.02493,2.19813 2.639811,2.62242 l 0.549956,0.37951 -0.424176,0.94065 c -0.242616,0.53802 -0.654659,1.02828 -0.962655,1.14537 -0.916188,0.34834 -2.616469,0.23567 -3.350945,-0.22203 z m 190.979534,-2.05294 c -0.25445,-0.10879 -0.57619,-0.33716 -0.71497,-0.50747 -0.31752,-0.3896 -1.42511,-3.01009 -1.31803,-3.11835 0.0435,-0.0442 0.87887,0.17881 1.85596,0.49547 2.0413,0.66161 3.88176,1.06274 4.87607,1.06274 1.04767,0 0.7053,0.46756 -0.95604,1.30563 -1.56683,0.79038 -2.9961,1.08136 -3.74299,0.76198 z m -8.21981,-0.49935 c -1.38899,-0.40187 -1.66271,-1.06803 -1.66271,-4.04648 0,-2.23225 -0.0728,-2.77989 -0.46658,-3.5148 -0.25663,-0.4788 -0.43567,-0.96299 -0.3979,-1.07599 0.0378,-0.11299 0.83482,0.4206 1.77119,1.18574 0.93637,0.76514 2.22739,1.72695 2.86895,2.13734 1.14227,0.73071 1.16862,0.77263 1.27236,2.0237 0.0817,0.9855 0.24453,1.42218 0.71208,1.91022 0.74069,0.7731 0.77451,1.3054 0.0946,1.48762 -0.75165,0.20144 -3.35513,0.13476 -4.19197,-0.10735 z M 54.50009,143.87138 c -2.081717,-2.17728 -2.912935,-3.63617 -4.052354,-7.11241 -1.435874,-4.38068 -2.072323,-4.97776 -5.137385,-4.8196 -1.353859,0.0698 -2.566304,0.31279 -4.048685,0.81126 -1.163833,0.39134 -2.249794,0.71154 -2.413239,0.71154 -0.25243,0 -1.760608,-0.64282 -7.916659,-3.37425 -0.467676,-0.20751 -0.851352,-0.45894 -0.852625,-0.55873 -0.006,-0.49761 1.82774,-2.9738 3.373041,-4.55393 6.657869,-6.80797 15.256556,-11.20846 24.995017,-12.79152 2.525433,-0.41053 12.184309,-0.69116 13.543177,-0.3935 l 0.873987,0.19145 -1.093342,1.47506 c -4.844359,6.5357 -9.439118,15.95736 -13.969786,28.64532 -0.647474,1.81325 -1.250034,3.37679 -1.339017,3.47454 -0.08897,0.0978 -0.971935,-0.66959 -1.96213,-1.70524 z m -3.371365,-14.30331 c 0.967424,-0.24361 3.27627,-1.9991 3.27627,-2.49108 0,-0.11227 -0.751867,-0.18986 -1.670816,-0.17241 -1.352259,0.0257 -1.845011,-0.0662 -2.584452,-0.48173 -0.959673,-0.53936 -1.65625,-1.64916 -1.65625,-2.63876 0,-1.31864 1.082033,-3.00085 2.356625,-3.6638 1.342669,-0.69834 -0.507377,-1.08663 -2.552949,-0.53581 -1.242488,0.33456 -2.730618,1.51521 -3.300374,2.61844 -0.691887,1.33969 -0.768075,3.43678 -0.167619,4.61376 1.212935,2.37755 3.616,3.4271 6.299569,2.75138 z m -19.571489,14.36088 c -0.256631,-0.80856 -1.453043,-2.0121 -2.153041,-2.16585 -1.042762,-0.22902 -1.014136,-0.7105 0.0873,-1.46831 2.113702,-1.45426 4.684869,-1.98743 5.045987,-1.04636 0.09955,0.25939 -2.102426,4.41191 -2.640584,4.97967 -0.100837,0.10639 -0.253686,-0.0283 -0.339662,-0.29915 z m 170.687984,-0.1331 c -2.19688,-0.59145 -3.23546,-1.40573 -3.23546,-2.53672 0,-0.28291 0.25578,-1.39705 0.56843,-2.47586 0.6169,-2.12887 0.69833,-3.13084 0.33258,-4.09282 -0.59418,-1.56282 1.01746,-0.92303 3.21794,1.27745 1.26964,1.26965 1.5046,2.1108 1.18566,4.2449 -0.16103,1.07697 -0.141,1.6652 0.078,2.29406 0.61235,1.75803 0.29733,1.94713 -2.14726,1.28899 z m 19.50114,-1.91492 c -5.11428,-0.65146 -10.09733,-3.12192 -13.918,-6.90018 -1.27642,-1.26223 -1.31716,-1.2823 -2.32326,-1.1444 -0.91879,0.12594 -1.10569,0.0687 -1.81806,-0.55677 -1.27081,-1.11578 -2.69636,-1.85058 -3.8999,-2.01022 -0.81405,-0.10796 -1.34767,-0.35303 -1.9608,-0.90053 -1.11484,-0.99549 -2.30061,-1.58052 -4.13988,-2.04252 -0.95294,-0.23938 -1.59594,-0.53442 -1.73631,-0.79669 -0.57115,-1.06723 -3.41666,-2.45758 -5.73636,-2.80284 -0.85905,-0.12787 -1.29909,-0.36824 -2.10113,-1.14775 -1.20429,-1.17043 -4.01909,-2.29338 -6.34626,-2.53181 -0.92344,-0.0946 -1.605,-0.29157 -1.81607,-0.52479 -0.40943,-0.45242 -3.99712,-8.10993 -3.99712,-8.53139 0,-0.22917 2.65063,-1.72021 3.05802,-1.72021 0.0451,0 1.58488,-0.7162 3.42191,-1.59156 1.83703,-0.87537 3.38432,-1.59156 3.43842,-1.59156 0.0541,0 0.82913,-0.36116 1.7223,-0.80257 0.89317,-0.44142 1.69722,-0.72279 1.78678,-0.62526 0.0896,0.0975 1.13497,2.27477 2.32316,4.83832 1.18817,2.56355 2.5931,5.58184 3.12205,6.7073 0.52895,1.12545 1.31,2.78807 1.73567,3.69469 0.42566,0.90663 0.90718,1.6484 1.07003,1.6484 0.16286,0 1.13181,-0.36217 2.15325,-0.80481 1.29644,-0.56182 2.19061,-1.13825 2.96151,-1.90916 l 1.10438,-1.10436 0.13811,-3.2634 c 0.22762,-5.37956 1.40237,-9.04416 4.17542,-13.02502 1.1748,-1.68648 1.8478,-2.22672 1.44098,-1.15671 -0.12597,0.33152 -0.22918,0.94892 -0.22918,1.37201 0,1.2612 1.06127,4.21723 2.06124,5.74133 0.90268,1.37582 0.93024,1.47281 0.80774,2.84207 -0.0699,0.7797 -0.19128,2.64541 -0.27,4.14603 l -0.14312,2.72839 0.8379,0.4442 c 2.75321,1.45956 4.68445,5.60865 3.97913,8.54879 -0.32206,1.34249 -0.17683,1.60161 1.88143,3.35848 1.60671,1.37138 4.91883,3.06367 6.71571,3.43132 1.7302,0.35399 4.96028,0.30362 6.51614,-0.10163 3.36946,-0.87762 6.67538,-3.62771 8.18491,-6.80876 1.37337,-2.89412 1.79232,-4.9565 1.66228,-8.18326 -0.0925,-2.29183 -0.22818,-3.08495 -0.83767,-4.89065 -1.18568,-3.51282 -2.78594,-6.00633 -5.38041,-8.38369 -1.38664,-1.27061 -1.59605,-1.57942 -2.05715,-3.03376 -0.28234,-0.89052 -0.8651,-2.14009 -1.29501,-2.776823 -0.77459,-1.147183 -0.78064,-1.17572 -0.6666,-3.147129 0.0632,-1.094207 0.19165,-1.989463 0.28534,-1.989463 0.81275,0 4.63312,1.85172 6.6597,3.227959 5.25705,3.569996 9.50061,10.123016 10.72081,16.555366 0.46895,2.47214 0.46577,7.54336 -0.006,10.03335 -1.55738,8.21475 -7.69972,14.94886 -15.42199,16.90777 -2.40341,0.60968 -5.69623,0.84999 -7.86368,0.57391 z m -26.73828,-1.35958 c -0.87292,-0.399 -1.62181,-0.94185 -2.02055,-1.46462 -0.57653,-0.75587 -0.62103,-0.94785 -0.49431,-2.13261 0.0766,-0.7161 0.28232,-1.87453 0.45717,-2.57433 0.27421,-1.0974 0.27297,-1.39441 -0.009,-2.15998 -0.52428,-1.42303 -0.49704,-1.57603 0.27065,-1.51943 1.06936,0.0788 3.11349,1.23745 3.68844,2.09062 0.66526,0.98718 0.65181,1.59418 -0.0938,4.23375 -0.54557,1.93147 -0.57993,2.25287 -0.31816,2.97678 0.16142,0.44634 0.20642,0.89529 0.10005,0.99766 -0.10637,0.10239 -0.81756,-0.0992 -1.58039,-0.44784 z m -7.18152,-4.16608 c -1.03795,-0.70284 -1.57874,-1.25876 -1.95234,-2.00693 -0.50421,-1.00976 -0.50834,-1.07468 -0.17053,-2.68061 0.42991,-2.04374 0.4304,-2.47239 0.004,-3.29045 -0.48693,-0.93365 -0.42716,-1.28136 0.22024,-1.28136 0.87653,0 3.0587,0.89865 3.80808,1.56823 0.84178,0.75212 0.87658,1.51746 0.18163,3.99413 -0.48067,1.71299 -0.51533,2.9437 -0.11708,4.15754 0.25857,0.78809 -0.3339,0.64986 -1.97376,-0.46055 z m -6.66503,-3.48481 c -2.50606,-1.27859 -3.13938,-2.39812 -2.92612,-5.17257 0.13256,-1.72447 0.096,-2.02194 -0.33843,-2.75832 -0.57985,-0.98281 -0.6209,-1.48151 -0.12191,-1.48151 0.8197,0 3.15161,0.74342 3.98794,1.27138 1.35954,0.85824 1.46372,1.27735 0.99599,4.00677 -0.37155,2.16811 -0.37394,2.4028 -0.0328,3.219 0.70361,1.6835 0.3484,1.89128 -1.56466,0.91525 z m 39.93539,-1.35339 c -0.66982,-0.18239 -1.30928,-0.38814 -1.42104,-0.4572 -0.76255,-0.47129 0.79179,-1.38719 2.70114,-1.59167 1.15662,-0.12385 1.6234,-0.29493 2.20993,-0.80992 1.3385,-1.17522 1.62545,-0.90923 1.74851,1.62076 l 0.072,1.47787 -2.04629,0.0459 c -1.2293,0.0275 -2.53254,-0.0865 -3.26415,-0.28573 z m -46.59769,-0.7857 c -1.62504,-0.5753 -3.23242,-1.76717 -3.84963,-2.8545 -0.3937,-0.69357 -0.50869,-1.26118 -0.51157,-2.52559 -0.004,-1.4219 -0.0796,-1.72106 -0.5952,-2.33386 -0.91254,-1.0845 -0.62701,-1.37828 1.33959,-1.37828 2.19753,0 3.69776,0.50858 4.16489,1.41187 0.2996,0.57939 0.31723,1.0146 0.11644,2.87538 -0.23849,2.21025 -0.099,3.60484 0.42359,4.2345 0.14774,0.17804 0.2346,0.47523 0.19302,0.66047 -0.065,0.28936 -0.24543,0.27668 -1.28113,-0.0899 z m 54.64041,-1.19126 c 0.33187,-2.47197 1.27941,-3.79064 3.15912,-4.39647 0.63632,-0.2051 1.39604,-0.52296 1.68825,-0.70635 0.29222,-0.1834 0.58029,-0.28448 0.64015,-0.22462 0.19852,0.19853 -1.32991,2.97963 -2.23147,4.06031 -0.83182,0.99708 -2.73911,2.4608 -3.20657,2.4608 -0.12173,0 -0.14253,-0.50061 -0.0495,-1.19367 z m -11.85995,-0.74302 c -0.25603,-0.66724 0.0969,-3.68338 0.54949,-4.69496 0.54865,-1.22646 0.93535,-1.55942 2.73805,-2.35741 1.15336,-0.51053 1.52304,-0.80689 1.88039,-1.50735 0.24465,-0.47954 0.59749,-0.87189 0.7841,-0.87189 0.50895,0 1.49819,2.4161 1.63408,3.99105 0.16084,1.86312 -0.2944,2.36788 -2.84582,3.15599 -2.27635,0.70314 -3.05608,1.08861 -3.60719,1.78323 -0.61685,0.77749 -0.96758,0.93267 -1.1331,0.50134 z m -50.77249,-2.77025 c -0.43175,-0.56544 -1.45491,-1.74565 -2.27366,-2.62272 -0.81877,-0.87708 -1.52276,-1.68416 -1.56444,-1.79352 -0.0417,-0.10935 0.65681,-0.19882 1.55221,-0.19882 1.48277,0 1.68522,0.0572 2.26939,0.64139 0.54588,0.54588 0.66508,0.89418 0.80047,2.33884 0.24926,2.66005 0.15267,2.86145 -0.78397,1.63483 z m 60.56718,-1.567 c -0.0861,-0.57449 -0.10672,-1.74138 -0.0459,-2.59309 0.14832,-2.07409 0.71415,-2.95954 2.4987,-3.91069 1.13248,-0.60361 1.46315,-0.91678 1.82016,-1.72386 0.30027,-0.67881 0.55461,-0.96347 0.81588,-0.91315 0.61157,0.11777 2.08822,3.22254 2.08822,4.39058 0,1.34207 -0.55093,1.88047 -3.01631,2.9477 -1.84608,0.79915 -3.34995,1.97873 -3.34995,2.62758 0,0.12071 -0.14716,0.21946 -0.3271,0.21946 -0.21439,0 -0.38111,-0.36 -0.48375,-1.04453 z m -12.172,-2.63631 c -0.14658,-0.27373 -0.31599,-1.3736 -0.37665,-2.44417 -0.13387,-2.3613 0.19166,-3.30823 1.45552,-4.23412 1.54536,-1.13217 2.10154,-1.73851 2.25845,-2.46217 0.14157,-0.65292 0.44145,-1.03599 0.81765,-1.04455 0.0842,-0.002 0.63756,0.72531 1.22974,1.61606 0.81295,1.22284 1.10291,1.8927 1.18383,2.73471 0.1329,1.38402 -0.0896,1.65811 -2.45215,3.02088 -1.7472,1.0078 -3.18393,2.35156 -3.18393,2.97793 0,0.50831 -0.63204,0.39676 -0.93246,-0.16456 z m 9.67357,-3.38773 c -0.0842,-0.13618 -0.29361,-0.77563 -0.46547,-1.42104 -0.69305,-2.60299 -0.16488,-4.87505 1.35097,-5.81193 1.07811,-0.66631 1.96906,-1.75201 1.96906,-2.39947 0,-0.28772 0.16026,-0.6561 0.35604,-0.81862 0.30182,-0.2505 0.4397,-0.19814 0.90548,0.34394 1.76834,2.05793 2.61213,4.40663 1.89414,5.27232 -0.1724,0.20794 -1.13209,0.91038 -2.13251,1.56098 -2.00613,1.30465 -2.69288,1.95705 -3.04867,2.89614 -0.24733,0.6528 -0.56856,0.79915 -0.82904,0.37768 z m -12.89404,-4.47027 c -0.88877,-1.63426 -1.18134,-3.02909 -0.84751,-4.0406 0.22323,-0.67642 0.62248,-1.05887 2.12608,-2.03667 2.20942,-1.43681 2.87436,-2.0392 2.87436,-2.604 0,-0.23185 0.16816,-0.48606 0.37359,-0.56491 0.44451,-0.17057 0.35677,-0.25804 1.00728,1.00418 0.37634,0.73021 0.5308,1.42298 0.53953,2.41969 0.0154,1.65479 -0.21225,1.97896 -2.31735,3.31333 -1.66883,1.05782 -2.33145,1.82116 -2.33145,2.68585 0,0.50992 -0.33884,0.90312 -0.77822,0.90312 -0.0324,0 -0.32326,-0.48598 -0.64631,-1.07999 z m 10.12734,-2.83232 c -0.75642,-0.94083 -1.42709,-2.74869 -1.42709,-3.84687 0,-1.0771 0.0747,-1.24767 0.85262,-1.94394 0.46896,-0.41978 1.51441,-1.24753 2.32324,-1.83946 1.05447,-0.77169 1.53022,-1.28532 1.68129,-1.81517 0.315,-1.10479 0.76989,-0.90046 1.51857,0.6821 1.20176,2.5403 0.87469,3.58547 -1.69863,5.42805 -1.65685,1.18635 -2.08186,1.7458 -2.22232,2.92533 -0.0749,0.62961 -0.66262,0.86403 -1.02768,0.40996 z m -53.87895,-2.77938 -0.86199,-1.74206 0.84815,-0.72834 c 1.23719,-1.06241 1.59812,-2.13447 1.50191,-4.46119 l -0.0799,-1.931964 0.90947,-0.514269 c 0.50019,-0.282845 2.32641,-1.149717 4.05822,-1.926374 l 3.14878,-1.412119 0.76417,0.893573 c 0.42031,0.491473 0.73971,0.99589 0.70978,1.120949 -0.03,0.125049 -1.17686,0.790083 -2.54875,1.477875 -2.07314,1.039339 -2.56943,1.390719 -2.93892,2.080799 -0.36801,0.6873 -0.39909,0.93006 -0.18055,1.40974 l 0.26402,0.57947 3.70472,-1.71639 c 4.97372,-2.304337 6.68273,-3.035719 7.09345,-3.035719 0.36576,0 1.727,2.680069 1.727,3.400199 0,0.49641 -0.45985,0.80038 -2.84207,1.87867 -1.00042,0.45283 -2.92035,1.34316 -4.26651,1.9785 -1.34617,0.63534 -2.48389,1.15517 -2.52826,1.15517 -0.0443,0 -1.48748,0.67005 -3.2069,1.489 -4.44996,2.11949 -4.22943,2.1193 -5.27586,0.004 z m -70.61731,-0.39304 c -1.222982,-1.0994 -2.664216,-3.01889 -2.664216,-3.54825 0,-0.3237 0.67597,-1.42929 1.676494,-2.74199 1.62253,-2.128777 7.632992,-10.270945 10.050952,-13.615661 0.65181,-0.901632 1.47155,-2.369425 1.82165,-3.261758 l 0.63654,-1.622423 -0.84871,-3.218172 c -1.79355,-6.800834 -2.18924,-8.235896 -2.40155,-8.709761 -0.28394,-0.633725 -2.45364,-1.170989 -2.87037,-0.710763 -0.26023,0.287396 -0.52233,0.982016 -2.46899,6.5434 l -0.994814,2.842073 -5.426888,-0.0031 c -5.174791,-0.0029 -5.527214,-0.03111 -7.586863,-0.606872 -1.187988,-0.332098 -2.642689,-0.874792 -3.232683,-1.205983 -1.003747,-0.563455 -2.224099,-1.743727 -2.224099,-2.151047 0,-0.0993 0.821353,-1.293639 1.825238,-2.654106 7.249582,-9.824707 7.302533,-9.904238 6.894333,-10.355291 -0.504157,-0.557085 -1.884352,-0.95426 -2.494156,-0.717733 -0.265027,0.102802 -2.771735,2.364527 -5.570463,5.02606 -6.686828,6.359052 -6.05416,6.051425 -12.648506,6.150168 -2.782392,0.04166 -5.051924,-0.0096 -5.043401,-0.113685 0.0085,-0.104188 2.694277,-2.623756 5.968355,-5.59904 3.27408,-2.975284 6.468342,-5.891253 7.098364,-6.47993 0.630023,-0.588679 1.883382,-1.724686 2.785237,-2.524464 0.91015,-0.807134 1.639735,-1.639685 1.639735,-1.871148 0,-0.256713 -0.345169,-0.593101 -0.897955,-0.87511 -1.171051,-0.597427 -1.329917,-0.531226 -5.318346,2.216161 -1.770661,1.219701 -4.242532,2.913183 -5.493047,3.763293 -1.250515,0.850108 -3.194495,2.183107 -4.319958,2.962219 -5.666377,3.922604 -11.411115,7.738765 -12.054207,8.007464 -1.107814,0.462878 -10.384783,0.680888 -14.306613,0.336212 -5.312879,-0.466932 -8.312262,-1.583556 -13.087172,-4.872152 -1.955014,-1.34646 -2.400787,-1.75947 -2.461576,-2.280637 -0.100371,-0.860573 0.575085,-1.533551 2.30914,-2.300673 4.258121,-1.883734 7.716905,-3.543405 15.613317,-7.491916 10.274832,-5.137814 18.755248,-9.505949 31.030692,-15.983451 2.248307,-1.186384 5.994247,-3.103978 8.32431,-4.261322 4.466578,-2.218548 5.80435,-2.616526 7.355529,-2.188221 0.458756,0.126667 2.297272,1.21132 4.085592,2.410345 l 3.251505,2.180041 -0.111855,2.715916 c -0.142289,3.454714 -0.04476,3.634181 2.392581,4.402373 0.970008,0.305724 2.991424,0.825296 4.492044,1.154605 1.50061,0.329309 3.34883,0.74889 4.10712,0.932402 0.7583,0.18351 1.60334,0.33366 1.87787,0.33366 0.35413,0 0.70237,0.330275 1.19864,1.13683 0.38473,0.625257 0.72911,1.13683 0.76529,1.13683 0.0362,0 0.85161,-0.358102 1.81203,-0.795781 0.96043,-0.43768 2.10115,-0.795781 2.53493,-0.795781 0.52713,0 1.68656,0.471291 3.49593,1.421038 l 2.70721,1.421037 2.86004,-1.421037 c 1.6386,-0.814149 3.15836,-1.421038 3.55856,-1.421038 0.38418,0 1.38072,0.298899 2.21452,0.664222 0.83378,0.365322 1.63321,0.697845 1.7765,0.738939 0.14329,0.0411 0.61868,-0.391244 1.05641,-0.960755 0.7092,-0.922678 0.94087,-1.06363 2.12683,-1.293967 6.65572,-1.292672 10.68188,-2.408961 11.37729,-3.154446 0.64526,-0.691722 0.83237,-2.059021 0.57189,-4.179168 -0.11525,-0.937885 -0.16718,-1.80756 -0.11544,-1.932611 0.0517,-0.12505 1.63647,-1.250513 3.52164,-2.501026 l 3.42758,-2.27366 1.69796,0.02373 1.69794,0.02375 5.26429,2.67508 c 2.89536,1.471296 5.87817,3.004917 6.62849,3.408048 2.06711,1.110639 11.66377,6.129579 17.16612,8.977689 7.29298,3.774967 21.09312,10.683115 24.32815,12.178318 8.10051,3.743973 7.91692,3.643207 8.13718,4.466217 0.11192,0.418269 0.16354,0.872739 0.1148,1.009932 -0.11383,0.319868 -5.27502,3.728472 -6.7916,4.485367 -1.53128,0.76422 -4.40484,1.671891 -6.23505,1.969456 -2.21342,0.359876 -9.43062,0.519029 -13.34077,0.294192 l -3.45038,-0.1984 -2.57482,-1.715015 c -1.41615,-0.943257 -7.02552,-4.764851 -12.46525,-8.49243 -5.43973,-3.727579 -10.19807,-6.906793 -10.5741,-7.064919 -0.7771,-0.326786 -1.77807,-0.03666 -2.38135,0.690267 -0.30896,0.372263 -0.17793,0.556432 1.60199,2.251657 1.06614,1.015429 4.79862,4.444919 8.29436,7.621091 3.49575,3.176171 6.66285,6.073091 7.03801,6.437603 l 0.6821,0.662748 -5.11574,-0.07135 c -6.99676,-0.0976 -6.12079,0.370144 -14.48535,-7.734617 -1.97336,-1.912074 -3.71814,-3.415959 -4.06378,-3.502707 -0.73663,-0.184878 -2.5959,0.644404 -2.5959,1.157847 0,0.302149 2.25487,3.452477 7.32614,10.235486 0.84145,1.125462 1.53243,2.213439 1.53552,2.417728 0.007,0.463856 -1.50838,1.852203 -2.6557,2.433065 -0.47457,0.240268 -1.73253,0.670481 -2.79548,0.956026 -1.6911,0.454301 -2.6161,0.531311 -7.40222,0.61627 l -5.46963,0.0971 -0.82201,-2.350628 c -1.75879,-5.029397 -2.48058,-6.909288 -2.76142,-7.19203 -0.35376,-0.356155 -2.06354,-0.04224 -2.57934,0.473578 -0.18,0.180004 -0.52993,1.082933 -0.7776,2.006506 -0.24767,0.92357 -0.75903,2.804682 -1.13635,4.180246 -1.64328,5.990701 -1.60165,5.779265 -1.31296,6.671432 0.14801,0.457405 0.52386,1.343219 0.83522,1.968477 0.5309,1.066153 5.58263,8.097961 10.8973,15.168651 1.28911,1.71504 2.34384,3.25972 2.34384,3.43264 0,0.49756 -2.90816,3.77365 -3.47646,3.91628 -0.30703,0.077 -1.51495,-0.22827 -3.00875,-0.76054 -1.37265,-0.48912 -3.00965,-1.01058 -3.63776,-1.15882 l -1.14201,-0.26953 -3.05046,-5.3328 c -2.19502,-3.837306 -3.16464,-5.332827 -3.45755,-5.332827 -0.725,0 -2.21455,0.713558 -2.34455,1.123127 -0.13136,0.413923 0.25022,2.46029 1.02369,5.48965 0.72691,2.84705 0.94284,2.65216 -2.56276,2.31317 -2.98272,-0.28844 -7.65767,-0.21604 -10.51568,0.16286 -0.7503,0.0995 -1.39742,0.15086 -1.43803,0.11424 -0.0406,-0.0366 0.14013,-1.02242 0.40165,-2.19064 1.4613,-6.527673 1.47113,-6.160318 -0.18089,-6.762667 -1.10437,-0.402658 -1.50752,-0.250006 -2.09326,0.79264 -0.20481,0.364574 -1.22373,2.146434 -2.26426,3.959677 -1.04053,1.81323 -2.1891,3.83393 -2.55238,4.49043 -0.47724,0.86242 -0.82926,1.22871 -1.26871,1.32008 -0.33451,0.0695 -1.836,0.54073 -3.33661,1.04705 -3.648129,1.23093 -3.785443,1.24953 -4.497805,0.60913 z m 111.32992,-2.36875 c -0.89497,-1.93703 -1.05689,-3.36941 -0.48039,-4.24925 0.24145,-0.3685 1.0076,-0.77817 2.36629,-1.26528 2.43463,-0.872843 3.4128,-1.445226 3.75561,-2.197594 0.29369,-0.644577 0.7522,-0.744779 0.95769,-0.209292 0.25615,0.667509 0.14042,3.187726 -0.19894,4.330286 -0.3993,1.34459 -0.89808,1.84677 -2.75617,2.77499 -1.01541,0.50725 -1.46618,0.88232 -1.6796,1.39757 -0.16046,0.38734 -0.48631,0.8084 -0.72414,0.9357 -0.38497,0.20602 -0.5212,0.0394 -1.24035,-1.51713 z m 10.24453,-3.17357 c -0.84046,-1.43413 -1.21178,-2.540717 -1.2237,-3.646815 -0.0116,-1.132255 0.50442,-1.681601 2.21141,-2.351546 2.34757,-0.921368 3.4818,-1.616416 3.95977,-2.426521 0.25778,-0.436893 0.58393,-0.756043 0.72479,-0.709226 0.81908,0.272254 0.6222,4.860398 -0.25981,6.054928 -0.23815,0.322525 -1.08322,0.9445 -1.87796,1.38218 -1.06773,0.58803 -1.56712,1.02901 -1.9129,1.68919 -0.25736,0.49138 -0.58803,0.93214 -0.73483,0.97949 -0.14677,0.0474 -0.54585,-0.38992 -0.88677,-0.97168 z m -11.55448,-4.102932 c -0.27264,-0.710454 -0.12001,-2.499753 0.28916,-3.391898 0.57303,-1.249157 1.45456,-2.061161 2.69737,-2.484632 2.19164,-0.746773 3.99268,-0.182894 4.27828,1.339446 0.20713,1.1041 -0.0624,1.352689 -2.24731,2.073062 -2.58118,0.851004 -3.49778,1.354053 -3.90618,2.143799 -0.38326,0.741168 -0.89339,0.888157 -1.11132,0.320223 z m 9.32728,-3.562426 c -0.40184,-1.499524 0.18222,-3.633125 1.29134,-4.717539 0.87692,-0.85736 2.81188,-1.464721 4.11113,-1.290457 1.10707,0.148492 1.95731,0.998636 1.95731,1.957087 0,0.84526 -0.22588,1.004228 -2.6266,1.848484 -2.5047,0.880827 -3.11643,1.230552 -3.608,2.062715 -0.46158,0.781402 -0.93737,0.840481 -1.12518,0.13971 z M 117.64086,45.683569 c -1.47638,-0.769899 -2.87854,-1.34886 -3.26678,-1.34886 -0.37411,0 -1.60076,0.414511 -2.7259,0.921133 -1.12513,0.506623 -2.08949,0.877341 -2.14302,0.823816 -0.10311,-0.10311 0.9478,-3.780448 2.48047,-8.67961 0.50858,-1.625668 0.93401,-3.250917 0.9454,-3.611668 0.0194,-0.61286 -0.2479,-0.818184 -4.07189,-3.128392 -3.78713,-2.287951 -4.15731,-2.462167 -4.95983,-2.334236 l -0.86724,0.138244 1.58598,-2.580322 c 0.87228,-1.419178 1.82526,-2.713832 2.11775,-2.877011 0.52612,-0.293533 2.75305,-0.256643 6.5005,0.107694 l 1.42139,0.138187 1.07661,2.014858 c 0.65548,1.226713 1.2112,2.007096 1.42069,1.995013 0.87033,-0.0502 3.30055,-1.032684 3.36287,-1.359533 0.11619,-0.609291 -0.81456,-1.525669 -2.45943,-2.421453 -0.86871,-0.473092 -1.58017,-0.923594 -1.581,-1.001113 -8.4e-4,-0.07753 0.6075,-0.26076 1.35186,-0.407203 1.28157,-0.252135 1.41727,-0.234338 2.55786,0.335427 3.35112,1.674004 6.13024,3.403452 6.52917,4.063098 0.23181,0.383318 1.25957,3.971011 2.28389,7.972652 1.02433,4.001642 2.11027,8.175532 2.41319,9.275313 0.30292,1.099781 0.55076,2.138371 0.55076,2.307979 0,0.21679 -0.72591,0.01175 -2.44418,-0.690163 -1.3443,-0.549193 -2.66042,-0.999475 -2.92469,-1.000622 -0.26428,-0.0012 -1.72785,0.611801 -3.2524,1.362109 -1.52456,0.750307 -2.8942,1.357294 -3.04367,1.348859 -0.14948,-0.0083 -1.43573,-0.622322 -2.85836,-1.364196 z m -15.79198,-3.721165 c -1.78224,-0.479023 -2.299787,-0.994171 -2.380495,-2.369479 -0.101492,-1.729448 1.078675,-3.848216 3.459115,-6.210164 2.21708,-2.19985 2.41296,-2.319814 3.05442,-1.870524 0.6126,0.429079 0.61477,0.771816 0.0353,5.549873 -0.70233,5.790388 -0.49912,5.228948 -1.88616,5.210961 -0.65085,-0.0085 -1.6778,-0.148241 -2.28211,-0.310667 z m 1.2073,-23.71794 C 97.721861,12.672303 95.330872,9.2774177 95.330872,7.2755541 c 0,-2.0692312 1.864964,-4.3185542 4.728938,-5.7035427 1.59217,-0.76995738 3.96091,-1.56895508 4.6602,-1.57193096684 0.2245,-9.4527144e-4 2.32195,0.80875804684 4.661,1.79936196684 7.28296,3.0843836 3.62603,2.7462204 29.69797,2.7462204 h 22.6174 l 0.63526,0.5464198 c 0.58093,0.4997056 0.6424,0.7039492 0.71893,2.3890727 0.08,1.7624854 0.10923,1.8490712 0.67135,1.9901517 0.83737,0.2101674 2.13459,-0.1920374 4.82841,-1.4970655 1.76576,-0.8554312 2.42617,-1.0777087 2.65001,-0.8919392 0.56505,0.4689526 0.29325,1.1501706 -1.30995,3.2831807 -0.88466,1.177015 -1.57437,2.314564 -1.53315,2.528642 0.0863,0.448292 1.37346,1.375385 2.19619,1.581878 0.30792,0.07728 1.77051,-0.04517 3.25019,-0.272115 2.60206,-0.399087 2.70538,-0.399025 3.14836,0.0019 0.2519,0.22797 0.45801,0.479418 0.45801,0.558773 0,0.07935 -0.74177,0.542504 -1.6484,1.02922 -0.90662,0.486715 -1.99732,1.078435 -2.42377,1.314933 -1.48662,0.824438 -5.29368,2.24938 -6.91031,2.586457 -1.86586,0.389045 -3.38803,0.259172 -4.43667,-0.378541 -0.68669,-0.417604 -0.70688,-0.478166 -0.77133,-2.313621 l -0.0662,-1.884793 -24.44184,-0.113682 -24.44184,-0.113683 -3.10718,-1.648403 c -1.70896,-0.906622 -3.23313,-1.648403 -3.38707,-1.648403 -0.15394,0 -0.72901,0.36802 -1.27794,0.817825 -0.80165,0.656886 -0.96763,0.914158 -0.84348,1.307353 0.085,0.269242 0.95843,1.980839 1.94095,3.803551 0.98249,1.822711 1.78635,3.383011 1.78635,3.467331 0,0.08433 -0.34873,0.153307 -0.77495,0.153307 -0.69605,0 -1.05745,-0.295105 -3.55013,-2.898916 z"
       id="path1" /></g></svg>
