<svg xmlns="http://www.w3.org/2000/svg" fill="none" viewBox="0 0 128 128">
    <path d="m 34.898086,98.548081 c 0.456756,-1.653217 0.381063,-2.069768 -0.376111,-2.069768 -0.292351,0 -1.430115,-0.176862 -2.528365,-0.393023 C 27.080436,95.118242 21.619904,93.234453 16.313959,90.676081 13.034309,89.094732 11.668967,88.086396 11.077395,86.808744 10.875783,86.373317 10.577469,85.874731 10.414478,85.700775 10.002241,85.260816 8.5608397,82.502631 8.1076998,81.286652 L 7.7318914,80.27819 8.4023148,80.156708 c 0.4287736,-0.07769 0.9557462,-0.42044 1.4620089,-0.950915 0.5278863,-0.553131 0.9856883,-0.844953 1.3742523,-0.876015 0.775268,-0.06196 1.427894,-0.497137 1.979784,-1.3201 0.249497,-0.372047 0.590351,-0.677866 0.757454,-0.679596 0.58063,-0.0059 1.59922,-0.768996 2.060813,-1.54364 0.47233,-0.792664 1.320443,-1.162105 2.048403,-0.892302 0.173352,0.06425 0.504601,0.01893 0.736109,-0.100764 0.397842,-0.205646 0.420923,-0.168233 0.420923,0.682285 0,0.494919 0.173428,1.312329 0.385397,1.816461 0.211968,0.504131 0.49951,1.342548 0.638983,1.863152 0.139473,0.520605 0.467492,1.25099 0.728931,1.62308 0.443575,0.631321 0.455017,0.714503 0.171208,1.244579 -0.726821,1.357513 -0.182139,2.39581 2.195874,4.185881 1.81126,1.363436 5.238045,3.545525 8.235037,5.24386 2.789769,1.580913 2.834208,1.625173 2.977184,2.965665 l 0.122241,1.146077 3.564625,-0.08484 c 2.39652,-0.05701 3.747154,-0.17043 4.121628,-0.346042 0.969743,-0.454777 0.67557,-0.735553 -0.911462,-0.869982 -0.80766,-0.06839 -2.362498,-0.267763 -3.455195,-0.443013 -1.775547,-0.284769 -2.014836,-0.372431 -2.251225,-0.824716 -0.455389,-0.871312 -0.959321,-2.533935 -0.891098,-2.939993 0.06098,-0.362975 0.195095,-0.331965 2.009638,0.464669 4.15145,1.822605 8.324989,3.076515 11.170685,3.356152 0.751962,0.07386 1.367201,0.222638 1.367201,0.330552 0,0.107914 -0.843108,1.004388 -1.873565,1.992169 -2.168993,2.079151 -4.312486,3.435903 -6.692437,4.236056 -1.455689,0.48941 -1.954963,0.559327 -4.01067,0.561611 l -2.348,0.003 z m -12.869402,0.424521 c -0.226904,-0.16864 -0.352401,-0.639203 -0.404343,-1.516134 -0.04142,-0.699382 -0.15244,-1.435815 -0.246699,-1.636523 -0.14892,-0.317109 -0.107639,-0.346182 0.314994,-0.221831 1.06642,0.313752 1.771843,1.035449 1.915312,1.959495 0.07531,0.485003 0.217543,0.929953 0.316091,0.988779 0.09855,0.05886 0.179176,0.23381 0.179176,0.388853 0,0.360956 -1.600354,0.389784 -2.074531,0.03734 z m 3.337521,-0.195628 c -0.112447,-0.134495 -0.267885,-0.616089 -0.345419,-1.070208 -0.07753,-0.454119 -0.334044,-1.06274 -0.570022,-1.352493 l -0.42905,-0.526823 0.988051,0.130806 c 1.119582,0.148218 1.578095,0.470489 1.942926,1.365632 0.139351,0.341908 0.442848,0.769912 0.674436,0.951122 0.420827,0.329272 0.420742,0.329583 -0.146771,0.53798 -0.767959,0.282004 -1.863874,0.263334 -2.114151,-0.03601 z M 18.696871,98.39658 c -0.612621,-0.285937 -0.705525,-0.630966 -0.442036,-1.641631 0.1246,-0.477935 0.17211,-1.131844 0.10558,-1.453139 -0.140798,-0.679943 -0.03227,-0.712136 0.740889,-0.219769 0.843168,0.53696 1.175361,1.105041 1.128633,1.93009 -0.02298,0.405777 0.02493,0.935861 0.106463,1.177952 0.134113,0.398199 0.08418,0.438902 -0.523682,0.426924 -0.369561,-0.0074 -0.871692,-0.106472 -1.115847,-0.220427 z m 9.556549,-1.360093 c -0.411921,-0.553789 -0.623579,-0.960417 -0.470351,-0.903624 0.153228,0.05679 0.986022,0.255267 1.850653,0.441061 1.69359,0.36392 1.779348,0.559948 0.520107,1.188888 -0.875178,0.437113 -1.098484,0.351772 -1.900409,-0.726325 z m -12.439506,0.07733 c -1.074493,-0.529773 -1.191144,-0.862721 -0.667193,-1.904337 0.247212,-0.491458 0.449477,-1.162639 0.449477,-1.49152 0,-0.780138 0.338789,-0.666235 1.093133,0.367529 0.56079,0.768507 0.575579,0.84269 0.334076,1.675791 -0.138978,0.479428 -0.191799,1.056973 -0.117381,1.283441 0.168895,0.513965 -0.149023,0.534076 -1.092112,0.06913 z m -2.645619,-1.849814 c -1.047706,-0.683359 -1.194412,-1.290843 -0.5373,-2.22484 0.294045,-0.417948 0.534626,-1.006666 0.534626,-1.308263 0,-0.474999 0.05066,-0.522172 0.378695,-0.352615 0.208281,0.107662 0.540319,0.524716 0.737861,0.926789 0.306154,0.623136 0.321478,0.819037 0.103822,1.327264 -0.140439,0.327927 -0.312971,0.932852 -0.383402,1.344271 L 13.87454,95.724645 Z M 10.605478,92.725944 C 9.6271974,91.727095 9.5997514,91.37499 10.425739,90.420111 c 0.392922,-0.454229 0.714402,-0.993615 0.714402,-1.198625 0,-1.011886 1.041025,0.202955 1.071775,1.25073 0.0111,0.378324 -0.16105,0.899868 -0.407272,1.23385 -0.234578,0.318182 -0.457268,0.823918 -0.494867,1.123851 l -0.06836,0.545338 z M 8.2216575,90.008027 C 7.4933279,89.17202 7.5576551,88.668133 8.5070171,87.772768 8.9526225,87.352506 9.317209,86.850453 9.317209,86.657095 c 0,-0.60491 0.3472287,-0.385067 0.686925,0.434924 0.422864,1.020743 0.42709,0.992935 -0.2818287,1.854532 -0.3342046,0.406176 -0.6076441,0.897272 -0.6076441,1.091318 0,0.607453 -0.3479238,0.59583 -0.8930037,-0.02987 z M 31.822571,89.489906 30.933636,88.97257 31.436743,88.568301 c 0.276709,-0.22235 0.559936,-0.558336 0.629393,-0.746629 0.194773,-0.528014 0.428002,-0.413667 0.935653,0.458725 0.382612,0.657518 0.426373,0.885398 0.244187,1.271596 -0.273657,0.580104 -0.323694,0.577922 -1.423405,-0.06211 z m -2.141622,-1.346422 c -0.479984,-0.46359 -0.386316,-1.573667 0.194884,-2.309634 0.278504,-0.352667 0.506371,-0.786962 0.506371,-0.965096 0,-0.178142 0.0817,-0.32389 0.181565,-0.32389 0.269561,0 1.438819,1.340751 1.438819,1.649846 0,0.146754 -0.452284,0.71295 -1.005077,1.25822 -0.904391,0.892082 -1.03628,0.96126 -1.316562,0.690554 z m 16.297446,-0.287431 c -2.252314,-0.1904 -4.139178,-0.62023 -6.380256,-1.453412 -1.989275,-0.739575 -5.08027,-2.396061 -4.86286,-2.60604 0.07475,-0.07216 1.290621,-0.267238 2.701933,-0.433423 2.305912,-0.271519 2.566023,-0.340963 2.566023,-0.685105 0,-0.358915 -0.152595,-0.38296 -2.430576,-0.38296 -1.336817,0 -2.933056,0.06973 -3.547198,0.155006 l -1.116621,0.155006 -1.457886,-1.426602 c -1.658503,-1.622917 -2.964809,-3.21986 -2.739873,-3.349468 0.428304,-0.246786 3.494403,-0.758407 5.80695,-0.968963 2.705841,-0.246373 3.336201,-0.5152 2.210262,-0.942619 -0.725904,-0.275564 -4.208745,-0.107212 -6.879888,0.332548 l -1.958481,0.322433 -0.364239,-0.464381 c -0.425055,-0.541929 -1.80622,-3.83753 -1.803762,-4.303975 0.003,-0.573537 5.024498,-1.520985 8.129433,-1.53385 1.586685,-0.0067 2.145151,-0.24499 1.808008,-0.771864 -0.223807,-0.349762 -5.275842,-0.187295 -7.707736,0.247873 -2.961327,0.529906 -2.70075,0.604747 -2.965721,-0.851822 -0.127228,-0.699375 -0.241162,-1.764038 -0.253186,-2.365909 l -0.02186,-1.09432 2.88631,-0.631713 c 1.9898,-0.435501 3.660097,-0.667041 5.377514,-0.745453 2.38226,-0.108764 2.488554,-0.131663 2.430577,-0.523718 -0.05816,-0.393274 -0.167905,-0.409245 -2.693753,-0.391869 -1.769823,0.0122 -3.483039,0.164071 -5.225414,0.463302 -1.425759,0.244856 -2.644248,0.395019 -2.707752,0.333679 -0.140265,-0.135471 0.513219,-4.024945 0.743694,-4.426389 0.213723,-0.372261 1.76973,-0.708314 4.657621,-1.005911 1.281117,-0.132011 2.400651,-0.298877 2.487854,-0.370797 0.0872,-0.07194 0.100237,-0.277545 0.02897,-0.456929 -0.108057,-0.271977 -0.437239,-0.325509 -1.981484,-0.322226 -1.018544,0.0022 -2.44094,0.08615 -3.16088,0.186652 -0.719939,0.10049 -1.344868,0.148055 -1.388729,0.105688 -0.104335,-0.100771 1.134133,-2.734472 1.717111,-3.651583 0.417488,-0.656763 0.565413,-0.732432 1.836621,-0.939528 1.61417,-0.262964 1.983599,-0.440167 1.812974,-0.869627 -0.09153,-0.230379 -0.396914,-0.313191 -1.155013,-0.313191 -1.028112,0 -1.029819,-7.39e-4 -0.712013,-0.440166 0.175214,-0.242091 0.977915,-1.086327 1.78378,-1.876085 l 1.465211,-1.435918 0.166962,1.172237 c 0.153327,1.0765 0.123322,1.239011 -0.367381,1.989788 -0.605602,0.926574 -0.670719,1.67324 -0.302567,3.469441 0.24885,1.214138 0.254028,1.220704 2.736924,3.472443 2.295035,2.081362 2.947682,2.509166 3.207794,2.102664 0.05396,-0.08433 -0.212038,-0.634545 -0.591116,-1.222686 -0.750437,-1.164318 -0.854461,-1.558435 -0.411338,-1.558435 0.448109,0 2.32231,2.166599 2.582743,2.985688 0.128698,0.404764 0.333179,0.808058 0.454401,0.896208 0.472104,0.343291 3.490243,1.27794 4.004722,1.240172 0.298949,-0.02196 1.045286,0.141401 1.658518,0.363003 0.934022,0.337532 1.125216,0.488678 1.178106,0.931366 0.06124,0.512923 0.101303,0.528442 1.362669,0.528442 1.209631,0 1.323627,0.0383 1.647778,0.553804 0.376023,0.597974 0.35899,0.78053 -0.243632,2.611415 l -0.39791,1.208911 0.433232,0.972683 c 0.52074,1.169146 0.935645,1.558812 2.520174,2.366855 2.191217,1.117426 2.16084,1.025519 1.525468,4.615087 -0.223192,1.260971 -0.39938,2.656253 -0.391525,3.100619 0.0079,0.444366 -0.07211,1.287027 -0.177735,1.87258 -0.207513,1.150558 -0.01294,2.055498 0.481361,2.238704 0.270541,0.100268 0.656011,-0.38086 3.897665,-4.864886 0.368253,-0.509388 0.838606,-0.96886 1.045232,-1.021046 0.206626,-0.0522 0.862368,-0.758703 1.457205,-1.570029 0.594837,-0.811325 1.394791,-1.68076 1.777682,-1.932071 0.383166,-0.251496 1.493759,-1.573775 2.4702,-2.941034 1.416616,-1.983621 1.735033,-2.554512 1.580426,-2.833521 -0.3012,-0.543592 -2.340749,-2.073517 -3.077102,-2.308236 -0.364112,-0.116062 -0.752024,-0.409171 -0.862032,-0.651351 -0.246012,-0.541596 -2.448497,-1.994387 -4.780105,-3.153034 -1.512155,-0.751428 -1.976583,-0.885531 -3.487973,-1.007131 -2.079616,-0.16731 -2.607384,-0.0661 -2.958337,0.567245 -0.175583,0.316881 -0.558343,0.548628 -1.139584,0.689985 -1.380927,0.335853 -1.603032,0.284192 -1.818576,-0.422947 -0.135791,-0.445482 -0.334409,-0.65504 -0.663551,-0.700084 -0.407794,-0.05582 -0.461228,-0.158392 -0.405099,-0.777632 0.07948,-0.876857 -0.39507,-1.061616 -1.064945,-0.41462 -0.268374,0.259208 -0.790454,0.467916 -1.312725,0.524767 -0.860409,0.09367 -0.868822,0.08853 -1.084841,-0.662878 -0.2758,-0.959374 -0.283838,-2.917486 -0.01393,-3.404508 0.233374,-0.421171 1.13235,-0.680705 3.005096,-0.867549 1.058422,-0.105599 1.355075,-0.06876 1.671019,0.207377 0.21128,0.18467 0.384146,0.44742 0.384146,0.583882 0,0.414362 1.023307,1.451919 1.431981,1.451919 0.732687,0 0.696002,-0.861331 -0.09486,-2.227236 -0.40121,-0.692927 -0.729472,-1.381758 -0.729472,-1.530738 0,-0.148972 0.364587,-0.614707 0.81019,-1.034969 0.597393,-0.563416 0.810189,-0.92182 0.810189,-1.36453 0,-0.493418 0.297778,-0.883106 1.671027,-2.186806 0.936878,-0.889435 1.915731,-1.641218 2.228023,-1.711171 0.30636,-0.06862 0.557012,-0.210342 0.557012,-0.314907 0,-0.282262 -3.960331,-2.149984 -4.55885,-2.149984 -0.505376,0 -0.509327,0.01109 -0.206228,0.577175 0.354497,0.662117 0.401401,1.183491 0.106471,1.183491 -0.111401,0 -0.393302,0.184241 -0.626438,0.409415 l -0.423893,0.409415 -0.740755,-0.57455 c -0.407418,-0.316001 -1.180778,-0.762408 -1.718575,-0.992018 -1.304205,-0.556813 -1.206683,-0.944564 0.423349,-1.683355 0.694862,-0.314944 1.26338,-0.647248 1.26338,-0.738459 0,-0.637591 -4.483591,-0.508102 -7.790325,0.224996 -1.529248,0.339026 -1.858487,0.360564 -2.090257,0.136706 -0.23177,-0.22385 -0.10538,-0.331631 0.802416,-0.684246 2.919453,-1.134018 7.185309,-1.701116 10.506242,-1.396687 3.265294,0.29932 5.685512,0.964025 8.558055,2.350441 1.935865,0.934331 2.313036,1.216075 1.451502,1.084279 -2.667777,-0.408129 -4.753549,-0.286765 -4.753549,0.276591 0,0.284798 0.404311,0.389156 2.586992,0.667743 3.928447,0.501411 5.413884,0.924741 6.379095,1.817954 0.952533,0.881487 3.009,3.232578 2.910613,3.327612 -0.03766,0.03638 -0.74293,-0.07562 -1.567189,-0.248946 -0.824268,-0.17332 -2.751933,-0.363247 -4.283702,-0.422066 -2.71299,-0.104173 -2.785042,-0.09651 -2.785042,0.296111 0,0.354457 0.164851,0.418584 1.3672,0.531844 2.259303,0.212818 4.910186,0.654959 6.734725,1.123289 l 1.72166,0.441919 0.857316,1.670349 c 0.471524,0.918693 0.913246,1.940463 0.981608,2.270601 l 0.1243,0.600252 -2.399449,-0.465431 c -1.333433,-0.258654 -3.59178,-0.519947 -5.083211,-0.588134 -2.61997,-0.119788 -2.683762,-0.113082 -2.683762,0.282285 0,0.357066 0.161773,0.419966 1.3672,0.53154 2.225681,0.206009 4.87298,0.657843 7.107641,1.213111 1.671203,0.415263 2.127677,0.604562 2.258354,0.936526 0.142221,0.361296 0.60733,3.52196 0.608922,4.137961 4.13e-4,0.15979 -0.351251,0.149424 -1.274931,-0.03756 -1.681369,-0.340408 -5.312482,-0.695478 -5.688199,-0.556228 -0.399495,0.148062 -0.585053,0.662308 -0.273978,0.759272 0.137376,0.04281 1.206814,0.222889 2.376529,0.400151 1.169716,0.177254 2.74522,0.49568 3.501117,0.707604 1.369115,0.383839 1.373992,0.387706 1.27484,1.010769 -0.05474,0.344001 -0.155006,1.065624 -0.222802,1.603604 -0.06783,0.53798 -0.207215,1.290968 -0.309819,1.6733 l -0.186546,0.695152 -1.37011,-0.147116 c -2.082709,-0.223644 -2.483291,-0.201336 -2.621279,0.14597 -0.167231,0.42092 0.0905,0.545988 1.987232,0.964402 1.573842,0.34718 1.615479,0.371188 1.491638,0.86028 -0.07005,0.276732 -0.587724,1.41247 -1.150347,2.523878 -0.893273,1.764577 -1.077752,2.008028 -1.455253,1.92047 -2.046844,-0.474733 -5.788462,-0.814564 -5.830207,-0.529522 -0.01669,0.11411 -0.0395,0.306928 -0.05068,0.428477 -0.01179,0.128617 0.944051,0.412934 2.286418,0.680106 3.393728,0.675462 3.181154,0.535592 2.404839,1.582362 -0.3633,0.489875 -1.381195,1.546117 -2.26199,2.347216 -1.262728,1.148473 -1.69596,1.433619 -2.048367,1.348197 -1.017045,-0.246549 -3.325426,-0.498105 -4.604024,-0.501728 -1.214707,-0.0037 -1.367202,0.038 -1.367202,0.37184 0,0.253795 0.180759,0.410066 0.557012,0.481557 0.306352,0.05819 1.360426,0.254454 2.342387,0.436085 2.113659,0.390968 2.102383,0.424669 -0.570095,1.70323 -3.951788,1.890607 -8.181817,2.649421 -12.659253,2.270905 z M 6.6454923,87.546219 C 6.1993671,87.070089 5.8373827,86.129599 6.001522,85.87309 c 0.071792,-0.112195 0.4929064,-0.520191 0.935814,-0.906663 0.4429069,-0.386479 0.8725329,-0.878262 0.9547246,-1.092856 0.1480738,-0.386612 0.1513473,-0.386671 0.3582341,-0.0059 0.1148365,0.211207 0.2703872,0.661304 0.345667,1.000203 0.1153249,0.519185 0.031402,0.731878 -0.5330426,1.350985 -0.368454,0.404136 -0.7619865,0.949421 -0.874518,1.211735 C 6.990798,87.891226 6.9722284,87.89519 6.6454923,87.546486 Z M 27.86874,85.865371 c -0.530885,-0.792738 -0.59872,-1.475942 -0.204095,-2.055542 0.200925,-0.295113 0.420165,-0.84468 0.487202,-1.221266 l 0.121883,-0.684705 0.750415,0.714044 c 0.412728,0.392734 0.747879,0.876917 0.74478,1.075968 -0.0031,0.199059 -0.276539,0.70773 -0.607644,1.13038 -0.331105,0.422658 -0.602009,0.928852 -0.602009,1.124879 0,0.488182 -0.334697,0.44759 -0.690532,-0.08376 z M 0.11515037,85.764651 C 0.05181759,85.703503 0,85.597763 0,85.529724 c 0,-0.252095 2.8928474,-2.930122 3.0584045,-2.831303 0.094511,0.05642 0.3105144,0.553604 0.4800063,1.104849 0.1694927,0.551253 0.4599332,1.164244 0.6454233,1.362209 0.1854909,0.197964 0.2998366,0.391632 0.254102,0.430369 -0.1479413,0.125305 -4.20383983,0.283689 -4.32278573,0.168803 z M 4.9808132,84.495953 c -0.162126,-0.242091 -0.3549239,-0.676572 -0.4284406,-0.965518 -0.118428,-0.465461 -0.017209,-0.606152 0.88788,-1.23419 0.5618505,-0.389866 1.0862295,-0.901739 1.1652879,-1.137508 0.1373662,-0.409652 0.1553655,-0.402635 0.4058297,0.15823 0.4621663,1.034924 0.3468934,1.540549 -0.5298335,2.324022 -0.4456054,0.398206 -0.8101918,0.852517 -0.8101918,1.009578 0,0.425076 -0.3556519,0.345443 -0.6905317,-0.154614 z M 25.738301,83.638142 c -0.534302,-0.656054 -0.532217,-1.316788 0.0068,-2.159168 0.234633,-0.366678 0.379887,-0.839245 0.322784,-1.050148 -0.147953,-0.546454 0.308016,-0.482593 0.944646,0.132291 0.686964,0.663507 0.668948,1.139845 -0.08369,2.212737 -0.335668,0.478496 -0.564736,0.98469 -0.509041,1.124871 0.174,0.437949 -0.242233,0.278802 -0.681512,-0.260583 z m -1.858637,-1.676885 c -0.515265,-0.401379 -0.991737,-1.184201 -0.991737,-1.629373 0,-0.224922 0.275851,-0.664202 0.613002,-0.97618 0.337152,-0.311986 0.686705,-0.834646 0.776787,-1.161479 l 0.163782,-0.59424 0.437745,0.684705 c 0.554878,0.867926 0.556356,1.564128 0.0047,2.241425 -0.238976,0.293434 -0.489628,0.793314 -0.557006,1.110845 -0.106087,0.499954 -0.166041,0.543415 -0.447332,0.324297 z M 3.475829,81.503389 c -0.1292829,-0.274055 -0.2350601,-0.756448 -0.2350601,-1.07199 0,-0.475303 0.1433635,-0.644349 0.8357738,-0.985526 0.4596748,-0.226505 1.0466165,-0.631558 1.3043142,-0.900119 L 5.8493978,78.05746 5.9852115,78.75668 C 6.1809016,79.764173 5.9538555,80.386643 5.265222,80.730586 4.9336807,80.89618 4.5143584,81.249911 4.3333953,81.516669 3.9187558,82.127871 3.7693324,82.125556 3.475829,81.503359 Z m 18.117767,-2.712002 c -0.564511,-1.148991 -0.439352,-1.71705 0.500164,-2.270091 0.45442,-0.267497 0.948424,-0.706436 1.097786,-0.975426 l 0.271567,-0.489077 0.218777,0.55072 c 0.425719,1.071642 0.278715,1.675687 -0.591415,2.430139 -0.445606,0.386369 -0.810193,0.814897 -0.810193,0.952291 0,0.540191 -0.37734,0.431079 -0.686686,-0.198556 z m -14.143955,0.2634 C 7.2579891,78.946903 7.0022879,78.503904 6.8814159,78.070348 6.7605439,77.636799 6.6113716,77.155522 6.549922,77.000857 6.36929,76.54622 7.485893,76.666778 8.3821069,77.198681 c 0.4326059,0.256753 0.9111263,0.420654 1.0633776,0.364231 0.5461723,-0.202431 0.2659762,0.494815 -0.4391459,1.092774 -0.7636097,0.647566 -1.005271,0.709519 -1.5566976,0.399101 z M 2.4380679,78.578139 C 2.016054,77.54215 2.3721169,76.893734 3.6992882,76.281393 4.3383139,75.986561 4.861153,75.65124 4.861153,75.536235 c 0,-0.114997 0.091146,-0.15468 0.2025478,-0.08818 0.2335818,0.139427 0.268638,1.457242 0.047532,1.786929 -0.081845,0.122036 -0.5697983,0.41241 -1.0843398,0.645273 -0.5145419,0.232871 -1.0287309,0.617206 -1.1426434,0.854085 -0.2030132,0.422162 -0.211846,0.419071 -0.4461849,-0.156204 z M 25.554951,77.513646 c -0.352849,-0.424077 -0.641544,-0.977688 -0.641544,-1.230234 0,-0.252554 -0.16427,-0.770386 -0.365045,-1.150743 -0.267416,-0.506608 -0.319609,-0.844672 -0.195153,-1.264052 0.09344,-0.314877 0.1243,-0.873013 0.06858,-1.24032 -0.141954,-0.935691 0.141935,-0.536132 0.682987,0.961266 0.252704,0.69938 0.834516,1.958621 1.292915,2.798324 0.698398,1.279331 0.785158,1.556225 0.535415,1.708768 -0.501787,0.3065 -0.712055,0.217551 -1.378152,-0.583009 z M 10.24636,76.893764 C 9.9475359,76.666741 9.3695931,76.324337 8.9620424,76.132872 l -0.7410019,-0.34812 0.6999953,-0.412158 c 0.8081111,-0.475813 1.6975812,-0.519954 2.4216532,-0.120174 0.278503,0.153771 0.71145,0.282706 0.962103,0.286514 0.592052,0.009 0.575733,0.307121 -0.06094,1.113345 -0.605991,0.767361 -1.209303,0.840295 -1.997488,0.241485 z m 10.21541,-1.238856 c -0.113832,-0.289176 -0.206968,-0.825064 -0.206968,-1.190862 0,-0.733577 0.258783,-0.940281 1.432986,-1.144611 0.398238,-0.06928 0.935442,-0.316201 1.193788,-0.548665 l 0.469719,-0.422665 -0.100874,1.013978 c -0.108529,1.090894 -0.583614,1.792524 -1.21375,1.792524 -0.210857,0 -0.604901,0.230867 -0.875655,0.51304 l -0.49228,0.513034 z M 1.7254834,75.340911 c -0.2208395,-1.136968 0.1273032,-1.66543 1.3505529,-2.050091 0.5919093,-0.186127 1.235705,-0.472796 1.4306576,-0.637044 0.3299666,-0.277996 0.3544591,-0.245049 0.3544591,0.476818 0,0.996511 -0.2941449,1.355796 -1.4178363,1.731828 -0.5013065,0.16776 -1.0632045,0.496929 -1.2486632,0.731479 -0.3369361,0.42614 -0.3372989,0.42594 -0.4691701,-0.25299 z M 6.181178,75.3608 c -0.2227151,-0.677747 1.4311218,-6.512688 3.0249471,-10.672395 0.9933169,-2.592443 3.9545559,-8.35721 4.9240679,-9.585885 0.764184,-0.968461 0.78418,-0.978723 2.018254,-1.036093 1.43813,-0.06684 1.489097,-0.01871 1.868951,1.764792 0.211663,0.993807 0.180011,1.401455 -0.281013,3.61916 -0.28575,1.374564 -0.734736,3.731674 -0.997746,5.238026 -0.396161,2.268953 -0.587305,2.904821 -1.114143,3.706372 -0.349768,0.532147 -0.635943,1.063376 -0.635943,1.180511 0,0.117134 -0.272151,0.368238 -0.60478,0.558017 -0.332628,0.18978 -0.841253,0.644497 -1.130277,1.010481 -0.289024,0.365991 -0.924334,0.851911 -1.411799,1.079835 -0.487465,0.227917 -1.152077,0.706761 -1.476913,1.064094 -0.324838,0.357332 -0.9291887,0.767943 -1.343003,0.912472 C 8.607966,74.344708 7.9810573,74.749694 7.6286493,75.100158 6.9019261,75.82286 6.3647994,75.91958 6.181178,75.3608 Z m 6.478073,-0.710472 c -0.445605,-0.257079 -1.029398,-0.468863 -1.297317,-0.47063 -0.471297,-0.003 -0.475427,-0.01568 -0.127107,-0.387446 0.198011,-0.211332 0.747847,-0.527288 1.221858,-0.702132 0.789186,-0.291098 0.914308,-0.291689 1.484247,-0.0074 0.342325,0.170977 0.854801,0.310869 1.138837,0.310869 0.643485,0 0.643805,0.11939 0.0028,1.030553 -0.615158,0.874366 -1.204006,0.929244 -2.423274,0.225817 z m 3.240769,-2.038889 c -0.445606,-0.199236 -1.107191,-0.368771 -1.47019,-0.376757 -0.612517,-0.01346 -0.64166,-0.04348 -0.405096,-0.416875 0.140196,-0.221307 0.551862,-0.581058 0.914814,-0.799451 0.532363,-0.320334 0.825979,-0.368209 1.51911,-0.247718 0.472559,0.08215 1.064278,0.127485 1.314931,0.100749 0.250653,-0.02677 0.455733,-8.9e-5 0.455733,0.05922 0,0.399071 -0.721802,1.726063 -1.023781,1.882155 -0.435719,0.225226 -0.307113,0.245056 -1.305521,-0.201336 z M 1.4178367,72.047949 c 0,-0.325538 0.1067723,-0.818224 0.2372725,-1.094852 0.2368828,-0.502149 0.4521124,-0.593279 1.7882075,-0.757121 0.389905,-0.04784 0.909243,-0.149201 1.154084,-0.225299 0.4280876,-0.133054 0.4371837,-0.109445 0.2371056,0.615401 -0.2589862,0.93825 -0.6523587,1.242834 -1.6051354,1.242834 -0.4461528,0 -0.9578852,0.162378 -1.2778485,0.40546 l -0.5336857,0.405459 z m 18.9729773,0.238387 c -0.162143,-0.15661 0.03315,-1.371125 0.301099,-1.872543 0.152353,-0.285094 0.438338,-0.331868 1.794209,-0.293442 1.856808,0.05264 2.026232,0.266011 1.029459,1.296617 -0.502701,0.519762 -0.731049,0.60758 -1.579875,0.60758 -0.545732,0 -1.084906,0.08949 -1.198164,0.198888 -0.113258,0.109393 -0.269285,0.137697 -0.346728,0.06292 z m -4.38952,-2.520715 c 0,-0.159508 0.30515,-0.611623 0.678112,-1.004691 0.606626,-0.639336 0.776112,-0.711101 1.607716,-0.680719 0.511281,0.01871 0.986257,-0.05457 1.055499,-0.162784 0.06924,-0.10821 0.268887,-0.196752 0.443652,-0.196752 0.260132,0 0.293092,0.150776 0.181753,0.831429 -0.0748,0.457291 -0.304768,0.995833 -0.511035,1.196763 -0.327567,0.319091 -0.51511,0.34202 -1.481835,0.18115 -0.608742,-0.101296 -1.301892,-0.114472 -1.540333,-0.02928 -0.320168,0.114391 -0.433529,0.07906 -0.433529,-0.135116 z M 1.4178367,68.916461 c 0,-0.335395 0.1953732,-0.793979 0.4557327,-1.069705 0.3825536,-0.405135 0.6879449,-0.496686 1.9018528,-0.570137 l 1.4461191,-0.0875 -0.1716852,0.578181 c -0.280079,0.943225 -0.5554575,1.127156 -1.6875461,1.127156 -0.6172156,0 -1.2282081,0.124521 -1.4943091,0.30454 -0.4352286,0.294433 -0.4501642,0.285065 -0.4501642,-0.282535 z m 21.5713643,0.178467 c -0.222803,-0.08981 -0.610176,-0.118096 -0.860829,-0.06285 -0.598268,0.131848 -0.595957,-0.269375 0.0065,-1.135741 0.300868,-0.432632 0.654475,-0.686346 1.01274,-0.726628 0.500706,-0.05634 0.550714,-0.003 0.55323,0.586891 0.0015,0.356829 0.05773,0.846868 0.124898,1.088959 0.131492,0.473905 -0.104823,0.544347 -0.836581,0.249374 z M 81.55627,67.166546 c -0.320163,-0.341687 -0.250851,-0.397541 1.478051,-1.191099 1.83737,-0.843341 2.238388,-0.880148 2.238388,-0.205454 0,0.275098 -0.408628,0.556147 -1.547638,1.064426 -0.851199,0.379847 -1.611813,0.690628 -1.690265,0.690628 -0.07844,0 -0.293789,-0.161328 -0.478536,-0.358501 z M 17.41913,67.065383 c 0,-0.451546 0.585773,-1.532446 0.99323,-1.832772 0.177833,-0.131071 0.553705,-0.241115 0.835271,-0.244538 0.281567,-0.0037 0.714672,-0.143368 0.962459,-0.311002 0.247785,-0.167628 0.541506,-0.250462 0.652712,-0.184079 0.31364,0.187214 0.238326,1.525761 -0.113115,2.010373 -0.268578,0.370353 -0.502718,0.434791 -1.579875,0.434791 -0.713488,0 -1.370487,0.102302 -1.507625,0.234756 -0.189044,0.182593 -0.243057,0.158696 -0.243057,-0.107529 z M 1.9175249,65.940689 c 0.077737,-0.258366 0.303574,-0.689844 0.5018593,-0.958834 0.3306418,-0.448544 0.4886308,-0.489078 1.906404,-0.489078 1.7313936,0 1.9114745,0.185772 1.1209829,1.156392 C 5.0563241,66.12859 4.912842,66.169449 3.7757499,66.124967 3.0916058,66.098201 2.3618258,66.151511 2.1540181,66.24338 1.8263335,66.388279 1.7949443,66.3481 1.9175249,65.940689 Z M 78.67131,65.729644 c -0.30933,-0.577744 -0.309032,-0.638419 0.0046,-0.859711 0.304224,-0.214852 0.155932,-0.617243 -1.519214,-4.122419 -1.020992,-2.136372 -1.880244,-3.910458 -1.909465,-3.942407 -0.02924,-0.03194 -0.843131,0.294425 -1.808693,0.725283 -1.555138,0.69394 -1.769687,0.745239 -1.87922,0.449349 -0.471938,-1.274886 -0.956445,-2.368533 -1.574248,-3.553428 -0.392345,-0.752478 -0.713349,-1.409862 -0.713349,-1.460858 0,-0.05102 0.316082,0.03483 0.70241,0.190748 0.386327,0.1559 0.969474,0.28346 1.295891,0.28346 0.326409,0 0.990152,0.219022 1.474973,0.486718 0.484829,0.267697 1.070699,0.487784 1.301929,0.489077 0.231238,0.0015 0.641397,0.234402 0.91147,0.51801 0.270066,0.283608 0.901197,0.692942 1.4025,0.909642 0.501308,0.216693 1.200564,0.606086 1.553897,0.865301 0.353341,0.259223 0.991361,0.562906 1.417834,0.674849 0.426472,0.111937 0.927064,0.333606 1.112415,0.492597 0.185352,0.158984 0.856122,0.437904 1.490606,0.619824 1.122398,0.321819 1.168789,0.36307 1.714846,1.524926 l 0.561237,1.194159 -0.690888,0.318212 c -0.731584,0.336955 -0.996437,0.724114 -0.812341,1.187475 0.09081,0.228553 0.344239,0.173114 1.341456,-0.293449 0.676229,-0.316378 1.302322,-0.575238 1.391316,-0.575238 0.08899,0 0.313517,0.307283 0.498945,0.682856 0.328163,0.664661 0.325116,0.690377 -0.114394,0.965496 -0.769884,0.48192 -6.178555,2.851149 -6.508846,2.851149 -0.171901,0 -0.462322,-0.279726 -0.645369,-0.621621 z M 18.026774,63.729305 c 0,-0.766481 0.103828,-1.029764 0.592064,-1.501324 0.325634,-0.314515 0.730626,-0.571845 0.899981,-0.571845 0.169354,0 0.448961,-0.194489 0.621347,-0.432196 0.459433,-0.633532 0.804501,-0.184618 0.814991,1.060264 l 0.0086,1.016307 -1.01274,0.274099 c -0.557007,0.150762 -1.21782,0.456374 -1.468473,0.679145 L 18.02681,64.658793 Z M 4.6586045,63.390916 C 4.3801014,63.282721 3.9015818,63.229034 3.5952281,63.271623 c -0.6617024,0.09198 -0.721947,-0.209462 -0.209361,-1.047569 0.4738314,-0.77474 0.8464009,-0.842291 2.0034207,-0.363277 0.5440158,0.225233 1.1946171,0.371566 1.4457803,0.325191 0.607729,-0.112202 0.5756646,0.08827 -0.1309733,0.81889 -0.6126575,0.633458 -1.1484132,0.734569 -2.0454903,0.386058 z M 6.278989,60.971431 C 5.7776824,60.714057 5.2080158,60.548677 5.0130637,60.603917 4.4670058,60.758642 4.5830721,60.234192 5.2266949,59.638621 5.9135321,59.003063 6.4473127,58.974567 7.1838408,59.53413 c 0.304913,0.231651 0.8736521,0.527193 1.2638641,0.656764 l 0.7094772,0.235577 -0.5782674,0.393533 C 7.6538523,61.449558 7.2606945,61.475436 6.278989,60.971431 Z m 12.215223,-0.333088 c 0.06109,-0.247193 0.220632,-0.999641 0.354539,-1.672124 0.133908,-0.672475 0.29997,-1.21992 0.369027,-1.216541 0.243985,0.01198 0.842973,0.964128 0.959008,1.52449 0.105202,0.508042 0.01702,0.633339 -0.838036,1.190699 -0.919879,0.599616 -0.951457,0.606101 -0.844538,0.173476 z M 8.4366889,58.917309 C 8.0560507,58.59452 7.6025254,58.330417 7.4288544,58.330417 c -0.6281765,0 -0.5369552,-0.380608 0.2084746,-0.869841 0.4186474,-0.274764 0.9340957,-0.499569 1.1454418,-0.499569 0.2113461,0 0.7674864,0.39746 1.2358672,0.883246 0.77388,0.802638 0.825898,0.918693 0.569971,1.271597 -0.420545,0.579911 -1.3332691,0.495702 -2.1519201,-0.198541 z M 87.955422,58.281514 c -0.111408,-0.134495 -0.269805,-0.45593 -0.351993,-0.714303 -0.120472,-0.378701 -0.08775,-0.446895 0.168824,-0.351802 0.175039,0.06484 0.872213,0.228465 1.549268,0.363536 l 1.231012,0.245574 -0.665067,0.342567 c -0.786771,0.405253 -1.648849,0.456315 -1.932044,0.114428 z M 20.711277,57.497442 c -0.789695,-0.780167 -1.657389,-2.265654 -1.667314,-2.854431 -0.01067,-0.633243 -0.675619,-1.577726 -1.245959,-1.769753 -0.63687,-0.21443 -2.116292,-0.03238 -3.039956,0.374102 -0.435361,0.191591 -0.748064,0.113889 -2.264065,-0.562587 -0.967416,-0.431678 -1.758938,-0.870691 -1.758938,-0.975574 0,-0.456337 1.715887,-2.222482 3.229434,-3.324018 3.275729,-2.384038 6.667283,-3.494625 11.273459,-3.691584 1.687377,-0.07216 2.699629,-0.04192 2.779585,0.08304 0.06917,0.108084 -0.378841,0.935041 -0.995566,1.837674 -1.624865,2.37813 -3.296248,5.806839 -4.732997,9.709348 l -0.737669,2.003667 z m -0.671794,-5.985904 c 0.803562,-0.562351 0.750595,-0.810705 -0.172898,-0.810705 -0.91613,0 -1.637263,-0.513987 -1.637263,-1.166972 0,-0.211451 0.282882,-0.695633 0.628626,-1.075968 l 0.628627,-0.691515 H 18.7537 c -1.115786,0 -2.236829,1.061092 -2.236829,2.117207 0,1.731578 2.032386,2.670833 3.522612,1.627953 z m 64.473669,6.689323 c -0.160517,-0.06255 -0.253637,-0.504419 -0.254433,-1.207247 -6.82e-4,-0.609716 -0.135056,-1.356352 -0.298598,-1.659199 l -0.297357,-0.550631 0.551791,0.415411 c 0.303481,0.228479 0.848014,0.594995 1.210067,0.814491 0.362053,0.219495 0.658843,0.544442 0.659524,0.72211 6.89e-4,0.177661 0.137414,0.57518 0.303826,0.883372 0.166413,0.308193 0.302571,0.5943 0.302571,0.635802 0,0.109334 -1.87773,0.0627 -2.177391,-0.05412 z m -2.461757,-0.717615 c -1.206124,-0.309361 -1.372131,-0.620844 -1.041121,-1.953521 0.147305,-0.593057 0.218109,-1.261925 0.157341,-1.486359 -0.06729,-0.248532 -0.01416,-0.408077 0.135921,-0.408077 0.241725,0 1.519045,1.101041 1.55886,1.343723 0.01646,0.100291 0.100439,2.801987 0.08545,2.748773 -0.0023,-0.0087 -0.405842,-0.118702 -0.896451,-0.244539 z M 10.937593,57.156635 c -0.11924,-0.215192 -0.344935,-0.391256 -0.501543,-0.391256 -0.6264767,0 -0.4806115,-0.398383 0.283772,-0.775021 0.88891,-0.438 1.635607,-0.520568 1.635607,-0.180862 0,0.313257 -0.854981,1.738402 -1.042911,1.738402 -0.08697,0 -0.255685,-0.176063 -0.374925,-0.391263 z m 77.53491,-0.76898 c -1.430664,-0.441816 -2.613309,-1.102919 -3.838519,-2.145748 -0.518398,-0.441239 -1.110854,-0.804989 -1.316561,-0.808353 -0.205707,-0.0037 -0.738604,-0.222986 -1.184207,-0.488072 -0.445603,-0.265079 -1.001145,-0.482415 -1.234534,-0.48297 -0.233389,-5.54e-4 -0.590021,-0.177831 -0.792528,-0.393954 -0.202508,-0.216117 -0.740725,-0.495178 -1.196043,-0.620127 -0.455318,-0.124942 -1.010148,-0.377991 -1.232949,-0.562314 -0.620321,-0.513196 -1.647414,-0.967803 -2.186573,-0.967803 -0.266774,0 -0.658676,-0.186171 -0.870889,-0.413711 -0.453145,-0.48586 -1.0249,-0.7317 -2.411329,-1.036788 -1.012605,-0.222822 -1.012857,-0.223081 -1.861623,-1.880462 -0.466885,-0.91169 -0.854253,-1.70944 -0.86083,-1.772791 -0.01684,-0.162126 5.446732,-2.601863 5.565367,-2.48521 0.032,0.03142 0.763691,1.509747 1.625995,3.285097 0.862307,1.775343 1.634274,3.30106 1.71549,3.390474 0.175016,0.192693 1.724239,-0.524775 2.373245,-1.099089 0.393485,-0.348201 0.455731,-0.599889 0.455731,-1.842583 0,-1.6706 0.488397,-3.265169 1.470969,-4.802554 l 0.655789,-1.026082 0.103041,0.978147 c 0.05665,0.537988 0.339592,1.418321 0.628712,1.956309 0.321303,0.597893 0.499122,1.206308 0.457392,1.565038 -0.03751,0.322795 -0.114646,0.96812 -0.171334,1.434062 -0.0962,0.7908 -0.05014,0.893028 0.691914,1.536453 0.987893,0.856569 1.475999,1.963377 1.309457,2.969303 -0.115022,0.694761 -0.06385,0.791798 0.808413,1.533385 1.187652,1.009711 3.364346,1.735955 4.621196,1.541835 2.863869,-0.44231 4.770543,-2.549698 4.970471,-5.493692 0.144594,-2.12923 -0.834664,-4.491316 -2.471938,-5.962614 -0.843981,-0.758422 -1.76613,-2.794274 -1.692279,-3.736087 l 0.06216,-0.792752 1.480906,0.716861 c 2.81277,1.36158 4.876149,4.024723 5.61986,7.253404 1.071845,4.653176 -1.64852,9.475228 -6.059148,10.74031 -1.374113,0.394132 -3.807974,0.353717 -5.234826,-0.08692 z m -9.718056,-0.314027 c -0.71459,-0.37476 -0.869488,-0.919291 -0.562623,-1.977877 0.188781,-0.651232 0.194959,-0.988069 0.02473,-1.348921 -0.298483,-0.632719 0.06354,-0.643713 1.000402,-0.03039 0.740089,0.484508 0.700205,0.275201 0.538394,2.825632 -0.05719,0.900895 -0.17615,0.964098 -1.0009,0.531562 z m -2.523655,-1.445057 c -0.90223,-0.531356 -0.984203,-0.724055 -0.984203,-2.313412 0,-1.600122 0.126788,-1.700376 1.286659,-1.017394 0.639602,0.376624 0.669328,0.441867 0.512163,1.12414 -0.09176,0.398369 -0.169459,1.142469 -0.172644,1.653558 -0.0031,0.511081 -0.0061,0.92891 -0.0061,0.928511 0,-3.99e-4 -0.28628,-0.169335 -0.636172,-0.375403 z m -2.807136,-1.417204 c -1.019339,-0.544524 -1.316566,-0.989393 -1.316566,-1.970601 0,-0.526298 -0.09435,-1.127193 -0.209672,-1.33531 -0.183997,-0.332067 -0.140591,-0.378309 0.354458,-0.377673 0.310279,4.07e-4 0.865668,0.178289 1.234195,0.395308 0.649381,0.382398 0.665579,0.423138 0.52482,1.319775 -0.179357,1.142461 -0.179273,1.212289 0.0023,1.756628 0.162033,0.485979 0.01952,0.537197 -0.589455,0.211873 z m 16.750565,-0.547179 c -0.36771,-0.08653 -0.729655,-0.216331 -0.804326,-0.288451 -0.201144,-0.194274 0.385118,-0.494689 0.972085,-0.49812 0.281564,-0.0015 0.720408,-0.144025 0.975201,-0.316399 0.560564,-0.379226 0.61161,-0.340468 0.68406,0.519355 0.05267,0.624962 0.01233,0.676823 -0.550818,0.707663 -0.334203,0.01834 -0.908492,-0.03749 -1.276202,-0.124048 z M 70.081612,52.052491 c -0.953015,-0.547889 -1.215288,-0.912475 -1.215288,-1.689374 0,-0.35981 -0.147205,-0.871187 -0.327113,-1.136391 l -0.327121,-0.482194 0.985397,0.003 c 1.451655,0.0044 1.591909,0.153616 1.599856,1.701921 0.0038,0.730045 0.08185,1.481413 0.173577,1.669706 0.218913,0.449387 -0.02327,0.431235 -0.889308,-0.06669 z m 23.211984,-0.324593 c 0.203747,-0.848191 0.646655,-1.400087 1.352816,-1.685669 0.35883,-0.14512 0.686288,-0.236346 0.727673,-0.202726 0.167392,0.136003 -1.00472,1.805887 -1.477653,2.105177 -0.685392,0.433749 -0.753241,0.409349 -0.602836,-0.216782 z m -4.982667,-0.687034 c 0,-1.212681 0.378887,-1.898111 1.231342,-2.227546 0.428371,-0.165542 0.834013,-0.468833 0.901426,-0.673962 0.193818,-0.589812 0.439969,-0.440965 0.807372,0.488205 0.472857,1.195875 0.279168,1.632344 -0.845817,1.905941 -0.503929,0.122554 -1.181306,0.438251 -1.505281,0.701548 l -0.589042,0.478719 z M 66.670002,49.736498 c -0.463042,-0.530394 -0.841898,-1.014576 -0.841898,-1.075968 0,-0.21043 0.935163,-0.111744 1.259429,0.132913 0.284909,0.214963 0.73898,1.90739 0.511738,1.90739 -0.04808,0 -0.466227,-0.433948 -0.929269,-0.964335 z m 25.691891,-0.515747 c 0,-1.114446 0.211448,-1.5025 1.11145,-2.039734 0.391312,-0.23358 0.711482,-0.549566 0.711482,-0.702191 0,-0.915373 1.037354,0.357303 1.083646,1.329475 0.02802,0.588858 -0.06231,0.685467 -1.179667,1.260838 -0.665519,0.342708 -1.242787,0.717993 -1.282809,0.833959 -0.18235,0.528383 -0.444102,0.126214 -0.444102,-0.682347 z m -5.005855,-0.599963 c -0.08263,-0.200929 -0.152242,-0.74728 -0.154684,-1.214101 -0.0038,-0.748071 0.08568,-0.918589 0.755117,-1.437294 0.417753,-0.32369 0.759557,-0.706842 0.759557,-0.851452 0,-0.608977 0.418297,-0.431745 0.915673,0.387973 0.649764,1.070881 0.552334,1.46434 -0.504703,2.038144 -0.439953,0.238823 -0.984594,0.660985 -1.210312,0.938139 -0.380173,0.466806 -0.421466,0.477017 -0.560648,0.138591 z m 3.918487,-1.382956 c -0.07035,-0.06795 -0.127921,-0.590928 -0.127921,-1.162166 0,-0.937895 0.06875,-1.099045 0.708917,-1.661691 0.389903,-0.342685 0.708917,-0.740973 0.708917,-0.88508 0,-0.578913 0.693323,-0.07631 1.200483,0.870255 0.332204,0.620031 0.101632,1.161885 -0.655299,1.539943 -0.352767,0.176189 -0.881201,0.568288 -1.174286,0.87132 -0.293085,0.303039 -0.59045,0.495377 -0.660811,0.427419 z m -5.263089,-1.641653 c -0.183499,-0.253027 -0.333628,-0.785418 -0.333628,-1.183084 0,-0.624733 0.10327,-0.784501 0.759557,-1.175076 0.417753,-0.24862 0.962646,-0.662738 1.210863,-0.920253 l 0.451314,-0.468219 0.20697,0.525773 c 0.396265,1.006665 0.259823,1.439327 -0.653859,2.073332 -0.473461,0.328526 -0.961352,0.824635 -1.084213,1.102453 l -0.223384,0.50513 z m 4.173724,-1.193635 c -0.393631,-0.458097 -0.675034,-1.365388 -0.545628,-1.759195 0.06798,-0.206933 0.503271,-0.641694 0.967262,-0.966154 0.463999,-0.324452 0.946172,-0.774533 1.071498,-1.000173 0.221485,-0.398768 0.233465,-0.399744 0.427713,-0.03505 0.586438,1.100945 0.519224,1.459379 -0.432237,2.305079 -0.500554,0.444913 -0.988414,1.014739 -1.084145,1.266295 -0.142443,0.374301 -0.215904,0.408668 -0.404463,0.189217 z M 67.921155,43.379057 c -0.312951,-0.633857 -0.308105,-0.68852 0.106073,-1.19708 0.310119,-0.380793 0.433998,-0.807747 0.433998,-1.495801 v -0.962901 l 1.569471,-0.690798 c 1.074467,-0.472928 1.66158,-0.634692 1.861515,-0.512878 0.572729,0.348926 0.430231,0.62619 -0.574573,1.117973 -1.063704,0.520612 -1.516358,1.039273 -1.258587,1.442115 0.110008,0.171923 0.743841,-0.03268 2.305549,-0.744152 1.184603,-0.539689 2.208377,-0.98126 2.275056,-0.98126 0.225128,0 0.737348,1.419518 0.570148,1.580047 -0.151438,0.145387 -5.420497,2.523621 -6.500186,2.933916 -0.399939,0.151982 -0.503677,0.08762 -0.788464,-0.489181 z M 37.988063,42.61262 c -0.284173,-0.359846 -0.516679,-0.75193 -0.516679,-0.871305 0,-0.119367 1.189483,-1.775091 2.643295,-3.679391 3.363881,-4.406234 3.35899,-4.395232 2.810736,-6.317255 -1.020819,-3.578686 -0.984881,-3.493294 -1.511007,-3.590435 -0.624913,-0.115382 -0.740713,0.02935 -1.369794,1.71197 -0.28159,0.75318 -0.575355,1.523469 -0.65281,1.711762 -0.121885,0.296303 -0.430799,0.342042 -2.296549,0.340038 -2.954566,-0.003 -5.295215,-0.65331 -5.295215,-1.470765 0,-0.159649 0.834303,-1.398557 1.854007,-2.753128 1.455087,-1.932921 1.792843,-2.500248 1.569747,-2.636666 -0.771847,-0.471982 -1.134262,-0.290876 -3.051356,1.524771 -2.80579,2.657325 -2.855006,2.681909 -5.508987,2.751649 l -2.256414,0.0593 0.50637,-0.420107 c 1.554207,-1.28943 6.886633,-6.111667 6.886633,-6.227737 0,-0.210393 -0.459683,-0.606514 -0.703832,-0.606514 -0.119745,0 -2.604972,1.572394 -5.522727,3.49421 l -5.305009,3.494204 -2.082952,0.131678 c -2.58964,0.163708 -5.768219,-0.142015 -7.018273,-0.675026 -1.078816,-0.459997 -3.4704217,-1.925646 -3.4704217,-2.126783 0,-0.381836 0.672511,-0.827222 2.2280285,-1.475549 1.9069642,-0.794808 10.8913932,-5.189811 18.2121392,-8.909018 5.85821,-2.976187 5.987957,-3.002686 8.090151,-1.652567 l 1.452365,0.932778 -0.126388,0.920223 c -0.222531,1.620219 0.06786,1.8109 4.023126,2.641671 1.081238,0.227112 1.662647,0.454008 1.859734,0.725779 0.280454,0.386723 0.308243,0.387899 1.270384,0.05375 l 0.983652,-0.341635 1.253389,0.611099 1.253389,0.611098 1.30791,-0.622936 1.307918,-0.622936 0.848551,0.369577 c 0.841615,0.366552 0.851314,0.366286 1.185402,-0.03224 0.236635,-0.282255 0.997463,-0.551592 2.557586,-0.905413 3.489573,-0.791384 3.334758,-0.689792 3.334758,-2.188492 v -1.27232 l 1.365043,-0.884452 c 2.214932,-1.435142 2.172774,-1.447194 11.091665,3.172931 1.336817,0.692498 5.779583,2.857943 9.872827,4.812108 6.314293,3.014524 7.434792,3.612328 7.393002,3.944292 -0.06124,0.48683 -1.888455,1.70624 -3.391293,2.263274 -1.44191,0.534446 -4.438983,0.815008 -6.952589,0.650841 L 76.127422,29.12898 72.802948,26.954388 c -1.828467,-1.196023 -4.243197,-2.780203 -5.36607,-3.5204 -1.830059,-1.206367 -2.092615,-1.323346 -2.5341,-1.129064 -0.270877,0.119205 -0.485556,0.284651 -0.477058,0.367655 0.0085,0.083 1.666119,1.603471 3.683612,3.378814 l 3.668164,3.227905 -1.656788,0.05678 c -2.581088,0.08848 -2.9866,-0.08649 -5.59818,-2.41547 -1.259994,-1.123659 -2.43128,-2.043017 -2.602852,-2.043017 -0.436186,0 -0.952724,0.208959 -0.952724,0.385415 0,0.08136 0.82406,1.223683 1.831246,2.538497 1.276194,1.665994 1.795694,2.498777 1.713935,2.747567 -0.06453,0.196345 -0.546776,0.558595 -1.071689,0.805004 -0.845435,0.396875 -1.265094,0.449179 -3.676187,0.458207 l -2.721809,0.0102 -0.629623,-1.711053 c -0.34629,-0.941074 -0.724488,-1.80267 -0.840436,-1.914666 -0.328744,-0.317516 -1.220968,0.101792 -1.335837,0.627787 -0.05458,0.250106 -0.343205,1.324344 -0.641289,2.387196 -0.457752,1.632152 -0.506548,2.036118 -0.314031,2.599533 0.125364,0.366893 1.413968,2.220611 2.863555,4.119381 1.449588,1.898769 2.679705,3.563269 2.733591,3.698888 0.135416,0.340837 -0.972177,1.637299 -1.398772,1.637306 -0.191322,0 -0.980268,-0.190814 -1.753222,-0.424047 l -1.405363,-0.424048 -1.206607,-2.070234 c -1.238369,-2.124742 -1.718873,-2.521654 -2.2726,-1.877238 -0.262632,0.305642 -0.231276,0.586189 0.328216,2.937088 0.08994,0.377909 -0.01087,0.391255 -2.954356,0.391255 -2.218041,0 -3.04746,-0.06322 -3.04746,-0.232397 0,-0.127819 0.143178,-0.828702 0.318179,-1.557526 0.300565,-1.251751 0.297977,-1.339391 -0.0467,-1.582835 -0.200701,-0.141741 -0.503386,-0.232945 -0.672639,-0.202675 -0.16926,0.03024 -0.854537,0.982754 -1.522842,2.116624 l -1.215097,2.061583 -1.452536,0.432225 c -0.798894,0.237729 -1.591874,0.432233 -1.762177,0.432233 -0.170302,0 -0.542145,-0.294418 -0.826318,-0.654265 z M 84.77508,42.305056 c -0.171909,-0.32108 -0.31256,-0.85594 -0.31256,-1.18857 0,-0.555423 0.107473,-0.651366 1.31656,-1.17532 0.724113,-0.31379 1.316561,-0.662242 1.316561,-0.774341 0,-0.112092 0.09114,-0.203806 0.202546,-0.203806 0.277476,0 0.255888,1.433567 -0.0307,2.041146 -0.128304,0.271992 -0.400475,0.545774 -0.604812,0.608415 -0.204344,0.06263 -0.642307,0.375425 -0.973264,0.695079 l -0.601734,0.581183 z m 4.065302,-1.659843 c -0.600785,-1.222811 -0.460853,-1.629823 0.736476,-2.142109 0.584854,-0.25024 1.187637,-0.600289 1.339512,-0.777898 0.386886,-0.452441 0.635325,-0.227843 0.635325,0.574366 0,0.85401 -0.476798,1.770751 -1.005232,1.932744 -0.221118,0.0678 -0.577038,0.338123 -0.790929,0.600754 -0.213891,0.262632 -0.433745,0.477513 -0.488573,0.477513 -0.05481,0 -0.246786,-0.299416 -0.426579,-0.66537 z m -4.66552,-1.437382 c -0.328032,-0.998228 0.478827,-2.077199 1.718482,-2.29804 0.525533,-0.09363 0.791794,-0.04725 0.97883,0.170385 0.442602,0.515089 0.161719,0.930671 -0.888948,1.315243 -0.556131,0.203561 -1.160415,0.561249 -1.342857,0.794852 l -0.331707,0.424735 z m 3.933522,-1.896765 c 0,-0.871505 0.688446,-1.618267 1.639854,-1.778774 0.541035,-0.09126 0.817164,-0.03712 1.073496,0.210446 0.556652,0.537632 0.302364,0.906182 -0.882456,1.27899 -0.608326,0.191413 -1.210825,0.486422 -1.338892,0.65558 -0.35713,0.471724 -0.492002,0.371329 -0.492002,-0.366242 z m -41.251261,-19.142964 -1.24803,-0.595328 -1.030634,0.413689 c -0.566848,0.227526 -1.030288,0.39655 -1.029867,0.375618 4.21e-4,-0.02092 0.362672,-1.177427 0.805006,-2.569973 0.442327,-1.392545 0.783779,-2.549233 0.758784,-2.570402 -0.541241,-0.458459 -3.702162,-2.038506 -3.918028,-1.958497 -0.205613,0.0762 -0.141093,-0.145682 0.205679,-0.70733 0.975696,-1.5802917 0.982533,-1.5838778 2.72183,-1.4283322 0.853994,0.076379 1.559672,0.1520556 1.568177,0.1681669 0.0085,0.016119 0.226469,0.3679428 0.484362,0.7818383 0.421941,0.677178 0.531321,0.740478 1.092221,0.632135 1.210588,-0.233855 1.150516,-0.7722564 -0.159461,-1.4291086 L 46.484766,8.9684965 47.012825,8.7974238 c 0.431839,-0.1399075 0.813106,-0.022551 2.0925,0.6439572 0.860447,0.4482702 1.645504,1.001623 1.744572,1.229673 0.212827,0.489942 2.015136,7.196153 2.015136,7.498135 0,0.123626 -0.446705,0.04858 -1.104829,-0.18555 l -1.104829,-0.39309 -0.870016,0.438562 c -1.533499,0.773011 -1.593157,0.775843 -2.928236,0.138991 z m -6.701977,-1.530183 c -0.594675,-0.165845 -0.658281,-0.255814 -0.658281,-0.931159 0,-0.777439 0.630701,-1.803114 1.6839,-2.738428 0.718783,-0.638323 1.23628,-0.438281 1.081535,0.418081 -0.063,0.348549 -0.175874,1.271973 -0.250862,2.052052 -0.131938,1.37253 -0.153476,1.417752 -0.667175,1.400679 -0.29196,-0.0097 -0.827063,-0.100254 -1.189117,-0.201225 z M 40.256709,6.484796 C 38.415808,4.5793427 37.563389,3.2234336 37.75144,2.4997701 37.81537,2.2537454 38.068147,1.8063033 38.313163,1.5054528 38.806441,0.8997664 40.703369,0.00664937 41.510617,9.6521693e-6 41.795571,-0.00220852 42.89461,0.37817823 43.952925,0.84559127 l 1.924197,0.84984043 9.722305,0.053384 c 10.787755,0.059225 10.228677,-0.014714 10.228677,1.3534023 0,0.5414407 0.07456,0.6470035 0.455731,0.6454064 0.250659,-7.394e-4 0.943309,-0.2211369 1.539225,-0.4890771 1.72283,-0.7746297 1.865687,-0.5996012 0.730107,0.8945295 l -0.718249,0.945037 0.521873,0.3302708 c 0.41708,0.2639402 0.78211,0.3045106 1.81775,0.2020311 0.731952,-0.07246 1.346126,-0.049687 1.411357,0.052275 0.257189,0.4019252 -3.300684,1.9647076 -4.817012,2.1158612 -1.280144,0.1276113 -1.750972,-0.202142 -1.750972,-1.2263303 V 5.9014836 L 54.941151,5.9016166 44.864387,5.9017497 43.396816,5.1725704 41.92924,4.443391 41.472608,4.884918 41.015975,5.3264449 41.77553,6.6689633 c 0.417757,0.7383918 0.759553,1.395976 0.759553,1.4613086 0,0.4576382 -0.815602,-0.1314045 -2.278374,-1.6454759 z"/>
    <style>
        path { fill: #000; }
        @media (prefers-color-scheme: dark) {
            path { fill: #FFF; }
        }
    </style>
</svg>
